solid OpenSCAD_Model
  facet normal -2.22045e-016 -3.48654e-032 1
    outer loop
      vertex 6.25 -2 1.38778e-015
      vertex 3.14039e-016 -2 0
      vertex 6.28078e-016 -4 0
    endloop
  endfacet
  facet normal -2.22045e-016 -3.48654e-032 1
    outer loop
      vertex 6.25 -4 1.38778e-015
      vertex 6.25 -2 1.38778e-015
      vertex 6.28078e-016 -4 0
    endloop
  endfacet
  facet normal -1 -1.5702e-016 -1.97596e-016
    outer loop
      vertex 3.14039e-016 -2 0
      vertex 2.29e-015 -2 -10
      vertex 6.28078e-016 -4 0
    endloop
  endfacet
  facet normal -1 -1.5702e-016 -1.97596e-016
    outer loop
      vertex 6.28078e-016 -4 0
      vertex 2.29e-015 -2 -10
      vertex 2.60404e-015 -4 -10
    endloop
  endfacet
  facet normal -1.77321e-016 1 2.71051e-020
    outer loop
      vertex 3.14039e-016 -2 0
      vertex 6.25 -2 1.38778e-015
      vertex 2.29e-015 -2 -10
    endloop
  endfacet
  facet normal -1.77321e-016 1 2.71051e-020
    outer loop
      vertex 2.29e-015 -2 -10
      vertex 6.25 -2 1.38778e-015
      vertex 6.25 -2 -10
    endloop
  endfacet
  facet normal 1 1.5702e-016 1.97596e-016
    outer loop
      vertex 6.25 -2 -10
      vertex 6.25 -2 1.38778e-015
      vertex 6.25 -4 1.38778e-015
    endloop
  endfacet
  facet normal 1 1.5702e-016 1.97596e-016
    outer loop
      vertex 6.25 -4 -10
      vertex 6.25 -2 -10
      vertex 6.25 -4 1.38778e-015
    endloop
  endfacet
  facet normal 1.77321e-016 -1 -2.71051e-020
    outer loop
      vertex 0.923943 -4 -2.80902
      vertex 6.28078e-016 -4 0
      vertex 2.60404e-015 -4 -10
    endloop
  endfacet
  facet normal 1.77321e-016 -1 -2.71051e-020
    outer loop
      vertex 6.25 -4 -10
      vertex 6.25 -4 1.38778e-015
      vertex 2.60404e-015 -4 -10
    endloop
  endfacet
  facet normal 1.77321e-016 -1 -2.71051e-020
    outer loop
      vertex 6.25 -4 1.38778e-015
      vertex 6.28078e-016 -4 0
      vertex 1.28722 -4 -1.69098
    endloop
  endfacet
  facet normal 1.77321e-016 -1 -2.71051e-020
    outer loop
      vertex 1.28722 -4 -3.30902
      vertex 0.923943 -4 -2.80902
      vertex 2.60404e-015 -4 -10
    endloop
  endfacet
  facet normal 1.77321e-016 -1 -2.71051e-020
    outer loop
      vertex 6.25 -4 1.38778e-015
      vertex 1.28722 -4 -1.69098
      vertex 1.875 -4 -1.5
    endloop
  endfacet
  facet normal 1.77321e-016 -1 -2.71051e-020
    outer loop
      vertex 1.875 -4 -3.5
      vertex 1.28722 -4 -3.30902
      vertex 2.60404e-015 -4 -10
    endloop
  endfacet
  facet normal 1.77321e-016 -1 -2.71051e-020
    outer loop
      vertex 6.25 -4 1.38778e-015
      vertex 1.875 -4 -1.5
      vertex 2.46279 -4 -1.69098
    endloop
  endfacet
  facet normal 1.77321e-016 -1 -2.71051e-020
    outer loop
      vertex 6.25 -4 1.38778e-015
      vertex 2.46279 -4 -1.69098
      vertex 2.82606 -4 -2.19098
    endloop
  endfacet
  facet normal 1.77321e-016 -1 -2.71051e-020
    outer loop
      vertex 6.25 -4 1.38778e-015
      vertex 2.82606 -4 -2.80902
      vertex 2.60404e-015 -4 -10
    endloop
  endfacet
  facet normal 1.77321e-016 -1 -2.71051e-020
    outer loop
      vertex 6.25 -4 1.38778e-015
      vertex 2.82606 -4 -2.19098
      vertex 2.82606 -4 -2.80902
    endloop
  endfacet
  facet normal 1.77321e-016 -1 -2.71051e-020
    outer loop
      vertex 2.82606 -4 -2.80902
      vertex 2.46279 -4 -3.30902
      vertex 2.60404e-015 -4 -10
    endloop
  endfacet
  facet normal 1.77321e-016 -1 -2.71051e-020
    outer loop
      vertex 0.923943 -4 -2.19098
      vertex 6.28078e-016 -4 0
      vertex 0.923943 -4 -2.80902
    endloop
  endfacet
  facet normal 1.77321e-016 -1 -2.71051e-020
    outer loop
      vertex 1.28722 -4 -1.69098
      vertex 6.28078e-016 -4 0
      vertex 0.923943 -4 -2.19098
    endloop
  endfacet
  facet normal 1.77321e-016 -1 -2.71051e-020
    outer loop
      vertex 2.46279 -4 -3.30902
      vertex 1.875 -4 -3.5
      vertex 2.60404e-015 -4 -10
    endloop
  endfacet
  facet normal 2.22045e-016 3.48654e-032 -1
    outer loop
      vertex 2.29e-015 -2 -10
      vertex 6.25 -2 -10
      vertex 2.60404e-015 -4 -10
    endloop
  endfacet
  facet normal 2.22045e-016 3.48654e-032 -1
    outer loop
      vertex 2.60404e-015 -4 -10
      vertex 6.25 -2 -10
      vertex 6.25 -4 -10
    endloop
  endfacet
  facet normal -0.295242 -0.295242 0.908661
    outer loop
      vertex 1.875 -4.58778 -1.69098
      vertex 1.875 -4 -1.5
      vertex 1.28722 -4 -1.69098
    endloop
  endfacet
  facet normal -0.295243 -0.295243 0.90866
    outer loop
      vertex 1.875 -4.58778 -1.69098
      vertex 1.28722 -4 -1.69098
      vertex 1.39947 -4.58778 -1.84549
    endloop
  endfacet
  facet normal -0.772952 -0.295242 0.561584
    outer loop
      vertex 1.39947 -4.58778 -1.84549
      vertex 1.28722 -4 -1.69098
      vertex 0.923943 -4 -2.19098
    endloop
  endfacet
  facet normal -0.772952 -0.295242 0.561584
    outer loop
      vertex 1.10558 -4.58778 -2.25
      vertex 1.39947 -4.58778 -1.84549
      vertex 0.923943 -4 -2.19098
    endloop
  endfacet
  facet normal -0.955422 -0.295242 -1.88795e-016
    outer loop
      vertex 0.923943 -4 -2.19098
      vertex 0.923943 -4 -2.80902
      vertex 1.10558 -4.58778 -2.25
    endloop
  endfacet
  facet normal -0.955422 -0.295242 -1.88795e-016
    outer loop
      vertex 1.10558 -4.58778 -2.25
      vertex 0.923943 -4 -2.80902
      vertex 1.10558 -4.58778 -2.75
    endloop
  endfacet
  facet normal -0.772952 -0.295242 -0.561584
    outer loop
      vertex 1.28722 -4 -3.30902
      vertex 1.10558 -4.58778 -2.75
      vertex 0.923943 -4 -2.80902
    endloop
  endfacet
  facet normal -0.772952 -0.295242 -0.561584
    outer loop
      vertex 1.39947 -4.58778 -3.15451
      vertex 1.10558 -4.58778 -2.75
      vertex 1.28722 -4 -3.30902
    endloop
  endfacet
  facet normal -0.295242 -0.295243 -0.908661
    outer loop
      vertex 1.875 -4 -3.5
      vertex 1.39947 -4.58778 -3.15451
      vertex 1.28722 -4 -3.30902
    endloop
  endfacet
  facet normal -0.295243 -0.295242 -0.908661
    outer loop
      vertex 1.875 -4.58778 -3.30902
      vertex 1.39947 -4.58778 -3.15451
      vertex 1.875 -4 -3.5
    endloop
  endfacet
  facet normal 0.295242 -0.295242 -0.908661
    outer loop
      vertex 2.46279 -4 -3.30902
      vertex 1.875 -4.58778 -3.30902
      vertex 1.875 -4 -3.5
    endloop
  endfacet
  facet normal 0.772952 -0.295242 -0.561584
    outer loop
      vertex 2.46279 -4 -3.30902
      vertex 2.82606 -4 -2.80902
      vertex 2.35053 -4.58778 -3.15451
    endloop
  endfacet
  facet normal 0.295243 -0.295243 -0.90866
    outer loop
      vertex 2.46279 -4 -3.30902
      vertex 2.35053 -4.58778 -3.15451
      vertex 1.875 -4.58778 -3.30902
    endloop
  endfacet
  facet normal 0.955422 -0.295242 1.88779e-016
    outer loop
      vertex 2.82606 -4 -2.80902
      vertex 2.82606 -4 -2.19098
      vertex 2.64442 -4.58778 -2.25
    endloop
  endfacet
  facet normal 0.955422 -0.295242 1.88779e-016
    outer loop
      vertex 2.64442 -4.58778 -2.75
      vertex 2.82606 -4 -2.80902
      vertex 2.64442 -4.58778 -2.25
    endloop
  endfacet
  facet normal 0.772952 -0.295242 -0.561584
    outer loop
      vertex 2.82606 -4 -2.80902
      vertex 2.64442 -4.58778 -2.75
      vertex 2.35053 -4.58778 -3.15451
    endloop
  endfacet
  facet normal 0.772952 -0.295242 0.561584
    outer loop
      vertex 2.82606 -4 -2.19098
      vertex 2.46279 -4 -1.69098
      vertex 2.64442 -4.58778 -2.25
    endloop
  endfacet
  facet normal 0.295242 -0.295243 0.908661
    outer loop
      vertex 2.46279 -4 -1.69098
      vertex 1.875 -4 -1.5
      vertex 2.35053 -4.58778 -1.84549
    endloop
  endfacet
  facet normal 0.772952 -0.295242 0.561584
    outer loop
      vertex 2.64442 -4.58778 -2.25
      vertex 2.46279 -4 -1.69098
      vertex 2.35053 -4.58778 -1.84549
    endloop
  endfacet
  facet normal 0.295243 -0.295242 0.908661
    outer loop
      vertex 2.35053 -4.58778 -1.84549
      vertex 1.875 -4 -1.5
      vertex 1.875 -4.58778 -1.69098
    endloop
  endfacet
  facet normal 0.187593 -0.794654 0.577351
    outer loop
      vertex 2.35053 -4.58778 -1.84549
      vertex 1.875 -4.58778 -1.69098
      vertex 2.05664 -4.95106 -2.25
    endloop
  endfacet
  facet normal 0.187592 -0.794654 0.577351
    outer loop
      vertex 2.05664 -4.95106 -2.25
      vertex 1.875 -4.58778 -1.69098
      vertex 1.875 -4.95106 -2.19098
    endloop
  endfacet
  facet normal -0.187593 -0.794654 0.577351
    outer loop
      vertex 1.875 -4.95106 -2.19098
      vertex 1.875 -4.58778 -1.69098
      vertex 1.39947 -4.58778 -1.84549
    endloop
  endfacet
  facet normal -0.187593 -0.794653 0.577352
    outer loop
      vertex 1.875 -4.95106 -2.19098
      vertex 1.39947 -4.58778 -1.84549
      vertex 1.69336 -4.95106 -2.25
    endloop
  endfacet
  facet normal -0.491124 -0.794654 0.356823
    outer loop
      vertex 1.69336 -4.95106 -2.25
      vertex 1.39947 -4.58778 -1.84549
      vertex 1.10558 -4.58778 -2.25
    endloop
  endfacet
  facet normal -0.491124 -0.794653 0.356824
    outer loop
      vertex 1.69336 -4.95106 -2.25
      vertex 1.10558 -4.58778 -2.25
      vertex 1.58111 -4.95106 -2.40451
    endloop
  endfacet
  facet normal -0.607063 -0.794654 -1.19975e-016
    outer loop
      vertex 1.58111 -4.95106 -2.40451
      vertex 1.10558 -4.58778 -2.25
      vertex 1.10558 -4.58778 -2.75
    endloop
  endfacet
  facet normal -0.607063 -0.794654 -1.19975e-016
    outer loop
      vertex 1.58111 -4.95106 -2.59549
      vertex 1.58111 -4.95106 -2.40451
      vertex 1.10558 -4.58778 -2.75
    endloop
  endfacet
  facet normal -0.491124 -0.794653 -0.356823
    outer loop
      vertex 1.39947 -4.58778 -3.15451
      vertex 1.58111 -4.95106 -2.59549
      vertex 1.10558 -4.58778 -2.75
    endloop
  endfacet
  facet normal -0.491124 -0.794654 -0.356824
    outer loop
      vertex 1.69336 -4.95106 -2.75
      vertex 1.58111 -4.95106 -2.59549
      vertex 1.39947 -4.58778 -3.15451
    endloop
  endfacet
  facet normal -0.187593 -0.794654 -0.577351
    outer loop
      vertex 1.875 -4.58778 -3.30902
      vertex 1.69336 -4.95106 -2.75
      vertex 1.39947 -4.58778 -3.15451
    endloop
  endfacet
  facet normal -0.187592 -0.794654 -0.577351
    outer loop
      vertex 1.875 -4.95106 -2.80902
      vertex 1.69336 -4.95106 -2.75
      vertex 1.875 -4.58778 -3.30902
    endloop
  endfacet
  facet normal 0.187593 -0.794654 -0.577351
    outer loop
      vertex 2.35053 -4.58778 -3.15451
      vertex 1.875 -4.95106 -2.80902
      vertex 1.875 -4.58778 -3.30902
    endloop
  endfacet
  facet normal 0.187593 -0.794653 -0.577352
    outer loop
      vertex 2.35053 -4.58778 -3.15451
      vertex 2.05664 -4.95106 -2.75
      vertex 1.875 -4.95106 -2.80902
    endloop
  endfacet
  facet normal 0.491124 -0.794654 -0.356823
    outer loop
      vertex 2.64442 -4.58778 -2.75
      vertex 2.05664 -4.95106 -2.75
      vertex 2.35053 -4.58778 -3.15451
    endloop
  endfacet
  facet normal 0.491124 -0.794653 -0.356824
    outer loop
      vertex 2.64442 -4.58778 -2.75
      vertex 2.16889 -4.95106 -2.59549
      vertex 2.05664 -4.95106 -2.75
    endloop
  endfacet
  facet normal 0.607063 -0.794654 1.19932e-016
    outer loop
      vertex 2.64442 -4.58778 -2.75
      vertex 2.64442 -4.58778 -2.25
      vertex 2.16889 -4.95106 -2.40451
    endloop
  endfacet
  facet normal 0.607063 -0.794654 1.19932e-016
    outer loop
      vertex 2.16889 -4.95106 -2.59549
      vertex 2.64442 -4.58778 -2.75
      vertex 2.16889 -4.95106 -2.40451
    endloop
  endfacet
  facet normal 0.491124 -0.794653 0.356823
    outer loop
      vertex 2.64442 -4.58778 -2.25
      vertex 2.35053 -4.58778 -1.84549
      vertex 2.16889 -4.95106 -2.40451
    endloop
  endfacet
  facet normal 0.491124 -0.794654 0.356824
    outer loop
      vertex 2.16889 -4.95106 -2.40451
      vertex 2.35053 -4.58778 -1.84549
      vertex 2.05664 -4.95106 -2.25
    endloop
  endfacet
  facet normal 1.77321e-016 -1 -2.71051e-020
    outer loop
      vertex 2.05664 -4.95106 -2.25
      vertex 1.875 -4.95106 -2.19098
      vertex 1.69336 -4.95106 -2.25
    endloop
  endfacet
  facet normal 1.77321e-016 -1 -2.71051e-020
    outer loop
      vertex 1.58111 -4.95106 -2.59549
      vertex 2.05664 -4.95106 -2.25
      vertex 1.58111 -4.95106 -2.40451
    endloop
  endfacet
  facet normal 1.77321e-016 -1 -2.71051e-020
    outer loop
      vertex 1.58111 -4.95106 -2.40451
      vertex 2.05664 -4.95106 -2.25
      vertex 1.69336 -4.95106 -2.25
    endloop
  endfacet
  facet normal 1.77321e-016 -1 -2.71051e-020
    outer loop
      vertex 1.69336 -4.95106 -2.75
      vertex 2.05664 -4.95106 -2.25
      vertex 1.58111 -4.95106 -2.59549
    endloop
  endfacet
  facet normal 1.77321e-016 -1 -2.71051e-020
    outer loop
      vertex 1.875 -4.95106 -2.80902
      vertex 2.05664 -4.95106 -2.25
      vertex 1.69336 -4.95106 -2.75
    endloop
  endfacet
  facet normal 1.77321e-016 -1 -2.71051e-020
    outer loop
      vertex 2.05664 -4.95106 -2.75
      vertex 2.05664 -4.95106 -2.25
      vertex 1.875 -4.95106 -2.80902
    endloop
  endfacet
  facet normal 1.77321e-016 -1 -2.71051e-020
    outer loop
      vertex 2.16889 -4.95106 -2.59549
      vertex 2.05664 -4.95106 -2.25
      vertex 2.05664 -4.95106 -2.75
    endloop
  endfacet
  facet normal 1.77321e-016 -1 -2.71051e-020
    outer loop
      vertex 2.16889 -4.95106 -2.40451
      vertex 2.05664 -4.95106 -2.25
      vertex 2.16889 -4.95106 -2.59549
    endloop
  endfacet
  facet normal -2.22045e-016 -3.48654e-032 1
    outer loop
      vertex 15 -2 3.33067e-015
      vertex 8.75 -2 1.94289e-015
      vertex 8.75 -4 1.94289e-015
    endloop
  endfacet
  facet normal -2.22045e-016 -3.48654e-032 1
    outer loop
      vertex 15 -4 3.33067e-015
      vertex 15 -2 3.33067e-015
      vertex 8.75 -4 1.94289e-015
    endloop
  endfacet
  facet normal -1 -1.5702e-016 -1.97596e-016
    outer loop
      vertex 8.75 -2 1.94289e-015
      vertex 8.75 -2 -10
      vertex 8.75 -4 1.94289e-015
    endloop
  endfacet
  facet normal -1 -1.5702e-016 -1.97596e-016
    outer loop
      vertex 8.75 -4 1.94289e-015
      vertex 8.75 -2 -10
      vertex 8.75 -4 -10
    endloop
  endfacet
  facet normal -1.77321e-016 1 2.71051e-020
    outer loop
      vertex 8.75 -2 1.94289e-015
      vertex 15 -2 3.33067e-015
      vertex 8.75 -2 -10
    endloop
  endfacet
  facet normal -1.77321e-016 1 2.71051e-020
    outer loop
      vertex 8.75 -2 -10
      vertex 15 -2 3.33067e-015
      vertex 15 -2 -10
    endloop
  endfacet
  facet normal 1 1.5702e-016 1.97596e-016
    outer loop
      vertex 15 -2 -10
      vertex 15 -2 3.33067e-015
      vertex 15 -4 3.33067e-015
    endloop
  endfacet
  facet normal 1 1.5702e-016 1.97596e-016
    outer loop
      vertex 15 -4 -10
      vertex 15 -2 -10
      vertex 15 -4 3.33067e-015
    endloop
  endfacet
  facet normal 1.77321e-016 -1 -2.71051e-020
    outer loop
      vertex 9.67394 -4 -2.80902
      vertex 8.75 -4 1.94289e-015
      vertex 8.75 -4 -10
    endloop
  endfacet
  facet normal 1.77321e-016 -1 -2.71051e-020
    outer loop
      vertex 15 -4 -10
      vertex 15 -4 3.33067e-015
      vertex 8.75 -4 -10
    endloop
  endfacet
  facet normal 1.77321e-016 -1 -2.71051e-020
    outer loop
      vertex 15 -4 3.33067e-015
      vertex 8.75 -4 1.94289e-015
      vertex 10.0372 -4 -1.69098
    endloop
  endfacet
  facet normal 1.77321e-016 -1 -2.71051e-020
    outer loop
      vertex 10.0372 -4 -3.30902
      vertex 9.67394 -4 -2.80902
      vertex 9.67394 -4 -4.69098
    endloop
  endfacet
  facet normal 1.77321e-016 -1 -2.71051e-020
    outer loop
      vertex 15 -4 3.33067e-015
      vertex 10.0372 -4 -1.69098
      vertex 10.625 -4 -1.5
    endloop
  endfacet
  facet normal 1.77321e-016 -1 -2.71051e-020
    outer loop
      vertex 15 -4 3.33067e-015
      vertex 10.625 -4 -1.5
      vertex 11.2128 -4 -1.69098
    endloop
  endfacet
  facet normal 1.77321e-016 -1 -2.71051e-020
    outer loop
      vertex 15 -4 3.33067e-015
      vertex 11.2128 -4 -1.69098
      vertex 11.5761 -4 -2.19098
    endloop
  endfacet
  facet normal 1.77321e-016 -1 -2.71051e-020
    outer loop
      vertex 15 -4 3.33067e-015
      vertex 11.5761 -4 -2.19098
      vertex 11.5761 -4 -2.80902
    endloop
  endfacet
  facet normal 1.77321e-016 -1 -2.71051e-020
    outer loop
      vertex 11.2128 -4 -5.80902
      vertex 10.625 -4 -6
      vertex 8.75 -4 -10
    endloop
  endfacet
  facet normal 1.77321e-016 -1 -2.71051e-020
    outer loop
      vertex 9.67394 -4 -5.30902
      vertex 9.67394 -4 -4.69098
      vertex 8.75 -4 -10
    endloop
  endfacet
  facet normal 1.77321e-016 -1 -2.71051e-020
    outer loop
      vertex 9.67394 -4 -2.19098
      vertex 8.75 -4 1.94289e-015
      vertex 9.67394 -4 -2.80902
    endloop
  endfacet
  facet normal 1.77321e-016 -1 -2.71051e-020
    outer loop
      vertex 10.0372 -4 -1.69098
      vertex 8.75 -4 1.94289e-015
      vertex 9.67394 -4 -2.19098
    endloop
  endfacet
  facet normal 1.77321e-016 -1 -2.71051e-020
    outer loop
      vertex 10.625 -4 -4
      vertex 11.2128 -4 -4.19098
      vertex 11.2128 -4 -3.30902
    endloop
  endfacet
  facet normal 1.77321e-016 -1 -2.71051e-020
    outer loop
      vertex 10.625 -4 -3.5
      vertex 10.0372 -4 -3.30902
      vertex 10.0372 -4 -4.19098
    endloop
  endfacet
  facet normal 1.77321e-016 -1 -2.71051e-020
    outer loop
      vertex 15 -4 3.33067e-015
      vertex 11.5761 -4 -2.80902
      vertex 11.2128 -4 -4.19098
    endloop
  endfacet
  facet normal 1.77321e-016 -1 -2.71051e-020
    outer loop
      vertex 15 -4 3.33067e-015
      vertex 11.2128 -4 -4.19098
      vertex 11.5761 -4 -4.69098
    endloop
  endfacet
  facet normal 1.77321e-016 -1 -2.71051e-020
    outer loop
      vertex 15 -4 3.33067e-015
      vertex 11.5761 -4 -5.30902
      vertex 8.75 -4 -10
    endloop
  endfacet
  facet normal 1.77321e-016 -1 -2.71051e-020
    outer loop
      vertex 15 -4 3.33067e-015
      vertex 11.5761 -4 -4.69098
      vertex 11.5761 -4 -5.30902
    endloop
  endfacet
  facet normal 1.77321e-016 -1 -2.71051e-020
    outer loop
      vertex 11.5761 -4 -5.30902
      vertex 11.2128 -4 -5.80902
      vertex 8.75 -4 -10
    endloop
  endfacet
  facet normal 1.77321e-016 -1 -2.71051e-020
    outer loop
      vertex 9.67394 -4 -4.69098
      vertex 9.67394 -4 -2.80902
      vertex 8.75 -4 -10
    endloop
  endfacet
  facet normal 1.77321e-016 -1 -2.71051e-020
    outer loop
      vertex 10.0372 -4 -4.19098
      vertex 10.625 -4 -4
      vertex 10.625 -4 -3.5
    endloop
  endfacet
  facet normal 1.77321e-016 -1 -2.71051e-020
    outer loop
      vertex 9.67394 -4 -4.69098
      vertex 10.0372 -4 -4.19098
      vertex 10.0372 -4 -3.30902
    endloop
  endfacet
  facet normal 1.77321e-016 -1 -2.71051e-020
    outer loop
      vertex 10.625 -4 -6
      vertex 10.0372 -4 -5.80902
      vertex 8.75 -4 -10
    endloop
  endfacet
  facet normal 1.77321e-016 -1 -2.71051e-020
    outer loop
      vertex 11.2128 -4 -3.30902
      vertex 11.2128 -4 -4.19098
      vertex 11.5761 -4 -2.80902
    endloop
  endfacet
  facet normal 1.77321e-016 -1 -2.71051e-020
    outer loop
      vertex 10.0372 -4 -5.80902
      vertex 9.67394 -4 -5.30902
      vertex 8.75 -4 -10
    endloop
  endfacet
  facet normal 1.77321e-016 -1 -2.71051e-020
    outer loop
      vertex 11.2128 -4 -3.30902
      vertex 10.625 -4 -3.5
      vertex 10.625 -4 -4
    endloop
  endfacet
  facet normal 2.22045e-016 3.48654e-032 -1
    outer loop
      vertex 8.75 -2 -10
      vertex 15 -2 -10
      vertex 8.75 -4 -10
    endloop
  endfacet
  facet normal 2.22045e-016 3.48654e-032 -1
    outer loop
      vertex 8.75 -4 -10
      vertex 15 -2 -10
      vertex 15 -4 -10
    endloop
  endfacet
  facet normal -0.295242 -0.295242 0.908661
    outer loop
      vertex 10.625 -4.58778 -1.69098
      vertex 10.625 -4 -1.5
      vertex 10.0372 -4 -1.69098
    endloop
  endfacet
  facet normal -0.295243 -0.295243 0.90866
    outer loop
      vertex 10.625 -4.58778 -1.69098
      vertex 10.0372 -4 -1.69098
      vertex 10.1495 -4.58778 -1.84549
    endloop
  endfacet
  facet normal -0.772952 -0.295242 0.561584
    outer loop
      vertex 10.1495 -4.58778 -1.84549
      vertex 10.0372 -4 -1.69098
      vertex 9.67394 -4 -2.19098
    endloop
  endfacet
  facet normal -0.772952 -0.295242 0.561584
    outer loop
      vertex 9.85558 -4.58778 -2.25
      vertex 10.1495 -4.58778 -1.84549
      vertex 9.67394 -4 -2.19098
    endloop
  endfacet
  facet normal -0.955422 -0.295242 -1.88795e-016
    outer loop
      vertex 9.67394 -4 -2.19098
      vertex 9.67394 -4 -2.80902
      vertex 9.85558 -4.58778 -2.25
    endloop
  endfacet
  facet normal -0.955422 -0.295242 -1.88795e-016
    outer loop
      vertex 9.85558 -4.58778 -2.25
      vertex 9.67394 -4 -2.80902
      vertex 9.85558 -4.58778 -2.75
    endloop
  endfacet
  facet normal -0.772952 -0.295242 -0.561584
    outer loop
      vertex 10.0372 -4 -3.30902
      vertex 9.85558 -4.58778 -2.75
      vertex 9.67394 -4 -2.80902
    endloop
  endfacet
  facet normal -0.772952 -0.295242 -0.561584
    outer loop
      vertex 10.1495 -4.58778 -3.15451
      vertex 9.85558 -4.58778 -2.75
      vertex 10.0372 -4 -3.30902
    endloop
  endfacet
  facet normal -0.295242 -0.295243 -0.908661
    outer loop
      vertex 10.625 -4 -3.5
      vertex 10.1495 -4.58778 -3.15451
      vertex 10.0372 -4 -3.30902
    endloop
  endfacet
  facet normal -0.295243 -0.295242 -0.908661
    outer loop
      vertex 10.625 -4.58778 -3.30902
      vertex 10.1495 -4.58778 -3.15451
      vertex 10.625 -4 -3.5
    endloop
  endfacet
  facet normal 0.295242 -0.295242 -0.908661
    outer loop
      vertex 11.2128 -4 -3.30902
      vertex 10.625 -4.58778 -3.30902
      vertex 10.625 -4 -3.5
    endloop
  endfacet
  facet normal 0.772952 -0.295242 -0.561584
    outer loop
      vertex 11.2128 -4 -3.30902
      vertex 11.5761 -4 -2.80902
      vertex 11.1005 -4.58778 -3.15451
    endloop
  endfacet
  facet normal 0.295243 -0.295243 -0.90866
    outer loop
      vertex 11.2128 -4 -3.30902
      vertex 11.1005 -4.58778 -3.15451
      vertex 10.625 -4.58778 -3.30902
    endloop
  endfacet
  facet normal 0.955422 -0.295242 1.88779e-016
    outer loop
      vertex 11.5761 -4 -2.80902
      vertex 11.5761 -4 -2.19098
      vertex 11.3944 -4.58778 -2.25
    endloop
  endfacet
  facet normal 0.955422 -0.295242 1.88779e-016
    outer loop
      vertex 11.3944 -4.58778 -2.75
      vertex 11.5761 -4 -2.80902
      vertex 11.3944 -4.58778 -2.25
    endloop
  endfacet
  facet normal 0.772952 -0.295242 -0.561584
    outer loop
      vertex 11.5761 -4 -2.80902
      vertex 11.3944 -4.58778 -2.75
      vertex 11.1005 -4.58778 -3.15451
    endloop
  endfacet
  facet normal 0.772952 -0.295242 0.561584
    outer loop
      vertex 11.5761 -4 -2.19098
      vertex 11.2128 -4 -1.69098
      vertex 11.3944 -4.58778 -2.25
    endloop
  endfacet
  facet normal 0.295242 -0.295243 0.908661
    outer loop
      vertex 11.2128 -4 -1.69098
      vertex 10.625 -4 -1.5
      vertex 11.1005 -4.58778 -1.84549
    endloop
  endfacet
  facet normal 0.772952 -0.295242 0.561584
    outer loop
      vertex 11.3944 -4.58778 -2.25
      vertex 11.2128 -4 -1.69098
      vertex 11.1005 -4.58778 -1.84549
    endloop
  endfacet
  facet normal 0.295243 -0.295242 0.908661
    outer loop
      vertex 11.1005 -4.58778 -1.84549
      vertex 10.625 -4 -1.5
      vertex 10.625 -4.58778 -1.69098
    endloop
  endfacet
  facet normal -0.295242 -0.295242 0.908661
    outer loop
      vertex 10.625 -4.58778 -4.19098
      vertex 10.625 -4 -4
      vertex 10.0372 -4 -4.19098
    endloop
  endfacet
  facet normal -0.295243 -0.295243 0.90866
    outer loop
      vertex 10.625 -4.58778 -4.19098
      vertex 10.0372 -4 -4.19098
      vertex 10.1495 -4.58778 -4.34549
    endloop
  endfacet
  facet normal -0.772952 -0.295242 0.561584
    outer loop
      vertex 10.1495 -4.58778 -4.34549
      vertex 10.0372 -4 -4.19098
      vertex 9.67394 -4 -4.69098
    endloop
  endfacet
  facet normal -0.772952 -0.295242 0.561584
    outer loop
      vertex 9.85558 -4.58778 -4.75
      vertex 10.1495 -4.58778 -4.34549
      vertex 9.67394 -4 -4.69098
    endloop
  endfacet
  facet normal -0.955422 -0.295242 -1.88795e-016
    outer loop
      vertex 9.67394 -4 -4.69098
      vertex 9.67394 -4 -5.30902
      vertex 9.85558 -4.58778 -4.75
    endloop
  endfacet
  facet normal -0.955422 -0.295242 -1.88795e-016
    outer loop
      vertex 9.85558 -4.58778 -4.75
      vertex 9.67394 -4 -5.30902
      vertex 9.85558 -4.58778 -5.25
    endloop
  endfacet
  facet normal -0.772952 -0.295242 -0.561584
    outer loop
      vertex 10.0372 -4 -5.80902
      vertex 9.85558 -4.58778 -5.25
      vertex 9.67394 -4 -5.30902
    endloop
  endfacet
  facet normal -0.772952 -0.295242 -0.561584
    outer loop
      vertex 10.1495 -4.58778 -5.65451
      vertex 9.85558 -4.58778 -5.25
      vertex 10.0372 -4 -5.80902
    endloop
  endfacet
  facet normal -0.295242 -0.295243 -0.908661
    outer loop
      vertex 10.625 -4 -6
      vertex 10.1495 -4.58778 -5.65451
      vertex 10.0372 -4 -5.80902
    endloop
  endfacet
  facet normal -0.295243 -0.295242 -0.908661
    outer loop
      vertex 10.625 -4.58778 -5.80902
      vertex 10.1495 -4.58778 -5.65451
      vertex 10.625 -4 -6
    endloop
  endfacet
  facet normal 0.295242 -0.295242 -0.908661
    outer loop
      vertex 11.2128 -4 -5.80902
      vertex 10.625 -4.58778 -5.80902
      vertex 10.625 -4 -6
    endloop
  endfacet
  facet normal 0.772952 -0.295242 -0.561584
    outer loop
      vertex 11.2128 -4 -5.80902
      vertex 11.5761 -4 -5.30902
      vertex 11.1005 -4.58778 -5.65451
    endloop
  endfacet
  facet normal 0.295243 -0.295243 -0.90866
    outer loop
      vertex 11.2128 -4 -5.80902
      vertex 11.1005 -4.58778 -5.65451
      vertex 10.625 -4.58778 -5.80902
    endloop
  endfacet
  facet normal 0.955422 -0.295242 1.88779e-016
    outer loop
      vertex 11.5761 -4 -5.30902
      vertex 11.5761 -4 -4.69098
      vertex 11.3944 -4.58778 -4.75
    endloop
  endfacet
  facet normal 0.955422 -0.295242 1.88779e-016
    outer loop
      vertex 11.3944 -4.58778 -5.25
      vertex 11.5761 -4 -5.30902
      vertex 11.3944 -4.58778 -4.75
    endloop
  endfacet
  facet normal 0.772952 -0.295242 -0.561584
    outer loop
      vertex 11.5761 -4 -5.30902
      vertex 11.3944 -4.58778 -5.25
      vertex 11.1005 -4.58778 -5.65451
    endloop
  endfacet
  facet normal 0.772952 -0.295242 0.561584
    outer loop
      vertex 11.5761 -4 -4.69098
      vertex 11.2128 -4 -4.19098
      vertex 11.3944 -4.58778 -4.75
    endloop
  endfacet
  facet normal 0.295242 -0.295243 0.908661
    outer loop
      vertex 11.2128 -4 -4.19098
      vertex 10.625 -4 -4
      vertex 11.1005 -4.58778 -4.34549
    endloop
  endfacet
  facet normal 0.772952 -0.295242 0.561584
    outer loop
      vertex 11.3944 -4.58778 -4.75
      vertex 11.2128 -4 -4.19098
      vertex 11.1005 -4.58778 -4.34549
    endloop
  endfacet
  facet normal 0.295243 -0.295242 0.908661
    outer loop
      vertex 11.1005 -4.58778 -4.34549
      vertex 10.625 -4 -4
      vertex 10.625 -4.58778 -4.19098
    endloop
  endfacet
  facet normal 0.187593 -0.794654 0.577351
    outer loop
      vertex 11.1005 -4.58778 -1.84549
      vertex 10.625 -4.58778 -1.69098
      vertex 10.8066 -4.95106 -2.25
    endloop
  endfacet
  facet normal 0.187592 -0.794654 0.577351
    outer loop
      vertex 10.8066 -4.95106 -2.25
      vertex 10.625 -4.58778 -1.69098
      vertex 10.625 -4.95106 -2.19098
    endloop
  endfacet
  facet normal -0.187593 -0.794654 0.577351
    outer loop
      vertex 10.625 -4.95106 -2.19098
      vertex 10.625 -4.58778 -1.69098
      vertex 10.1495 -4.58778 -1.84549
    endloop
  endfacet
  facet normal -0.187593 -0.794653 0.577352
    outer loop
      vertex 10.625 -4.95106 -2.19098
      vertex 10.1495 -4.58778 -1.84549
      vertex 10.4434 -4.95106 -2.25
    endloop
  endfacet
  facet normal -0.491124 -0.794654 0.356823
    outer loop
      vertex 10.4434 -4.95106 -2.25
      vertex 10.1495 -4.58778 -1.84549
      vertex 9.85558 -4.58778 -2.25
    endloop
  endfacet
  facet normal -0.491124 -0.794653 0.356824
    outer loop
      vertex 10.4434 -4.95106 -2.25
      vertex 9.85558 -4.58778 -2.25
      vertex 10.3311 -4.95106 -2.40451
    endloop
  endfacet
  facet normal -0.607063 -0.794654 -1.19975e-016
    outer loop
      vertex 10.3311 -4.95106 -2.40451
      vertex 9.85558 -4.58778 -2.25
      vertex 9.85558 -4.58778 -2.75
    endloop
  endfacet
  facet normal -0.607063 -0.794654 -1.19975e-016
    outer loop
      vertex 10.3311 -4.95106 -2.59549
      vertex 10.3311 -4.95106 -2.40451
      vertex 9.85558 -4.58778 -2.75
    endloop
  endfacet
  facet normal -0.491124 -0.794653 -0.356823
    outer loop
      vertex 10.1495 -4.58778 -3.15451
      vertex 10.3311 -4.95106 -2.59549
      vertex 9.85558 -4.58778 -2.75
    endloop
  endfacet
  facet normal -0.491124 -0.794654 -0.356824
    outer loop
      vertex 10.4434 -4.95106 -2.75
      vertex 10.3311 -4.95106 -2.59549
      vertex 10.1495 -4.58778 -3.15451
    endloop
  endfacet
  facet normal -0.187593 -0.794654 -0.577351
    outer loop
      vertex 10.625 -4.58778 -3.30902
      vertex 10.4434 -4.95106 -2.75
      vertex 10.1495 -4.58778 -3.15451
    endloop
  endfacet
  facet normal -0.187592 -0.794654 -0.577351
    outer loop
      vertex 10.625 -4.95106 -2.80902
      vertex 10.4434 -4.95106 -2.75
      vertex 10.625 -4.58778 -3.30902
    endloop
  endfacet
  facet normal 0.187593 -0.794654 -0.577351
    outer loop
      vertex 11.1005 -4.58778 -3.15451
      vertex 10.625 -4.95106 -2.80902
      vertex 10.625 -4.58778 -3.30902
    endloop
  endfacet
  facet normal 0.187593 -0.794653 -0.577352
    outer loop
      vertex 11.1005 -4.58778 -3.15451
      vertex 10.8066 -4.95106 -2.75
      vertex 10.625 -4.95106 -2.80902
    endloop
  endfacet
  facet normal 0.491124 -0.794654 -0.356823
    outer loop
      vertex 11.3944 -4.58778 -2.75
      vertex 10.8066 -4.95106 -2.75
      vertex 11.1005 -4.58778 -3.15451
    endloop
  endfacet
  facet normal 0.491124 -0.794653 -0.356824
    outer loop
      vertex 11.3944 -4.58778 -2.75
      vertex 10.9189 -4.95106 -2.59549
      vertex 10.8066 -4.95106 -2.75
    endloop
  endfacet
  facet normal 0.607063 -0.794654 1.19932e-016
    outer loop
      vertex 11.3944 -4.58778 -2.75
      vertex 11.3944 -4.58778 -2.25
      vertex 10.9189 -4.95106 -2.40451
    endloop
  endfacet
  facet normal 0.607063 -0.794654 1.19932e-016
    outer loop
      vertex 10.9189 -4.95106 -2.59549
      vertex 11.3944 -4.58778 -2.75
      vertex 10.9189 -4.95106 -2.40451
    endloop
  endfacet
  facet normal 0.491124 -0.794653 0.356823
    outer loop
      vertex 11.3944 -4.58778 -2.25
      vertex 11.1005 -4.58778 -1.84549
      vertex 10.9189 -4.95106 -2.40451
    endloop
  endfacet
  facet normal 0.491124 -0.794654 0.356824
    outer loop
      vertex 10.9189 -4.95106 -2.40451
      vertex 11.1005 -4.58778 -1.84549
      vertex 10.8066 -4.95106 -2.25
    endloop
  endfacet
  facet normal 0.187593 -0.794654 0.577351
    outer loop
      vertex 11.1005 -4.58778 -4.34549
      vertex 10.625 -4.58778 -4.19098
      vertex 10.8066 -4.95106 -4.75
    endloop
  endfacet
  facet normal 0.187592 -0.794654 0.577351
    outer loop
      vertex 10.8066 -4.95106 -4.75
      vertex 10.625 -4.58778 -4.19098
      vertex 10.625 -4.95106 -4.69098
    endloop
  endfacet
  facet normal -0.187593 -0.794654 0.577351
    outer loop
      vertex 10.625 -4.95106 -4.69098
      vertex 10.625 -4.58778 -4.19098
      vertex 10.1495 -4.58778 -4.34549
    endloop
  endfacet
  facet normal -0.187593 -0.794653 0.577352
    outer loop
      vertex 10.625 -4.95106 -4.69098
      vertex 10.1495 -4.58778 -4.34549
      vertex 10.4434 -4.95106 -4.75
    endloop
  endfacet
  facet normal -0.491124 -0.794654 0.356823
    outer loop
      vertex 10.4434 -4.95106 -4.75
      vertex 10.1495 -4.58778 -4.34549
      vertex 9.85558 -4.58778 -4.75
    endloop
  endfacet
  facet normal -0.491124 -0.794653 0.356824
    outer loop
      vertex 10.4434 -4.95106 -4.75
      vertex 9.85558 -4.58778 -4.75
      vertex 10.3311 -4.95106 -4.90451
    endloop
  endfacet
  facet normal -0.607063 -0.794654 -1.19975e-016
    outer loop
      vertex 10.3311 -4.95106 -4.90451
      vertex 9.85558 -4.58778 -4.75
      vertex 9.85558 -4.58778 -5.25
    endloop
  endfacet
  facet normal -0.607063 -0.794654 -1.19975e-016
    outer loop
      vertex 10.3311 -4.95106 -5.09549
      vertex 10.3311 -4.95106 -4.90451
      vertex 9.85558 -4.58778 -5.25
    endloop
  endfacet
  facet normal -0.491124 -0.794653 -0.356823
    outer loop
      vertex 10.1495 -4.58778 -5.65451
      vertex 10.3311 -4.95106 -5.09549
      vertex 9.85558 -4.58778 -5.25
    endloop
  endfacet
  facet normal -0.491124 -0.794654 -0.356824
    outer loop
      vertex 10.4434 -4.95106 -5.25
      vertex 10.3311 -4.95106 -5.09549
      vertex 10.1495 -4.58778 -5.65451
    endloop
  endfacet
  facet normal -0.187593 -0.794654 -0.577351
    outer loop
      vertex 10.625 -4.58778 -5.80902
      vertex 10.4434 -4.95106 -5.25
      vertex 10.1495 -4.58778 -5.65451
    endloop
  endfacet
  facet normal -0.187592 -0.794654 -0.577351
    outer loop
      vertex 10.625 -4.95106 -5.30902
      vertex 10.4434 -4.95106 -5.25
      vertex 10.625 -4.58778 -5.80902
    endloop
  endfacet
  facet normal 0.187593 -0.794654 -0.577351
    outer loop
      vertex 11.1005 -4.58778 -5.65451
      vertex 10.625 -4.95106 -5.30902
      vertex 10.625 -4.58778 -5.80902
    endloop
  endfacet
  facet normal 0.187593 -0.794653 -0.577352
    outer loop
      vertex 11.1005 -4.58778 -5.65451
      vertex 10.8066 -4.95106 -5.25
      vertex 10.625 -4.95106 -5.30902
    endloop
  endfacet
  facet normal 0.491124 -0.794654 -0.356823
    outer loop
      vertex 11.3944 -4.58778 -5.25
      vertex 10.8066 -4.95106 -5.25
      vertex 11.1005 -4.58778 -5.65451
    endloop
  endfacet
  facet normal 0.491124 -0.794653 -0.356824
    outer loop
      vertex 11.3944 -4.58778 -5.25
      vertex 10.9189 -4.95106 -5.09549
      vertex 10.8066 -4.95106 -5.25
    endloop
  endfacet
  facet normal 0.607063 -0.794654 1.19932e-016
    outer loop
      vertex 11.3944 -4.58778 -5.25
      vertex 11.3944 -4.58778 -4.75
      vertex 10.9189 -4.95106 -4.90451
    endloop
  endfacet
  facet normal 0.607063 -0.794654 1.19932e-016
    outer loop
      vertex 10.9189 -4.95106 -5.09549
      vertex 11.3944 -4.58778 -5.25
      vertex 10.9189 -4.95106 -4.90451
    endloop
  endfacet
  facet normal 0.491124 -0.794653 0.356823
    outer loop
      vertex 11.3944 -4.58778 -4.75
      vertex 11.1005 -4.58778 -4.34549
      vertex 10.9189 -4.95106 -4.90451
    endloop
  endfacet
  facet normal 0.491124 -0.794654 0.356824
    outer loop
      vertex 10.9189 -4.95106 -4.90451
      vertex 11.1005 -4.58778 -4.34549
      vertex 10.8066 -4.95106 -4.75
    endloop
  endfacet
  facet normal 1.77321e-016 -1 -2.71051e-020
    outer loop
      vertex 10.8066 -4.95106 -2.25
      vertex 10.625 -4.95106 -2.19098
      vertex 10.4434 -4.95106 -2.25
    endloop
  endfacet
  facet normal 1.77321e-016 -1 -2.71051e-020
    outer loop
      vertex 10.3311 -4.95106 -2.59549
      vertex 10.8066 -4.95106 -2.25
      vertex 10.3311 -4.95106 -2.40451
    endloop
  endfacet
  facet normal 1.77321e-016 -1 -2.71051e-020
    outer loop
      vertex 10.3311 -4.95106 -2.40451
      vertex 10.8066 -4.95106 -2.25
      vertex 10.4434 -4.95106 -2.25
    endloop
  endfacet
  facet normal 1.77321e-016 -1 -2.71051e-020
    outer loop
      vertex 10.4434 -4.95106 -2.75
      vertex 10.8066 -4.95106 -2.25
      vertex 10.3311 -4.95106 -2.59549
    endloop
  endfacet
  facet normal 1.77321e-016 -1 -2.71051e-020
    outer loop
      vertex 10.625 -4.95106 -2.80902
      vertex 10.8066 -4.95106 -2.25
      vertex 10.4434 -4.95106 -2.75
    endloop
  endfacet
  facet normal 1.77321e-016 -1 -2.71051e-020
    outer loop
      vertex 10.8066 -4.95106 -2.75
      vertex 10.8066 -4.95106 -2.25
      vertex 10.625 -4.95106 -2.80902
    endloop
  endfacet
  facet normal 1.77321e-016 -1 -2.71051e-020
    outer loop
      vertex 10.9189 -4.95106 -2.59549
      vertex 10.8066 -4.95106 -2.25
      vertex 10.8066 -4.95106 -2.75
    endloop
  endfacet
  facet normal 1.77321e-016 -1 -2.71051e-020
    outer loop
      vertex 10.9189 -4.95106 -2.40451
      vertex 10.8066 -4.95106 -2.25
      vertex 10.9189 -4.95106 -2.59549
    endloop
  endfacet
  facet normal 1.77321e-016 -1 -2.71051e-020
    outer loop
      vertex 10.8066 -4.95106 -4.75
      vertex 10.625 -4.95106 -4.69098
      vertex 10.4434 -4.95106 -4.75
    endloop
  endfacet
  facet normal 1.77321e-016 -1 -2.71051e-020
    outer loop
      vertex 10.3311 -4.95106 -5.09549
      vertex 10.8066 -4.95106 -4.75
      vertex 10.3311 -4.95106 -4.90451
    endloop
  endfacet
  facet normal 1.77321e-016 -1 -2.71051e-020
    outer loop
      vertex 10.3311 -4.95106 -4.90451
      vertex 10.8066 -4.95106 -4.75
      vertex 10.4434 -4.95106 -4.75
    endloop
  endfacet
  facet normal 1.77321e-016 -1 -2.71051e-020
    outer loop
      vertex 10.4434 -4.95106 -5.25
      vertex 10.8066 -4.95106 -4.75
      vertex 10.3311 -4.95106 -5.09549
    endloop
  endfacet
  facet normal 1.77321e-016 -1 -2.71051e-020
    outer loop
      vertex 10.625 -4.95106 -5.30902
      vertex 10.8066 -4.95106 -4.75
      vertex 10.4434 -4.95106 -5.25
    endloop
  endfacet
  facet normal 1.77321e-016 -1 -2.71051e-020
    outer loop
      vertex 10.8066 -4.95106 -5.25
      vertex 10.8066 -4.95106 -4.75
      vertex 10.625 -4.95106 -5.30902
    endloop
  endfacet
  facet normal 1.77321e-016 -1 -2.71051e-020
    outer loop
      vertex 10.9189 -4.95106 -5.09549
      vertex 10.8066 -4.95106 -4.75
      vertex 10.8066 -4.95106 -5.25
    endloop
  endfacet
  facet normal 1.77321e-016 -1 -2.71051e-020
    outer loop
      vertex 10.9189 -4.95106 -4.90451
      vertex 10.8066 -4.95106 -4.75
      vertex 10.9189 -4.95106 -5.09549
    endloop
  endfacet
  facet normal -2.22045e-016 -3.48654e-032 1
    outer loop
      vertex 23.75 -2 5.27356e-015
      vertex 17.5 -2 3.88578e-015
      vertex 17.5 -4 3.88578e-015
    endloop
  endfacet
  facet normal -2.22045e-016 -3.48654e-032 1
    outer loop
      vertex 23.75 -4 5.27356e-015
      vertex 23.75 -2 5.27356e-015
      vertex 17.5 -4 3.88578e-015
    endloop
  endfacet
  facet normal -1 -1.5702e-016 -1.97596e-016
    outer loop
      vertex 17.5 -2 3.88578e-015
      vertex 17.5 -2 -10
      vertex 17.5 -4 3.88578e-015
    endloop
  endfacet
  facet normal -1 -1.5702e-016 -1.97596e-016
    outer loop
      vertex 17.5 -4 3.88578e-015
      vertex 17.5 -2 -10
      vertex 17.5 -4 -10
    endloop
  endfacet
  facet normal -1.77321e-016 1 2.71051e-020
    outer loop
      vertex 17.5 -2 3.88578e-015
      vertex 23.75 -2 5.27356e-015
      vertex 17.5 -2 -10
    endloop
  endfacet
  facet normal -1.77321e-016 1 2.71051e-020
    outer loop
      vertex 17.5 -2 -10
      vertex 23.75 -2 5.27356e-015
      vertex 23.75 -2 -10
    endloop
  endfacet
  facet normal 1 1.5702e-016 1.97596e-016
    outer loop
      vertex 23.75 -2 -10
      vertex 23.75 -2 5.27356e-015
      vertex 23.75 -4 5.27356e-015
    endloop
  endfacet
  facet normal 1 1.5702e-016 1.97596e-016
    outer loop
      vertex 23.75 -4 -10
      vertex 23.75 -2 -10
      vertex 23.75 -4 5.27356e-015
    endloop
  endfacet
  facet normal 1.77321e-016 -1 -2.71051e-020
    outer loop
      vertex 18.4239 -4 -2.80902
      vertex 17.5 -4 3.88578e-015
      vertex 17.5 -4 -10
    endloop
  endfacet
  facet normal 1.77321e-016 -1 -2.71051e-020
    outer loop
      vertex 21.875 -4 -1.5
      vertex 22.4628 -4 -1.69098
      vertex 23.75 -4 5.27356e-015
    endloop
  endfacet
  facet normal 1.77321e-016 -1 -2.71051e-020
    outer loop
      vertex 23.75 -4 5.27356e-015
      vertex 17.5 -4 3.88578e-015
      vertex 18.7872 -4 -1.69098
    endloop
  endfacet
  facet normal 1.77321e-016 -1 -2.71051e-020
    outer loop
      vertex 18.7872 -4 -3.30902
      vertex 18.4239 -4 -2.80902
      vertex 17.5 -4 -10
    endloop
  endfacet
  facet normal 1.77321e-016 -1 -2.71051e-020
    outer loop
      vertex 23.75 -4 5.27356e-015
      vertex 18.7872 -4 -1.69098
      vertex 19.375 -4 -1.5
    endloop
  endfacet
  facet normal 1.77321e-016 -1 -2.71051e-020
    outer loop
      vertex 19.375 -4 -3.5
      vertex 18.7872 -4 -3.30902
      vertex 17.5 -4 -10
    endloop
  endfacet
  facet normal 1.77321e-016 -1 -2.71051e-020
    outer loop
      vertex 23.75 -4 5.27356e-015
      vertex 19.375 -4 -1.5
      vertex 19.9628 -4 -1.69098
    endloop
  endfacet
  facet normal 1.77321e-016 -1 -2.71051e-020
    outer loop
      vertex 22.4628 -4 -1.69098
      vertex 22.8261 -4 -2.19098
      vertex 23.75 -4 5.27356e-015
    endloop
  endfacet
  facet normal 1.77321e-016 -1 -2.71051e-020
    outer loop
      vertex 23.75 -4 5.27356e-015
      vertex 19.9628 -4 -1.69098
      vertex 20.3261 -4 -2.19098
    endloop
  endfacet
  facet normal 1.77321e-016 -1 -2.71051e-020
    outer loop
      vertex 21.2872 -4 -3.30902
      vertex 20.3261 -4 -2.80902
      vertex 17.5 -4 -10
    endloop
  endfacet
  facet normal 1.77321e-016 -1 -2.71051e-020
    outer loop
      vertex 21.2872 -4 -1.69098
      vertex 20.3261 -4 -2.19098
      vertex 20.3261 -4 -2.80902
    endloop
  endfacet
  facet normal 1.77321e-016 -1 -2.71051e-020
    outer loop
      vertex 20.3261 -4 -2.80902
      vertex 19.9628 -4 -3.30902
      vertex 17.5 -4 -10
    endloop
  endfacet
  facet normal 1.77321e-016 -1 -2.71051e-020
    outer loop
      vertex 18.4239 -4 -2.19098
      vertex 17.5 -4 3.88578e-015
      vertex 18.4239 -4 -2.80902
    endloop
  endfacet
  facet normal 1.77321e-016 -1 -2.71051e-020
    outer loop
      vertex 18.7872 -4 -1.69098
      vertex 17.5 -4 3.88578e-015
      vertex 18.4239 -4 -2.19098
    endloop
  endfacet
  facet normal 1.77321e-016 -1 -2.71051e-020
    outer loop
      vertex 20.9239 -4 -2.19098
      vertex 21.2872 -4 -1.69098
      vertex 20.3261 -4 -2.80902
    endloop
  endfacet
  facet normal 1.77321e-016 -1 -2.71051e-020
    outer loop
      vertex 23.75 -4 5.27356e-015
      vertex 20.3261 -4 -2.19098
      vertex 21.2872 -4 -1.69098
    endloop
  endfacet
  facet normal 1.77321e-016 -1 -2.71051e-020
    outer loop
      vertex 23.75 -4 5.27356e-015
      vertex 21.2872 -4 -1.69098
      vertex 21.875 -4 -1.5
    endloop
  endfacet
  facet normal 1.77321e-016 -1 -2.71051e-020
    outer loop
      vertex 22.4628 -4 -3.30902
      vertex 21.875 -4 -3.5
      vertex 17.5 -4 -10
    endloop
  endfacet
  facet normal 1.77321e-016 -1 -2.71051e-020
    outer loop
      vertex 21.875 -4 -3.5
      vertex 21.2872 -4 -3.30902
      vertex 17.5 -4 -10
    endloop
  endfacet
  facet normal 1.77321e-016 -1 -2.71051e-020
    outer loop
      vertex 23.75 -4 -10
      vertex 23.75 -4 5.27356e-015
      vertex 22.8261 -4 -2.19098
    endloop
  endfacet
  facet normal 1.77321e-016 -1 -2.71051e-020
    outer loop
      vertex 20.9239 -4 -2.80902
      vertex 20.9239 -4 -2.19098
      vertex 20.3261 -4 -2.80902
    endloop
  endfacet
  facet normal 1.77321e-016 -1 -2.71051e-020
    outer loop
      vertex 23.75 -4 -10
      vertex 22.8261 -4 -2.19098
      vertex 22.8261 -4 -2.80902
    endloop
  endfacet
  facet normal 1.77321e-016 -1 -2.71051e-020
    outer loop
      vertex 23.75 -4 -10
      vertex 22.4628 -4 -3.30902
      vertex 17.5 -4 -10
    endloop
  endfacet
  facet normal 1.77321e-016 -1 -2.71051e-020
    outer loop
      vertex 23.75 -4 -10
      vertex 22.8261 -4 -2.80902
      vertex 22.4628 -4 -3.30902
    endloop
  endfacet
  facet normal 1.77321e-016 -1 -2.71051e-020
    outer loop
      vertex 20.9239 -4 -2.80902
      vertex 20.3261 -4 -2.80902
      vertex 21.2872 -4 -3.30902
    endloop
  endfacet
  facet normal 1.77321e-016 -1 -2.71051e-020
    outer loop
      vertex 19.9628 -4 -3.30902
      vertex 19.375 -4 -3.5
      vertex 17.5 -4 -10
    endloop
  endfacet
  facet normal 2.22045e-016 3.48654e-032 -1
    outer loop
      vertex 17.5 -2 -10
      vertex 23.75 -2 -10
      vertex 17.5 -4 -10
    endloop
  endfacet
  facet normal 2.22045e-016 3.48654e-032 -1
    outer loop
      vertex 17.5 -4 -10
      vertex 23.75 -2 -10
      vertex 23.75 -4 -10
    endloop
  endfacet
  facet normal -0.295242 -0.295242 0.908661
    outer loop
      vertex 19.375 -4.58778 -1.69098
      vertex 19.375 -4 -1.5
      vertex 18.7872 -4 -1.69098
    endloop
  endfacet
  facet normal -0.295243 -0.295243 0.90866
    outer loop
      vertex 19.375 -4.58778 -1.69098
      vertex 18.7872 -4 -1.69098
      vertex 18.8995 -4.58778 -1.84549
    endloop
  endfacet
  facet normal -0.772952 -0.295242 0.561584
    outer loop
      vertex 18.8995 -4.58778 -1.84549
      vertex 18.7872 -4 -1.69098
      vertex 18.4239 -4 -2.19098
    endloop
  endfacet
  facet normal -0.772952 -0.295242 0.561584
    outer loop
      vertex 18.6056 -4.58778 -2.25
      vertex 18.8995 -4.58778 -1.84549
      vertex 18.4239 -4 -2.19098
    endloop
  endfacet
  facet normal -0.955422 -0.295242 -1.88795e-016
    outer loop
      vertex 18.4239 -4 -2.19098
      vertex 18.4239 -4 -2.80902
      vertex 18.6056 -4.58778 -2.25
    endloop
  endfacet
  facet normal -0.955422 -0.295242 -1.88795e-016
    outer loop
      vertex 18.6056 -4.58778 -2.25
      vertex 18.4239 -4 -2.80902
      vertex 18.6056 -4.58778 -2.75
    endloop
  endfacet
  facet normal -0.772952 -0.295242 -0.561584
    outer loop
      vertex 18.7872 -4 -3.30902
      vertex 18.6056 -4.58778 -2.75
      vertex 18.4239 -4 -2.80902
    endloop
  endfacet
  facet normal -0.772952 -0.295242 -0.561584
    outer loop
      vertex 18.8995 -4.58778 -3.15451
      vertex 18.6056 -4.58778 -2.75
      vertex 18.7872 -4 -3.30902
    endloop
  endfacet
  facet normal -0.295242 -0.295243 -0.908661
    outer loop
      vertex 19.375 -4 -3.5
      vertex 18.8995 -4.58778 -3.15451
      vertex 18.7872 -4 -3.30902
    endloop
  endfacet
  facet normal -0.295243 -0.295242 -0.908661
    outer loop
      vertex 19.375 -4.58778 -3.30902
      vertex 18.8995 -4.58778 -3.15451
      vertex 19.375 -4 -3.5
    endloop
  endfacet
  facet normal 0.295242 -0.295242 -0.908661
    outer loop
      vertex 19.9628 -4 -3.30902
      vertex 19.375 -4.58778 -3.30902
      vertex 19.375 -4 -3.5
    endloop
  endfacet
  facet normal 0.772952 -0.295242 -0.561584
    outer loop
      vertex 19.9628 -4 -3.30902
      vertex 20.3261 -4 -2.80902
      vertex 19.8505 -4.58778 -3.15451
    endloop
  endfacet
  facet normal 0.295243 -0.295243 -0.90866
    outer loop
      vertex 19.9628 -4 -3.30902
      vertex 19.8505 -4.58778 -3.15451
      vertex 19.375 -4.58778 -3.30902
    endloop
  endfacet
  facet normal 0.955422 -0.295242 1.88779e-016
    outer loop
      vertex 20.3261 -4 -2.80902
      vertex 20.3261 -4 -2.19098
      vertex 20.1444 -4.58778 -2.25
    endloop
  endfacet
  facet normal 0.955422 -0.295242 1.88779e-016
    outer loop
      vertex 20.1444 -4.58778 -2.75
      vertex 20.3261 -4 -2.80902
      vertex 20.1444 -4.58778 -2.25
    endloop
  endfacet
  facet normal 0.772952 -0.295242 -0.561584
    outer loop
      vertex 20.3261 -4 -2.80902
      vertex 20.1444 -4.58778 -2.75
      vertex 19.8505 -4.58778 -3.15451
    endloop
  endfacet
  facet normal 0.772952 -0.295242 0.561584
    outer loop
      vertex 20.3261 -4 -2.19098
      vertex 19.9628 -4 -1.69098
      vertex 20.1444 -4.58778 -2.25
    endloop
  endfacet
  facet normal 0.295242 -0.295243 0.908661
    outer loop
      vertex 19.9628 -4 -1.69098
      vertex 19.375 -4 -1.5
      vertex 19.8505 -4.58778 -1.84549
    endloop
  endfacet
  facet normal 0.772952 -0.295242 0.561584
    outer loop
      vertex 20.1444 -4.58778 -2.25
      vertex 19.9628 -4 -1.69098
      vertex 19.8505 -4.58778 -1.84549
    endloop
  endfacet
  facet normal 0.295243 -0.295242 0.908661
    outer loop
      vertex 19.8505 -4.58778 -1.84549
      vertex 19.375 -4 -1.5
      vertex 19.375 -4.58778 -1.69098
    endloop
  endfacet
  facet normal -0.295242 -0.295242 0.908661
    outer loop
      vertex 21.875 -4.58778 -1.69098
      vertex 21.875 -4 -1.5
      vertex 21.2872 -4 -1.69098
    endloop
  endfacet
  facet normal -0.295243 -0.295243 0.90866
    outer loop
      vertex 21.875 -4.58778 -1.69098
      vertex 21.2872 -4 -1.69098
      vertex 21.3995 -4.58778 -1.84549
    endloop
  endfacet
  facet normal -0.772952 -0.295242 0.561584
    outer loop
      vertex 21.3995 -4.58778 -1.84549
      vertex 21.2872 -4 -1.69098
      vertex 20.9239 -4 -2.19098
    endloop
  endfacet
  facet normal -0.772952 -0.295242 0.561584
    outer loop
      vertex 21.1056 -4.58778 -2.25
      vertex 21.3995 -4.58778 -1.84549
      vertex 20.9239 -4 -2.19098
    endloop
  endfacet
  facet normal -0.955422 -0.295242 -1.88795e-016
    outer loop
      vertex 20.9239 -4 -2.19098
      vertex 20.9239 -4 -2.80902
      vertex 21.1056 -4.58778 -2.25
    endloop
  endfacet
  facet normal -0.955422 -0.295242 -1.88795e-016
    outer loop
      vertex 21.1056 -4.58778 -2.25
      vertex 20.9239 -4 -2.80902
      vertex 21.1056 -4.58778 -2.75
    endloop
  endfacet
  facet normal -0.772952 -0.295242 -0.561584
    outer loop
      vertex 21.2872 -4 -3.30902
      vertex 21.1056 -4.58778 -2.75
      vertex 20.9239 -4 -2.80902
    endloop
  endfacet
  facet normal -0.772952 -0.295242 -0.561584
    outer loop
      vertex 21.3995 -4.58778 -3.15451
      vertex 21.1056 -4.58778 -2.75
      vertex 21.2872 -4 -3.30902
    endloop
  endfacet
  facet normal -0.295242 -0.295243 -0.908661
    outer loop
      vertex 21.875 -4 -3.5
      vertex 21.3995 -4.58778 -3.15451
      vertex 21.2872 -4 -3.30902
    endloop
  endfacet
  facet normal -0.295243 -0.295242 -0.908661
    outer loop
      vertex 21.875 -4.58778 -3.30902
      vertex 21.3995 -4.58778 -3.15451
      vertex 21.875 -4 -3.5
    endloop
  endfacet
  facet normal 0.295242 -0.295242 -0.908661
    outer loop
      vertex 22.4628 -4 -3.30902
      vertex 21.875 -4.58778 -3.30902
      vertex 21.875 -4 -3.5
    endloop
  endfacet
  facet normal 0.772952 -0.295242 -0.561584
    outer loop
      vertex 22.4628 -4 -3.30902
      vertex 22.8261 -4 -2.80902
      vertex 22.3505 -4.58778 -3.15451
    endloop
  endfacet
  facet normal 0.295243 -0.295243 -0.90866
    outer loop
      vertex 22.4628 -4 -3.30902
      vertex 22.3505 -4.58778 -3.15451
      vertex 21.875 -4.58778 -3.30902
    endloop
  endfacet
  facet normal 0.955422 -0.295242 1.88779e-016
    outer loop
      vertex 22.8261 -4 -2.80902
      vertex 22.8261 -4 -2.19098
      vertex 22.6444 -4.58778 -2.25
    endloop
  endfacet
  facet normal 0.955422 -0.295242 1.88779e-016
    outer loop
      vertex 22.6444 -4.58778 -2.75
      vertex 22.8261 -4 -2.80902
      vertex 22.6444 -4.58778 -2.25
    endloop
  endfacet
  facet normal 0.772952 -0.295242 -0.561584
    outer loop
      vertex 22.8261 -4 -2.80902
      vertex 22.6444 -4.58778 -2.75
      vertex 22.3505 -4.58778 -3.15451
    endloop
  endfacet
  facet normal 0.772952 -0.295242 0.561584
    outer loop
      vertex 22.8261 -4 -2.19098
      vertex 22.4628 -4 -1.69098
      vertex 22.6444 -4.58778 -2.25
    endloop
  endfacet
  facet normal 0.295242 -0.295243 0.908661
    outer loop
      vertex 22.4628 -4 -1.69098
      vertex 21.875 -4 -1.5
      vertex 22.3505 -4.58778 -1.84549
    endloop
  endfacet
  facet normal 0.772952 -0.295242 0.561584
    outer loop
      vertex 22.6444 -4.58778 -2.25
      vertex 22.4628 -4 -1.69098
      vertex 22.3505 -4.58778 -1.84549
    endloop
  endfacet
  facet normal 0.295243 -0.295242 0.908661
    outer loop
      vertex 22.3505 -4.58778 -1.84549
      vertex 21.875 -4 -1.5
      vertex 21.875 -4.58778 -1.69098
    endloop
  endfacet
  facet normal 0.187593 -0.794654 0.577351
    outer loop
      vertex 19.8505 -4.58778 -1.84549
      vertex 19.375 -4.58778 -1.69098
      vertex 19.5566 -4.95106 -2.25
    endloop
  endfacet
  facet normal 0.187592 -0.794654 0.577351
    outer loop
      vertex 19.5566 -4.95106 -2.25
      vertex 19.375 -4.58778 -1.69098
      vertex 19.375 -4.95106 -2.19098
    endloop
  endfacet
  facet normal -0.187593 -0.794654 0.577351
    outer loop
      vertex 19.375 -4.95106 -2.19098
      vertex 19.375 -4.58778 -1.69098
      vertex 18.8995 -4.58778 -1.84549
    endloop
  endfacet
  facet normal -0.187593 -0.794653 0.577352
    outer loop
      vertex 19.375 -4.95106 -2.19098
      vertex 18.8995 -4.58778 -1.84549
      vertex 19.1934 -4.95106 -2.25
    endloop
  endfacet
  facet normal -0.491124 -0.794654 0.356823
    outer loop
      vertex 19.1934 -4.95106 -2.25
      vertex 18.8995 -4.58778 -1.84549
      vertex 18.6056 -4.58778 -2.25
    endloop
  endfacet
  facet normal -0.491124 -0.794653 0.356824
    outer loop
      vertex 19.1934 -4.95106 -2.25
      vertex 18.6056 -4.58778 -2.25
      vertex 19.0811 -4.95106 -2.40451
    endloop
  endfacet
  facet normal -0.607063 -0.794654 -1.19975e-016
    outer loop
      vertex 19.0811 -4.95106 -2.40451
      vertex 18.6056 -4.58778 -2.25
      vertex 18.6056 -4.58778 -2.75
    endloop
  endfacet
  facet normal -0.607063 -0.794654 -1.19975e-016
    outer loop
      vertex 19.0811 -4.95106 -2.59549
      vertex 19.0811 -4.95106 -2.40451
      vertex 18.6056 -4.58778 -2.75
    endloop
  endfacet
  facet normal -0.491124 -0.794653 -0.356823
    outer loop
      vertex 18.8995 -4.58778 -3.15451
      vertex 19.0811 -4.95106 -2.59549
      vertex 18.6056 -4.58778 -2.75
    endloop
  endfacet
  facet normal -0.491124 -0.794654 -0.356824
    outer loop
      vertex 19.1934 -4.95106 -2.75
      vertex 19.0811 -4.95106 -2.59549
      vertex 18.8995 -4.58778 -3.15451
    endloop
  endfacet
  facet normal -0.187593 -0.794654 -0.577351
    outer loop
      vertex 19.375 -4.58778 -3.30902
      vertex 19.1934 -4.95106 -2.75
      vertex 18.8995 -4.58778 -3.15451
    endloop
  endfacet
  facet normal -0.187592 -0.794654 -0.577351
    outer loop
      vertex 19.375 -4.95106 -2.80902
      vertex 19.1934 -4.95106 -2.75
      vertex 19.375 -4.58778 -3.30902
    endloop
  endfacet
  facet normal 0.187593 -0.794654 -0.577351
    outer loop
      vertex 19.8505 -4.58778 -3.15451
      vertex 19.375 -4.95106 -2.80902
      vertex 19.375 -4.58778 -3.30902
    endloop
  endfacet
  facet normal 0.187593 -0.794653 -0.577352
    outer loop
      vertex 19.8505 -4.58778 -3.15451
      vertex 19.5566 -4.95106 -2.75
      vertex 19.375 -4.95106 -2.80902
    endloop
  endfacet
  facet normal 0.491124 -0.794654 -0.356823
    outer loop
      vertex 20.1444 -4.58778 -2.75
      vertex 19.5566 -4.95106 -2.75
      vertex 19.8505 -4.58778 -3.15451
    endloop
  endfacet
  facet normal 0.491124 -0.794653 -0.356824
    outer loop
      vertex 20.1444 -4.58778 -2.75
      vertex 19.6689 -4.95106 -2.59549
      vertex 19.5566 -4.95106 -2.75
    endloop
  endfacet
  facet normal 0.607063 -0.794654 1.19932e-016
    outer loop
      vertex 20.1444 -4.58778 -2.75
      vertex 20.1444 -4.58778 -2.25
      vertex 19.6689 -4.95106 -2.40451
    endloop
  endfacet
  facet normal 0.607063 -0.794654 1.19932e-016
    outer loop
      vertex 19.6689 -4.95106 -2.59549
      vertex 20.1444 -4.58778 -2.75
      vertex 19.6689 -4.95106 -2.40451
    endloop
  endfacet
  facet normal 0.491124 -0.794653 0.356823
    outer loop
      vertex 20.1444 -4.58778 -2.25
      vertex 19.8505 -4.58778 -1.84549
      vertex 19.6689 -4.95106 -2.40451
    endloop
  endfacet
  facet normal 0.491124 -0.794654 0.356824
    outer loop
      vertex 19.6689 -4.95106 -2.40451
      vertex 19.8505 -4.58778 -1.84549
      vertex 19.5566 -4.95106 -2.25
    endloop
  endfacet
  facet normal 0.187593 -0.794654 0.577351
    outer loop
      vertex 22.3505 -4.58778 -1.84549
      vertex 21.875 -4.58778 -1.69098
      vertex 22.0566 -4.95106 -2.25
    endloop
  endfacet
  facet normal 0.187592 -0.794654 0.577351
    outer loop
      vertex 22.0566 -4.95106 -2.25
      vertex 21.875 -4.58778 -1.69098
      vertex 21.875 -4.95106 -2.19098
    endloop
  endfacet
  facet normal -0.187593 -0.794654 0.577351
    outer loop
      vertex 21.875 -4.95106 -2.19098
      vertex 21.875 -4.58778 -1.69098
      vertex 21.3995 -4.58778 -1.84549
    endloop
  endfacet
  facet normal -0.187593 -0.794653 0.577352
    outer loop
      vertex 21.875 -4.95106 -2.19098
      vertex 21.3995 -4.58778 -1.84549
      vertex 21.6934 -4.95106 -2.25
    endloop
  endfacet
  facet normal -0.491124 -0.794654 0.356823
    outer loop
      vertex 21.6934 -4.95106 -2.25
      vertex 21.3995 -4.58778 -1.84549
      vertex 21.1056 -4.58778 -2.25
    endloop
  endfacet
  facet normal -0.491124 -0.794653 0.356824
    outer loop
      vertex 21.6934 -4.95106 -2.25
      vertex 21.1056 -4.58778 -2.25
      vertex 21.5811 -4.95106 -2.40451
    endloop
  endfacet
  facet normal -0.607063 -0.794654 -1.19975e-016
    outer loop
      vertex 21.5811 -4.95106 -2.40451
      vertex 21.1056 -4.58778 -2.25
      vertex 21.1056 -4.58778 -2.75
    endloop
  endfacet
  facet normal -0.607063 -0.794654 -1.19975e-016
    outer loop
      vertex 21.5811 -4.95106 -2.59549
      vertex 21.5811 -4.95106 -2.40451
      vertex 21.1056 -4.58778 -2.75
    endloop
  endfacet
  facet normal -0.491124 -0.794653 -0.356823
    outer loop
      vertex 21.3995 -4.58778 -3.15451
      vertex 21.5811 -4.95106 -2.59549
      vertex 21.1056 -4.58778 -2.75
    endloop
  endfacet
  facet normal -0.491124 -0.794654 -0.356824
    outer loop
      vertex 21.6934 -4.95106 -2.75
      vertex 21.5811 -4.95106 -2.59549
      vertex 21.3995 -4.58778 -3.15451
    endloop
  endfacet
  facet normal -0.187593 -0.794654 -0.577351
    outer loop
      vertex 21.875 -4.58778 -3.30902
      vertex 21.6934 -4.95106 -2.75
      vertex 21.3995 -4.58778 -3.15451
    endloop
  endfacet
  facet normal -0.187592 -0.794654 -0.577351
    outer loop
      vertex 21.875 -4.95106 -2.80902
      vertex 21.6934 -4.95106 -2.75
      vertex 21.875 -4.58778 -3.30902
    endloop
  endfacet
  facet normal 0.187593 -0.794654 -0.577351
    outer loop
      vertex 22.3505 -4.58778 -3.15451
      vertex 21.875 -4.95106 -2.80902
      vertex 21.875 -4.58778 -3.30902
    endloop
  endfacet
  facet normal 0.187593 -0.794653 -0.577352
    outer loop
      vertex 22.3505 -4.58778 -3.15451
      vertex 22.0566 -4.95106 -2.75
      vertex 21.875 -4.95106 -2.80902
    endloop
  endfacet
  facet normal 0.491124 -0.794654 -0.356823
    outer loop
      vertex 22.6444 -4.58778 -2.75
      vertex 22.0566 -4.95106 -2.75
      vertex 22.3505 -4.58778 -3.15451
    endloop
  endfacet
  facet normal 0.491124 -0.794653 -0.356824
    outer loop
      vertex 22.6444 -4.58778 -2.75
      vertex 22.1689 -4.95106 -2.59549
      vertex 22.0566 -4.95106 -2.75
    endloop
  endfacet
  facet normal 0.607063 -0.794654 1.19932e-016
    outer loop
      vertex 22.6444 -4.58778 -2.75
      vertex 22.6444 -4.58778 -2.25
      vertex 22.1689 -4.95106 -2.40451
    endloop
  endfacet
  facet normal 0.607063 -0.794654 1.19932e-016
    outer loop
      vertex 22.1689 -4.95106 -2.59549
      vertex 22.6444 -4.58778 -2.75
      vertex 22.1689 -4.95106 -2.40451
    endloop
  endfacet
  facet normal 0.491124 -0.794653 0.356823
    outer loop
      vertex 22.6444 -4.58778 -2.25
      vertex 22.3505 -4.58778 -1.84549
      vertex 22.1689 -4.95106 -2.40451
    endloop
  endfacet
  facet normal 0.491124 -0.794654 0.356824
    outer loop
      vertex 22.1689 -4.95106 -2.40451
      vertex 22.3505 -4.58778 -1.84549
      vertex 22.0566 -4.95106 -2.25
    endloop
  endfacet
  facet normal 1.77321e-016 -1 -2.71051e-020
    outer loop
      vertex 19.5566 -4.95106 -2.25
      vertex 19.375 -4.95106 -2.19098
      vertex 19.1934 -4.95106 -2.25
    endloop
  endfacet
  facet normal 1.77321e-016 -1 -2.71051e-020
    outer loop
      vertex 19.0811 -4.95106 -2.59549
      vertex 19.5566 -4.95106 -2.25
      vertex 19.0811 -4.95106 -2.40451
    endloop
  endfacet
  facet normal 1.77321e-016 -1 -2.71051e-020
    outer loop
      vertex 19.0811 -4.95106 -2.40451
      vertex 19.5566 -4.95106 -2.25
      vertex 19.1934 -4.95106 -2.25
    endloop
  endfacet
  facet normal 1.77321e-016 -1 -2.71051e-020
    outer loop
      vertex 19.1934 -4.95106 -2.75
      vertex 19.5566 -4.95106 -2.25
      vertex 19.0811 -4.95106 -2.59549
    endloop
  endfacet
  facet normal 1.77321e-016 -1 -2.71051e-020
    outer loop
      vertex 19.375 -4.95106 -2.80902
      vertex 19.5566 -4.95106 -2.25
      vertex 19.1934 -4.95106 -2.75
    endloop
  endfacet
  facet normal 1.77321e-016 -1 -2.71051e-020
    outer loop
      vertex 19.5566 -4.95106 -2.75
      vertex 19.5566 -4.95106 -2.25
      vertex 19.375 -4.95106 -2.80902
    endloop
  endfacet
  facet normal 1.77321e-016 -1 -2.71051e-020
    outer loop
      vertex 19.6689 -4.95106 -2.59549
      vertex 19.5566 -4.95106 -2.25
      vertex 19.5566 -4.95106 -2.75
    endloop
  endfacet
  facet normal 1.77321e-016 -1 -2.71051e-020
    outer loop
      vertex 19.6689 -4.95106 -2.40451
      vertex 19.5566 -4.95106 -2.25
      vertex 19.6689 -4.95106 -2.59549
    endloop
  endfacet
  facet normal 1.77321e-016 -1 -2.71051e-020
    outer loop
      vertex 22.0566 -4.95106 -2.25
      vertex 21.875 -4.95106 -2.19098
      vertex 21.6934 -4.95106 -2.25
    endloop
  endfacet
  facet normal 1.77321e-016 -1 -2.71051e-020
    outer loop
      vertex 21.5811 -4.95106 -2.59549
      vertex 22.0566 -4.95106 -2.25
      vertex 21.5811 -4.95106 -2.40451
    endloop
  endfacet
  facet normal 1.77321e-016 -1 -2.71051e-020
    outer loop
      vertex 21.5811 -4.95106 -2.40451
      vertex 22.0566 -4.95106 -2.25
      vertex 21.6934 -4.95106 -2.25
    endloop
  endfacet
  facet normal 1.77321e-016 -1 -2.71051e-020
    outer loop
      vertex 21.6934 -4.95106 -2.75
      vertex 22.0566 -4.95106 -2.25
      vertex 21.5811 -4.95106 -2.59549
    endloop
  endfacet
  facet normal 1.77321e-016 -1 -2.71051e-020
    outer loop
      vertex 21.875 -4.95106 -2.80902
      vertex 22.0566 -4.95106 -2.25
      vertex 21.6934 -4.95106 -2.75
    endloop
  endfacet
  facet normal 1.77321e-016 -1 -2.71051e-020
    outer loop
      vertex 22.0566 -4.95106 -2.75
      vertex 22.0566 -4.95106 -2.25
      vertex 21.875 -4.95106 -2.80902
    endloop
  endfacet
  facet normal 1.77321e-016 -1 -2.71051e-020
    outer loop
      vertex 22.1689 -4.95106 -2.59549
      vertex 22.0566 -4.95106 -2.25
      vertex 22.0566 -4.95106 -2.75
    endloop
  endfacet
  facet normal 1.77321e-016 -1 -2.71051e-020
    outer loop
      vertex 22.1689 -4.95106 -2.40451
      vertex 22.0566 -4.95106 -2.25
      vertex 22.1689 -4.95106 -2.59549
    endloop
  endfacet
  facet normal -2.22045e-016 -3.48654e-032 1
    outer loop
      vertex 32.5 -2 7.21645e-015
      vertex 26.25 -2 5.82867e-015
      vertex 26.25 -4 5.82867e-015
    endloop
  endfacet
  facet normal -2.22045e-016 -3.48654e-032 1
    outer loop
      vertex 32.5 -4 7.21645e-015
      vertex 32.5 -2 7.21645e-015
      vertex 26.25 -4 5.82867e-015
    endloop
  endfacet
  facet normal -1 -1.5702e-016 -1.97596e-016
    outer loop
      vertex 26.25 -2 5.82867e-015
      vertex 26.25 -2 -10
      vertex 26.25 -4 5.82867e-015
    endloop
  endfacet
  facet normal -1 -1.5702e-016 -1.97596e-016
    outer loop
      vertex 26.25 -4 5.82867e-015
      vertex 26.25 -2 -10
      vertex 26.25 -4 -10
    endloop
  endfacet
  facet normal -1.77321e-016 1 2.71051e-020
    outer loop
      vertex 26.25 -2 5.82867e-015
      vertex 32.5 -2 7.21645e-015
      vertex 26.25 -2 -10
    endloop
  endfacet
  facet normal -1.77321e-016 1 2.71051e-020
    outer loop
      vertex 26.25 -2 -10
      vertex 32.5 -2 7.21645e-015
      vertex 32.5 -2 -10
    endloop
  endfacet
  facet normal 1 1.5702e-016 1.97596e-016
    outer loop
      vertex 32.5 -2 -10
      vertex 32.5 -2 7.21645e-015
      vertex 32.5 -4 7.21645e-015
    endloop
  endfacet
  facet normal 1 1.5702e-016 1.97596e-016
    outer loop
      vertex 32.5 -4 -10
      vertex 32.5 -2 -10
      vertex 32.5 -4 7.21645e-015
    endloop
  endfacet
  facet normal 1.77321e-016 -1 -2.71051e-020
    outer loop
      vertex 27.1739 -4 -2.80902
      vertex 26.25 -4 5.82867e-015
      vertex 26.25 -4 -10
    endloop
  endfacet
  facet normal 1.77321e-016 -1 -2.71051e-020
    outer loop
      vertex 31.2128 -4 -4.19098
      vertex 31.5761 -4 -4.69098
      vertex 31.2128 -4 -3.30902
    endloop
  endfacet
  facet normal 1.77321e-016 -1 -2.71051e-020
    outer loop
      vertex 30.625 -4 -1.5
      vertex 31.2128 -4 -1.69098
      vertex 32.5 -4 7.21645e-015
    endloop
  endfacet
  facet normal 1.77321e-016 -1 -2.71051e-020
    outer loop
      vertex 32.5 -4 7.21645e-015
      vertex 26.25 -4 5.82867e-015
      vertex 27.5372 -4 -1.69098
    endloop
  endfacet
  facet normal 1.77321e-016 -1 -2.71051e-020
    outer loop
      vertex 27.5372 -4 -3.30902
      vertex 27.1739 -4 -2.80902
      vertex 26.25 -4 -10
    endloop
  endfacet
  facet normal 1.77321e-016 -1 -2.71051e-020
    outer loop
      vertex 32.5 -4 7.21645e-015
      vertex 27.5372 -4 -1.69098
      vertex 28.125 -4 -1.5
    endloop
  endfacet
  facet normal 1.77321e-016 -1 -2.71051e-020
    outer loop
      vertex 28.125 -4 -3.5
      vertex 27.5372 -4 -3.30902
      vertex 26.25 -4 -10
    endloop
  endfacet
  facet normal 1.77321e-016 -1 -2.71051e-020
    outer loop
      vertex 32.5 -4 7.21645e-015
      vertex 28.125 -4 -1.5
      vertex 28.7128 -4 -1.69098
    endloop
  endfacet
  facet normal 1.77321e-016 -1 -2.71051e-020
    outer loop
      vertex 29.6739 -4 -2.80902
      vertex 29.6739 -4 -2.19098
      vertex 29.0761 -4 -2.80902
    endloop
  endfacet
  facet normal 1.77321e-016 -1 -2.71051e-020
    outer loop
      vertex 32.5 -4 7.21645e-015
      vertex 28.7128 -4 -1.69098
      vertex 29.0761 -4 -2.19098
    endloop
  endfacet
  facet normal 1.77321e-016 -1 -2.71051e-020
    outer loop
      vertex 30.0372 -4 -3.30902
      vertex 29.0761 -4 -2.80902
      vertex 26.25 -4 -10
    endloop
  endfacet
  facet normal 1.77321e-016 -1 -2.71051e-020
    outer loop
      vertex 30.0372 -4 -1.69098
      vertex 29.0761 -4 -2.19098
      vertex 29.0761 -4 -2.80902
    endloop
  endfacet
  facet normal 1.77321e-016 -1 -2.71051e-020
    outer loop
      vertex 29.0761 -4 -2.80902
      vertex 28.7128 -4 -3.30902
      vertex 26.25 -4 -10
    endloop
  endfacet
  facet normal 1.77321e-016 -1 -2.71051e-020
    outer loop
      vertex 30.0372 -4 -4.19098
      vertex 30.625 -4 -4
      vertex 30.625 -4 -3.5
    endloop
  endfacet
  facet normal 1.77321e-016 -1 -2.71051e-020
    outer loop
      vertex 27.1739 -4 -2.19098
      vertex 26.25 -4 5.82867e-015
      vertex 27.1739 -4 -2.80902
    endloop
  endfacet
  facet normal 1.77321e-016 -1 -2.71051e-020
    outer loop
      vertex 27.5372 -4 -1.69098
      vertex 26.25 -4 5.82867e-015
      vertex 27.1739 -4 -2.19098
    endloop
  endfacet
  facet normal 1.77321e-016 -1 -2.71051e-020
    outer loop
      vertex 29.6739 -4 -2.19098
      vertex 30.0372 -4 -1.69098
      vertex 29.0761 -4 -2.80902
    endloop
  endfacet
  facet normal 1.77321e-016 -1 -2.71051e-020
    outer loop
      vertex 32.5 -4 7.21645e-015
      vertex 29.0761 -4 -2.19098
      vertex 30.0372 -4 -1.69098
    endloop
  endfacet
  facet normal 1.77321e-016 -1 -2.71051e-020
    outer loop
      vertex 32.5 -4 7.21645e-015
      vertex 30.0372 -4 -1.69098
      vertex 30.625 -4 -1.5
    endloop
  endfacet
  facet normal 1.77321e-016 -1 -2.71051e-020
    outer loop
      vertex 32.5 -4 -10
      vertex 32.5 -4 7.21645e-015
      vertex 31.5761 -4 -2.19098
    endloop
  endfacet
  facet normal 1.77321e-016 -1 -2.71051e-020
    outer loop
      vertex 32.5 -4 -10
      vertex 31.5761 -4 -2.19098
      vertex 31.5761 -4 -2.80902
    endloop
  endfacet
  facet normal 1.77321e-016 -1 -2.71051e-020
    outer loop
      vertex 31.5761 -4 -4.69098
      vertex 31.5761 -4 -5.30902
      vertex 32.5 -4 -10
    endloop
  endfacet
  facet normal 1.77321e-016 -1 -2.71051e-020
    outer loop
      vertex 31.5761 -4 -4.69098
      vertex 31.5761 -4 -2.80902
      vertex 31.2128 -4 -3.30902
    endloop
  endfacet
  facet normal 1.77321e-016 -1 -2.71051e-020
    outer loop
      vertex 29.6739 -4 -2.80902
      vertex 29.0761 -4 -2.80902
      vertex 30.0372 -4 -3.30902
    endloop
  endfacet
  facet normal 1.77321e-016 -1 -2.71051e-020
    outer loop
      vertex 30.625 -4 -4
      vertex 31.2128 -4 -4.19098
      vertex 31.2128 -4 -3.30902
    endloop
  endfacet
  facet normal 1.77321e-016 -1 -2.71051e-020
    outer loop
      vertex 29.6739 -4 -4.69098
      vertex 30.0372 -4 -3.30902
      vertex 26.25 -4 -10
    endloop
  endfacet
  facet normal 1.77321e-016 -1 -2.71051e-020
    outer loop
      vertex 29.6739 -4 -5.30902
      vertex 29.6739 -4 -4.69098
      vertex 26.25 -4 -10
    endloop
  endfacet
  facet normal 1.77321e-016 -1 -2.71051e-020
    outer loop
      vertex 32.5 -4 -10
      vertex 31.5761 -4 -2.80902
      vertex 31.5761 -4 -4.69098
    endloop
  endfacet
  facet normal 1.77321e-016 -1 -2.71051e-020
    outer loop
      vertex 30.0372 -4 -5.80902
      vertex 29.6739 -4 -5.30902
      vertex 26.25 -4 -10
    endloop
  endfacet
  facet normal 1.77321e-016 -1 -2.71051e-020
    outer loop
      vertex 31.5761 -4 -5.30902
      vertex 31.2128 -4 -5.80902
      vertex 32.5 -4 -10
    endloop
  endfacet
  facet normal 1.77321e-016 -1 -2.71051e-020
    outer loop
      vertex 32.5 -4 -10
      vertex 31.2128 -4 -5.80902
      vertex 26.25 -4 -10
    endloop
  endfacet
  facet normal 1.77321e-016 -1 -2.71051e-020
    outer loop
      vertex 31.2128 -4 -5.80902
      vertex 30.625 -4 -6
      vertex 26.25 -4 -10
    endloop
  endfacet
  facet normal 1.77321e-016 -1 -2.71051e-020
    outer loop
      vertex 30.625 -4 -6
      vertex 30.0372 -4 -5.80902
      vertex 26.25 -4 -10
    endloop
  endfacet
  facet normal 1.77321e-016 -1 -2.71051e-020
    outer loop
      vertex 30.625 -4 -3.5
      vertex 30.0372 -4 -3.30902
      vertex 30.0372 -4 -4.19098
    endloop
  endfacet
  facet normal 1.77321e-016 -1 -2.71051e-020
    outer loop
      vertex 30.0372 -4 -4.19098
      vertex 30.0372 -4 -3.30902
      vertex 29.6739 -4 -4.69098
    endloop
  endfacet
  facet normal 1.77321e-016 -1 -2.71051e-020
    outer loop
      vertex 28.7128 -4 -3.30902
      vertex 28.125 -4 -3.5
      vertex 26.25 -4 -10
    endloop
  endfacet
  facet normal 1.77321e-016 -1 -2.71051e-020
    outer loop
      vertex 31.2128 -4 -1.69098
      vertex 31.5761 -4 -2.19098
      vertex 32.5 -4 7.21645e-015
    endloop
  endfacet
  facet normal 1.77321e-016 -1 -2.71051e-020
    outer loop
      vertex 31.2128 -4 -3.30902
      vertex 30.625 -4 -3.5
      vertex 30.625 -4 -4
    endloop
  endfacet
  facet normal 2.22045e-016 3.48654e-032 -1
    outer loop
      vertex 26.25 -2 -10
      vertex 32.5 -2 -10
      vertex 26.25 -4 -10
    endloop
  endfacet
  facet normal 2.22045e-016 3.48654e-032 -1
    outer loop
      vertex 26.25 -4 -10
      vertex 32.5 -2 -10
      vertex 32.5 -4 -10
    endloop
  endfacet
  facet normal -0.295242 -0.295242 0.908661
    outer loop
      vertex 28.125 -4.58778 -1.69098
      vertex 28.125 -4 -1.5
      vertex 27.5372 -4 -1.69098
    endloop
  endfacet
  facet normal -0.295243 -0.295243 0.90866
    outer loop
      vertex 28.125 -4.58778 -1.69098
      vertex 27.5372 -4 -1.69098
      vertex 27.6495 -4.58778 -1.84549
    endloop
  endfacet
  facet normal -0.772952 -0.295242 0.561584
    outer loop
      vertex 27.6495 -4.58778 -1.84549
      vertex 27.5372 -4 -1.69098
      vertex 27.1739 -4 -2.19098
    endloop
  endfacet
  facet normal -0.772952 -0.295242 0.561584
    outer loop
      vertex 27.3556 -4.58778 -2.25
      vertex 27.6495 -4.58778 -1.84549
      vertex 27.1739 -4 -2.19098
    endloop
  endfacet
  facet normal -0.955422 -0.295242 -1.88795e-016
    outer loop
      vertex 27.1739 -4 -2.19098
      vertex 27.1739 -4 -2.80902
      vertex 27.3556 -4.58778 -2.25
    endloop
  endfacet
  facet normal -0.955422 -0.295242 -1.88795e-016
    outer loop
      vertex 27.3556 -4.58778 -2.25
      vertex 27.1739 -4 -2.80902
      vertex 27.3556 -4.58778 -2.75
    endloop
  endfacet
  facet normal -0.772952 -0.295242 -0.561584
    outer loop
      vertex 27.5372 -4 -3.30902
      vertex 27.3556 -4.58778 -2.75
      vertex 27.1739 -4 -2.80902
    endloop
  endfacet
  facet normal -0.772952 -0.295242 -0.561584
    outer loop
      vertex 27.6495 -4.58778 -3.15451
      vertex 27.3556 -4.58778 -2.75
      vertex 27.5372 -4 -3.30902
    endloop
  endfacet
  facet normal -0.295242 -0.295243 -0.908661
    outer loop
      vertex 28.125 -4 -3.5
      vertex 27.6495 -4.58778 -3.15451
      vertex 27.5372 -4 -3.30902
    endloop
  endfacet
  facet normal -0.295243 -0.295242 -0.908661
    outer loop
      vertex 28.125 -4.58778 -3.30902
      vertex 27.6495 -4.58778 -3.15451
      vertex 28.125 -4 -3.5
    endloop
  endfacet
  facet normal 0.295242 -0.295242 -0.908661
    outer loop
      vertex 28.7128 -4 -3.30902
      vertex 28.125 -4.58778 -3.30902
      vertex 28.125 -4 -3.5
    endloop
  endfacet
  facet normal 0.772952 -0.295242 -0.561584
    outer loop
      vertex 28.7128 -4 -3.30902
      vertex 29.0761 -4 -2.80902
      vertex 28.6005 -4.58778 -3.15451
    endloop
  endfacet
  facet normal 0.295243 -0.295243 -0.90866
    outer loop
      vertex 28.7128 -4 -3.30902
      vertex 28.6005 -4.58778 -3.15451
      vertex 28.125 -4.58778 -3.30902
    endloop
  endfacet
  facet normal 0.955422 -0.295242 1.88779e-016
    outer loop
      vertex 29.0761 -4 -2.80902
      vertex 29.0761 -4 -2.19098
      vertex 28.8944 -4.58778 -2.25
    endloop
  endfacet
  facet normal 0.955422 -0.295242 1.88779e-016
    outer loop
      vertex 28.8944 -4.58778 -2.75
      vertex 29.0761 -4 -2.80902
      vertex 28.8944 -4.58778 -2.25
    endloop
  endfacet
  facet normal 0.772952 -0.295242 -0.561584
    outer loop
      vertex 29.0761 -4 -2.80902
      vertex 28.8944 -4.58778 -2.75
      vertex 28.6005 -4.58778 -3.15451
    endloop
  endfacet
  facet normal 0.772952 -0.295242 0.561584
    outer loop
      vertex 29.0761 -4 -2.19098
      vertex 28.7128 -4 -1.69098
      vertex 28.8944 -4.58778 -2.25
    endloop
  endfacet
  facet normal 0.295242 -0.295243 0.908661
    outer loop
      vertex 28.7128 -4 -1.69098
      vertex 28.125 -4 -1.5
      vertex 28.6005 -4.58778 -1.84549
    endloop
  endfacet
  facet normal 0.772952 -0.295242 0.561584
    outer loop
      vertex 28.8944 -4.58778 -2.25
      vertex 28.7128 -4 -1.69098
      vertex 28.6005 -4.58778 -1.84549
    endloop
  endfacet
  facet normal 0.295243 -0.295242 0.908661
    outer loop
      vertex 28.6005 -4.58778 -1.84549
      vertex 28.125 -4 -1.5
      vertex 28.125 -4.58778 -1.69098
    endloop
  endfacet
  facet normal -0.295242 -0.295242 0.908661
    outer loop
      vertex 30.625 -4.58778 -1.69098
      vertex 30.625 -4 -1.5
      vertex 30.0372 -4 -1.69098
    endloop
  endfacet
  facet normal -0.295243 -0.295243 0.90866
    outer loop
      vertex 30.625 -4.58778 -1.69098
      vertex 30.0372 -4 -1.69098
      vertex 30.1495 -4.58778 -1.84549
    endloop
  endfacet
  facet normal -0.772952 -0.295242 0.561584
    outer loop
      vertex 30.1495 -4.58778 -1.84549
      vertex 30.0372 -4 -1.69098
      vertex 29.6739 -4 -2.19098
    endloop
  endfacet
  facet normal -0.772952 -0.295242 0.561584
    outer loop
      vertex 29.8556 -4.58778 -2.25
      vertex 30.1495 -4.58778 -1.84549
      vertex 29.6739 -4 -2.19098
    endloop
  endfacet
  facet normal -0.955422 -0.295242 -1.88795e-016
    outer loop
      vertex 29.6739 -4 -2.19098
      vertex 29.6739 -4 -2.80902
      vertex 29.8556 -4.58778 -2.25
    endloop
  endfacet
  facet normal -0.955422 -0.295242 -1.88795e-016
    outer loop
      vertex 29.8556 -4.58778 -2.25
      vertex 29.6739 -4 -2.80902
      vertex 29.8556 -4.58778 -2.75
    endloop
  endfacet
  facet normal -0.772952 -0.295242 -0.561584
    outer loop
      vertex 30.0372 -4 -3.30902
      vertex 29.8556 -4.58778 -2.75
      vertex 29.6739 -4 -2.80902
    endloop
  endfacet
  facet normal -0.772952 -0.295242 -0.561584
    outer loop
      vertex 30.1495 -4.58778 -3.15451
      vertex 29.8556 -4.58778 -2.75
      vertex 30.0372 -4 -3.30902
    endloop
  endfacet
  facet normal -0.295242 -0.295243 -0.908661
    outer loop
      vertex 30.625 -4 -3.5
      vertex 30.1495 -4.58778 -3.15451
      vertex 30.0372 -4 -3.30902
    endloop
  endfacet
  facet normal -0.295243 -0.295242 -0.908661
    outer loop
      vertex 30.625 -4.58778 -3.30902
      vertex 30.1495 -4.58778 -3.15451
      vertex 30.625 -4 -3.5
    endloop
  endfacet
  facet normal 0.295242 -0.295242 -0.908661
    outer loop
      vertex 31.2128 -4 -3.30902
      vertex 30.625 -4.58778 -3.30902
      vertex 30.625 -4 -3.5
    endloop
  endfacet
  facet normal 0.772952 -0.295242 -0.561584
    outer loop
      vertex 31.2128 -4 -3.30902
      vertex 31.5761 -4 -2.80902
      vertex 31.1005 -4.58778 -3.15451
    endloop
  endfacet
  facet normal 0.295243 -0.295243 -0.90866
    outer loop
      vertex 31.2128 -4 -3.30902
      vertex 31.1005 -4.58778 -3.15451
      vertex 30.625 -4.58778 -3.30902
    endloop
  endfacet
  facet normal 0.955422 -0.295242 1.88779e-016
    outer loop
      vertex 31.5761 -4 -2.80902
      vertex 31.5761 -4 -2.19098
      vertex 31.3944 -4.58778 -2.25
    endloop
  endfacet
  facet normal 0.955422 -0.295242 1.88779e-016
    outer loop
      vertex 31.3944 -4.58778 -2.75
      vertex 31.5761 -4 -2.80902
      vertex 31.3944 -4.58778 -2.25
    endloop
  endfacet
  facet normal 0.772952 -0.295242 -0.561584
    outer loop
      vertex 31.5761 -4 -2.80902
      vertex 31.3944 -4.58778 -2.75
      vertex 31.1005 -4.58778 -3.15451
    endloop
  endfacet
  facet normal 0.772952 -0.295242 0.561584
    outer loop
      vertex 31.5761 -4 -2.19098
      vertex 31.2128 -4 -1.69098
      vertex 31.3944 -4.58778 -2.25
    endloop
  endfacet
  facet normal 0.295242 -0.295243 0.908661
    outer loop
      vertex 31.2128 -4 -1.69098
      vertex 30.625 -4 -1.5
      vertex 31.1005 -4.58778 -1.84549
    endloop
  endfacet
  facet normal 0.772952 -0.295242 0.561584
    outer loop
      vertex 31.3944 -4.58778 -2.25
      vertex 31.2128 -4 -1.69098
      vertex 31.1005 -4.58778 -1.84549
    endloop
  endfacet
  facet normal 0.295243 -0.295242 0.908661
    outer loop
      vertex 31.1005 -4.58778 -1.84549
      vertex 30.625 -4 -1.5
      vertex 30.625 -4.58778 -1.69098
    endloop
  endfacet
  facet normal -0.295242 -0.295242 0.908661
    outer loop
      vertex 30.625 -4.58778 -4.19098
      vertex 30.625 -4 -4
      vertex 30.0372 -4 -4.19098
    endloop
  endfacet
  facet normal -0.295243 -0.295243 0.90866
    outer loop
      vertex 30.625 -4.58778 -4.19098
      vertex 30.0372 -4 -4.19098
      vertex 30.1495 -4.58778 -4.34549
    endloop
  endfacet
  facet normal -0.772952 -0.295242 0.561584
    outer loop
      vertex 30.1495 -4.58778 -4.34549
      vertex 30.0372 -4 -4.19098
      vertex 29.6739 -4 -4.69098
    endloop
  endfacet
  facet normal -0.772952 -0.295242 0.561584
    outer loop
      vertex 29.8556 -4.58778 -4.75
      vertex 30.1495 -4.58778 -4.34549
      vertex 29.6739 -4 -4.69098
    endloop
  endfacet
  facet normal -0.955422 -0.295242 -1.88795e-016
    outer loop
      vertex 29.6739 -4 -4.69098
      vertex 29.6739 -4 -5.30902
      vertex 29.8556 -4.58778 -4.75
    endloop
  endfacet
  facet normal -0.955422 -0.295242 -1.88795e-016
    outer loop
      vertex 29.8556 -4.58778 -4.75
      vertex 29.6739 -4 -5.30902
      vertex 29.8556 -4.58778 -5.25
    endloop
  endfacet
  facet normal -0.772952 -0.295242 -0.561584
    outer loop
      vertex 30.0372 -4 -5.80902
      vertex 29.8556 -4.58778 -5.25
      vertex 29.6739 -4 -5.30902
    endloop
  endfacet
  facet normal -0.772952 -0.295242 -0.561584
    outer loop
      vertex 30.1495 -4.58778 -5.65451
      vertex 29.8556 -4.58778 -5.25
      vertex 30.0372 -4 -5.80902
    endloop
  endfacet
  facet normal -0.295242 -0.295243 -0.908661
    outer loop
      vertex 30.625 -4 -6
      vertex 30.1495 -4.58778 -5.65451
      vertex 30.0372 -4 -5.80902
    endloop
  endfacet
  facet normal -0.295243 -0.295242 -0.908661
    outer loop
      vertex 30.625 -4.58778 -5.80902
      vertex 30.1495 -4.58778 -5.65451
      vertex 30.625 -4 -6
    endloop
  endfacet
  facet normal 0.295242 -0.295242 -0.908661
    outer loop
      vertex 31.2128 -4 -5.80902
      vertex 30.625 -4.58778 -5.80902
      vertex 30.625 -4 -6
    endloop
  endfacet
  facet normal 0.772952 -0.295242 -0.561584
    outer loop
      vertex 31.2128 -4 -5.80902
      vertex 31.5761 -4 -5.30902
      vertex 31.1005 -4.58778 -5.65451
    endloop
  endfacet
  facet normal 0.295243 -0.295243 -0.90866
    outer loop
      vertex 31.2128 -4 -5.80902
      vertex 31.1005 -4.58778 -5.65451
      vertex 30.625 -4.58778 -5.80902
    endloop
  endfacet
  facet normal 0.955422 -0.295242 1.88779e-016
    outer loop
      vertex 31.5761 -4 -5.30902
      vertex 31.5761 -4 -4.69098
      vertex 31.3944 -4.58778 -4.75
    endloop
  endfacet
  facet normal 0.955422 -0.295242 1.88779e-016
    outer loop
      vertex 31.3944 -4.58778 -5.25
      vertex 31.5761 -4 -5.30902
      vertex 31.3944 -4.58778 -4.75
    endloop
  endfacet
  facet normal 0.772952 -0.295242 -0.561584
    outer loop
      vertex 31.5761 -4 -5.30902
      vertex 31.3944 -4.58778 -5.25
      vertex 31.1005 -4.58778 -5.65451
    endloop
  endfacet
  facet normal 0.772952 -0.295242 0.561584
    outer loop
      vertex 31.5761 -4 -4.69098
      vertex 31.2128 -4 -4.19098
      vertex 31.3944 -4.58778 -4.75
    endloop
  endfacet
  facet normal 0.295242 -0.295243 0.908661
    outer loop
      vertex 31.2128 -4 -4.19098
      vertex 30.625 -4 -4
      vertex 31.1005 -4.58778 -4.34549
    endloop
  endfacet
  facet normal 0.772952 -0.295242 0.561584
    outer loop
      vertex 31.3944 -4.58778 -4.75
      vertex 31.2128 -4 -4.19098
      vertex 31.1005 -4.58778 -4.34549
    endloop
  endfacet
  facet normal 0.295243 -0.295242 0.908661
    outer loop
      vertex 31.1005 -4.58778 -4.34549
      vertex 30.625 -4 -4
      vertex 30.625 -4.58778 -4.19098
    endloop
  endfacet
  facet normal 0.187593 -0.794654 0.577351
    outer loop
      vertex 28.6005 -4.58778 -1.84549
      vertex 28.125 -4.58778 -1.69098
      vertex 28.3066 -4.95106 -2.25
    endloop
  endfacet
  facet normal 0.187592 -0.794654 0.577351
    outer loop
      vertex 28.3066 -4.95106 -2.25
      vertex 28.125 -4.58778 -1.69098
      vertex 28.125 -4.95106 -2.19098
    endloop
  endfacet
  facet normal -0.187593 -0.794654 0.577351
    outer loop
      vertex 28.125 -4.95106 -2.19098
      vertex 28.125 -4.58778 -1.69098
      vertex 27.6495 -4.58778 -1.84549
    endloop
  endfacet
  facet normal -0.187593 -0.794653 0.577352
    outer loop
      vertex 28.125 -4.95106 -2.19098
      vertex 27.6495 -4.58778 -1.84549
      vertex 27.9434 -4.95106 -2.25
    endloop
  endfacet
  facet normal -0.491124 -0.794654 0.356823
    outer loop
      vertex 27.9434 -4.95106 -2.25
      vertex 27.6495 -4.58778 -1.84549
      vertex 27.3556 -4.58778 -2.25
    endloop
  endfacet
  facet normal -0.491124 -0.794653 0.356824
    outer loop
      vertex 27.9434 -4.95106 -2.25
      vertex 27.3556 -4.58778 -2.25
      vertex 27.8311 -4.95106 -2.40451
    endloop
  endfacet
  facet normal -0.607063 -0.794654 -1.19975e-016
    outer loop
      vertex 27.8311 -4.95106 -2.40451
      vertex 27.3556 -4.58778 -2.25
      vertex 27.3556 -4.58778 -2.75
    endloop
  endfacet
  facet normal -0.607063 -0.794654 -1.19975e-016
    outer loop
      vertex 27.8311 -4.95106 -2.59549
      vertex 27.8311 -4.95106 -2.40451
      vertex 27.3556 -4.58778 -2.75
    endloop
  endfacet
  facet normal -0.491124 -0.794653 -0.356823
    outer loop
      vertex 27.6495 -4.58778 -3.15451
      vertex 27.8311 -4.95106 -2.59549
      vertex 27.3556 -4.58778 -2.75
    endloop
  endfacet
  facet normal -0.491124 -0.794654 -0.356824
    outer loop
      vertex 27.9434 -4.95106 -2.75
      vertex 27.8311 -4.95106 -2.59549
      vertex 27.6495 -4.58778 -3.15451
    endloop
  endfacet
  facet normal -0.187593 -0.794654 -0.577351
    outer loop
      vertex 28.125 -4.58778 -3.30902
      vertex 27.9434 -4.95106 -2.75
      vertex 27.6495 -4.58778 -3.15451
    endloop
  endfacet
  facet normal -0.187592 -0.794654 -0.577351
    outer loop
      vertex 28.125 -4.95106 -2.80902
      vertex 27.9434 -4.95106 -2.75
      vertex 28.125 -4.58778 -3.30902
    endloop
  endfacet
  facet normal 0.187593 -0.794654 -0.577351
    outer loop
      vertex 28.6005 -4.58778 -3.15451
      vertex 28.125 -4.95106 -2.80902
      vertex 28.125 -4.58778 -3.30902
    endloop
  endfacet
  facet normal 0.187593 -0.794653 -0.577352
    outer loop
      vertex 28.6005 -4.58778 -3.15451
      vertex 28.3066 -4.95106 -2.75
      vertex 28.125 -4.95106 -2.80902
    endloop
  endfacet
  facet normal 0.491124 -0.794654 -0.356823
    outer loop
      vertex 28.8944 -4.58778 -2.75
      vertex 28.3066 -4.95106 -2.75
      vertex 28.6005 -4.58778 -3.15451
    endloop
  endfacet
  facet normal 0.491124 -0.794653 -0.356824
    outer loop
      vertex 28.8944 -4.58778 -2.75
      vertex 28.4189 -4.95106 -2.59549
      vertex 28.3066 -4.95106 -2.75
    endloop
  endfacet
  facet normal 0.607063 -0.794654 1.19932e-016
    outer loop
      vertex 28.8944 -4.58778 -2.75
      vertex 28.8944 -4.58778 -2.25
      vertex 28.4189 -4.95106 -2.40451
    endloop
  endfacet
  facet normal 0.607063 -0.794654 1.19932e-016
    outer loop
      vertex 28.4189 -4.95106 -2.59549
      vertex 28.8944 -4.58778 -2.75
      vertex 28.4189 -4.95106 -2.40451
    endloop
  endfacet
  facet normal 0.491124 -0.794653 0.356823
    outer loop
      vertex 28.8944 -4.58778 -2.25
      vertex 28.6005 -4.58778 -1.84549
      vertex 28.4189 -4.95106 -2.40451
    endloop
  endfacet
  facet normal 0.491124 -0.794654 0.356824
    outer loop
      vertex 28.4189 -4.95106 -2.40451
      vertex 28.6005 -4.58778 -1.84549
      vertex 28.3066 -4.95106 -2.25
    endloop
  endfacet
  facet normal 0.187593 -0.794654 0.577351
    outer loop
      vertex 31.1005 -4.58778 -1.84549
      vertex 30.625 -4.58778 -1.69098
      vertex 30.8066 -4.95106 -2.25
    endloop
  endfacet
  facet normal 0.187592 -0.794654 0.577351
    outer loop
      vertex 30.8066 -4.95106 -2.25
      vertex 30.625 -4.58778 -1.69098
      vertex 30.625 -4.95106 -2.19098
    endloop
  endfacet
  facet normal -0.187593 -0.794654 0.577351
    outer loop
      vertex 30.625 -4.95106 -2.19098
      vertex 30.625 -4.58778 -1.69098
      vertex 30.1495 -4.58778 -1.84549
    endloop
  endfacet
  facet normal -0.187593 -0.794653 0.577352
    outer loop
      vertex 30.625 -4.95106 -2.19098
      vertex 30.1495 -4.58778 -1.84549
      vertex 30.4434 -4.95106 -2.25
    endloop
  endfacet
  facet normal -0.491124 -0.794654 0.356823
    outer loop
      vertex 30.4434 -4.95106 -2.25
      vertex 30.1495 -4.58778 -1.84549
      vertex 29.8556 -4.58778 -2.25
    endloop
  endfacet
  facet normal -0.491124 -0.794653 0.356824
    outer loop
      vertex 30.4434 -4.95106 -2.25
      vertex 29.8556 -4.58778 -2.25
      vertex 30.3311 -4.95106 -2.40451
    endloop
  endfacet
  facet normal -0.607063 -0.794654 -1.19975e-016
    outer loop
      vertex 30.3311 -4.95106 -2.40451
      vertex 29.8556 -4.58778 -2.25
      vertex 29.8556 -4.58778 -2.75
    endloop
  endfacet
  facet normal -0.607063 -0.794654 -1.19975e-016
    outer loop
      vertex 30.3311 -4.95106 -2.59549
      vertex 30.3311 -4.95106 -2.40451
      vertex 29.8556 -4.58778 -2.75
    endloop
  endfacet
  facet normal -0.491124 -0.794653 -0.356823
    outer loop
      vertex 30.1495 -4.58778 -3.15451
      vertex 30.3311 -4.95106 -2.59549
      vertex 29.8556 -4.58778 -2.75
    endloop
  endfacet
  facet normal -0.491124 -0.794654 -0.356824
    outer loop
      vertex 30.4434 -4.95106 -2.75
      vertex 30.3311 -4.95106 -2.59549
      vertex 30.1495 -4.58778 -3.15451
    endloop
  endfacet
  facet normal -0.187593 -0.794654 -0.577351
    outer loop
      vertex 30.625 -4.58778 -3.30902
      vertex 30.4434 -4.95106 -2.75
      vertex 30.1495 -4.58778 -3.15451
    endloop
  endfacet
  facet normal -0.187592 -0.794654 -0.577351
    outer loop
      vertex 30.625 -4.95106 -2.80902
      vertex 30.4434 -4.95106 -2.75
      vertex 30.625 -4.58778 -3.30902
    endloop
  endfacet
  facet normal 0.187593 -0.794654 -0.577351
    outer loop
      vertex 31.1005 -4.58778 -3.15451
      vertex 30.625 -4.95106 -2.80902
      vertex 30.625 -4.58778 -3.30902
    endloop
  endfacet
  facet normal 0.187593 -0.794653 -0.577352
    outer loop
      vertex 31.1005 -4.58778 -3.15451
      vertex 30.8066 -4.95106 -2.75
      vertex 30.625 -4.95106 -2.80902
    endloop
  endfacet
  facet normal 0.491124 -0.794654 -0.356823
    outer loop
      vertex 31.3944 -4.58778 -2.75
      vertex 30.8066 -4.95106 -2.75
      vertex 31.1005 -4.58778 -3.15451
    endloop
  endfacet
  facet normal 0.491124 -0.794653 -0.356824
    outer loop
      vertex 31.3944 -4.58778 -2.75
      vertex 30.9189 -4.95106 -2.59549
      vertex 30.8066 -4.95106 -2.75
    endloop
  endfacet
  facet normal 0.607063 -0.794654 1.19932e-016
    outer loop
      vertex 31.3944 -4.58778 -2.75
      vertex 31.3944 -4.58778 -2.25
      vertex 30.9189 -4.95106 -2.40451
    endloop
  endfacet
  facet normal 0.607063 -0.794654 1.19932e-016
    outer loop
      vertex 30.9189 -4.95106 -2.59549
      vertex 31.3944 -4.58778 -2.75
      vertex 30.9189 -4.95106 -2.40451
    endloop
  endfacet
  facet normal 0.491124 -0.794653 0.356823
    outer loop
      vertex 31.3944 -4.58778 -2.25
      vertex 31.1005 -4.58778 -1.84549
      vertex 30.9189 -4.95106 -2.40451
    endloop
  endfacet
  facet normal 0.491124 -0.794654 0.356824
    outer loop
      vertex 30.9189 -4.95106 -2.40451
      vertex 31.1005 -4.58778 -1.84549
      vertex 30.8066 -4.95106 -2.25
    endloop
  endfacet
  facet normal 0.187593 -0.794654 0.577351
    outer loop
      vertex 31.1005 -4.58778 -4.34549
      vertex 30.625 -4.58778 -4.19098
      vertex 30.8066 -4.95106 -4.75
    endloop
  endfacet
  facet normal 0.187592 -0.794654 0.577351
    outer loop
      vertex 30.8066 -4.95106 -4.75
      vertex 30.625 -4.58778 -4.19098
      vertex 30.625 -4.95106 -4.69098
    endloop
  endfacet
  facet normal -0.187593 -0.794654 0.577351
    outer loop
      vertex 30.625 -4.95106 -4.69098
      vertex 30.625 -4.58778 -4.19098
      vertex 30.1495 -4.58778 -4.34549
    endloop
  endfacet
  facet normal -0.187593 -0.794653 0.577352
    outer loop
      vertex 30.625 -4.95106 -4.69098
      vertex 30.1495 -4.58778 -4.34549
      vertex 30.4434 -4.95106 -4.75
    endloop
  endfacet
  facet normal -0.491124 -0.794654 0.356823
    outer loop
      vertex 30.4434 -4.95106 -4.75
      vertex 30.1495 -4.58778 -4.34549
      vertex 29.8556 -4.58778 -4.75
    endloop
  endfacet
  facet normal -0.491124 -0.794653 0.356824
    outer loop
      vertex 30.4434 -4.95106 -4.75
      vertex 29.8556 -4.58778 -4.75
      vertex 30.3311 -4.95106 -4.90451
    endloop
  endfacet
  facet normal -0.607063 -0.794654 -1.19975e-016
    outer loop
      vertex 30.3311 -4.95106 -4.90451
      vertex 29.8556 -4.58778 -4.75
      vertex 29.8556 -4.58778 -5.25
    endloop
  endfacet
  facet normal -0.607063 -0.794654 -1.19975e-016
    outer loop
      vertex 30.3311 -4.95106 -5.09549
      vertex 30.3311 -4.95106 -4.90451
      vertex 29.8556 -4.58778 -5.25
    endloop
  endfacet
  facet normal -0.491124 -0.794653 -0.356823
    outer loop
      vertex 30.1495 -4.58778 -5.65451
      vertex 30.3311 -4.95106 -5.09549
      vertex 29.8556 -4.58778 -5.25
    endloop
  endfacet
  facet normal -0.491124 -0.794654 -0.356824
    outer loop
      vertex 30.4434 -4.95106 -5.25
      vertex 30.3311 -4.95106 -5.09549
      vertex 30.1495 -4.58778 -5.65451
    endloop
  endfacet
  facet normal -0.187593 -0.794654 -0.577351
    outer loop
      vertex 30.625 -4.58778 -5.80902
      vertex 30.4434 -4.95106 -5.25
      vertex 30.1495 -4.58778 -5.65451
    endloop
  endfacet
  facet normal -0.187592 -0.794654 -0.577351
    outer loop
      vertex 30.625 -4.95106 -5.30902
      vertex 30.4434 -4.95106 -5.25
      vertex 30.625 -4.58778 -5.80902
    endloop
  endfacet
  facet normal 0.187593 -0.794654 -0.577351
    outer loop
      vertex 31.1005 -4.58778 -5.65451
      vertex 30.625 -4.95106 -5.30902
      vertex 30.625 -4.58778 -5.80902
    endloop
  endfacet
  facet normal 0.187593 -0.794653 -0.577352
    outer loop
      vertex 31.1005 -4.58778 -5.65451
      vertex 30.8066 -4.95106 -5.25
      vertex 30.625 -4.95106 -5.30902
    endloop
  endfacet
  facet normal 0.491124 -0.794654 -0.356823
    outer loop
      vertex 31.3944 -4.58778 -5.25
      vertex 30.8066 -4.95106 -5.25
      vertex 31.1005 -4.58778 -5.65451
    endloop
  endfacet
  facet normal 0.491124 -0.794653 -0.356824
    outer loop
      vertex 31.3944 -4.58778 -5.25
      vertex 30.9189 -4.95106 -5.09549
      vertex 30.8066 -4.95106 -5.25
    endloop
  endfacet
  facet normal 0.607063 -0.794654 1.19932e-016
    outer loop
      vertex 31.3944 -4.58778 -5.25
      vertex 31.3944 -4.58778 -4.75
      vertex 30.9189 -4.95106 -4.90451
    endloop
  endfacet
  facet normal 0.607063 -0.794654 1.19932e-016
    outer loop
      vertex 30.9189 -4.95106 -5.09549
      vertex 31.3944 -4.58778 -5.25
      vertex 30.9189 -4.95106 -4.90451
    endloop
  endfacet
  facet normal 0.491124 -0.794653 0.356823
    outer loop
      vertex 31.3944 -4.58778 -4.75
      vertex 31.1005 -4.58778 -4.34549
      vertex 30.9189 -4.95106 -4.90451
    endloop
  endfacet
  facet normal 0.491124 -0.794654 0.356824
    outer loop
      vertex 30.9189 -4.95106 -4.90451
      vertex 31.1005 -4.58778 -4.34549
      vertex 30.8066 -4.95106 -4.75
    endloop
  endfacet
  facet normal 1.77321e-016 -1 -2.71051e-020
    outer loop
      vertex 28.3066 -4.95106 -2.25
      vertex 28.125 -4.95106 -2.19098
      vertex 27.9434 -4.95106 -2.25
    endloop
  endfacet
  facet normal 1.77321e-016 -1 -2.71051e-020
    outer loop
      vertex 27.8311 -4.95106 -2.59549
      vertex 28.3066 -4.95106 -2.25
      vertex 27.8311 -4.95106 -2.40451
    endloop
  endfacet
  facet normal 1.77321e-016 -1 -2.71051e-020
    outer loop
      vertex 27.8311 -4.95106 -2.40451
      vertex 28.3066 -4.95106 -2.25
      vertex 27.9434 -4.95106 -2.25
    endloop
  endfacet
  facet normal 1.77321e-016 -1 -2.71051e-020
    outer loop
      vertex 27.9434 -4.95106 -2.75
      vertex 28.3066 -4.95106 -2.25
      vertex 27.8311 -4.95106 -2.59549
    endloop
  endfacet
  facet normal 1.77321e-016 -1 -2.71051e-020
    outer loop
      vertex 28.125 -4.95106 -2.80902
      vertex 28.3066 -4.95106 -2.25
      vertex 27.9434 -4.95106 -2.75
    endloop
  endfacet
  facet normal 1.77321e-016 -1 -2.71051e-020
    outer loop
      vertex 28.3066 -4.95106 -2.75
      vertex 28.3066 -4.95106 -2.25
      vertex 28.125 -4.95106 -2.80902
    endloop
  endfacet
  facet normal 1.77321e-016 -1 -2.71051e-020
    outer loop
      vertex 28.4189 -4.95106 -2.59549
      vertex 28.3066 -4.95106 -2.25
      vertex 28.3066 -4.95106 -2.75
    endloop
  endfacet
  facet normal 1.77321e-016 -1 -2.71051e-020
    outer loop
      vertex 28.4189 -4.95106 -2.40451
      vertex 28.3066 -4.95106 -2.25
      vertex 28.4189 -4.95106 -2.59549
    endloop
  endfacet
  facet normal 1.77321e-016 -1 -2.71051e-020
    outer loop
      vertex 30.8066 -4.95106 -2.25
      vertex 30.625 -4.95106 -2.19098
      vertex 30.4434 -4.95106 -2.25
    endloop
  endfacet
  facet normal 1.77321e-016 -1 -2.71051e-020
    outer loop
      vertex 30.3311 -4.95106 -2.59549
      vertex 30.8066 -4.95106 -2.25
      vertex 30.3311 -4.95106 -2.40451
    endloop
  endfacet
  facet normal 1.77321e-016 -1 -2.71051e-020
    outer loop
      vertex 30.3311 -4.95106 -2.40451
      vertex 30.8066 -4.95106 -2.25
      vertex 30.4434 -4.95106 -2.25
    endloop
  endfacet
  facet normal 1.77321e-016 -1 -2.71051e-020
    outer loop
      vertex 30.4434 -4.95106 -2.75
      vertex 30.8066 -4.95106 -2.25
      vertex 30.3311 -4.95106 -2.59549
    endloop
  endfacet
  facet normal 1.77321e-016 -1 -2.71051e-020
    outer loop
      vertex 30.625 -4.95106 -2.80902
      vertex 30.8066 -4.95106 -2.25
      vertex 30.4434 -4.95106 -2.75
    endloop
  endfacet
  facet normal 1.77321e-016 -1 -2.71051e-020
    outer loop
      vertex 30.8066 -4.95106 -2.75
      vertex 30.8066 -4.95106 -2.25
      vertex 30.625 -4.95106 -2.80902
    endloop
  endfacet
  facet normal 1.77321e-016 -1 -2.71051e-020
    outer loop
      vertex 30.9189 -4.95106 -2.59549
      vertex 30.8066 -4.95106 -2.25
      vertex 30.8066 -4.95106 -2.75
    endloop
  endfacet
  facet normal 1.77321e-016 -1 -2.71051e-020
    outer loop
      vertex 30.9189 -4.95106 -2.40451
      vertex 30.8066 -4.95106 -2.25
      vertex 30.9189 -4.95106 -2.59549
    endloop
  endfacet
  facet normal 1.77321e-016 -1 -2.71051e-020
    outer loop
      vertex 30.8066 -4.95106 -4.75
      vertex 30.625 -4.95106 -4.69098
      vertex 30.4434 -4.95106 -4.75
    endloop
  endfacet
  facet normal 1.77321e-016 -1 -2.71051e-020
    outer loop
      vertex 30.3311 -4.95106 -5.09549
      vertex 30.8066 -4.95106 -4.75
      vertex 30.3311 -4.95106 -4.90451
    endloop
  endfacet
  facet normal 1.77321e-016 -1 -2.71051e-020
    outer loop
      vertex 30.3311 -4.95106 -4.90451
      vertex 30.8066 -4.95106 -4.75
      vertex 30.4434 -4.95106 -4.75
    endloop
  endfacet
  facet normal 1.77321e-016 -1 -2.71051e-020
    outer loop
      vertex 30.4434 -4.95106 -5.25
      vertex 30.8066 -4.95106 -4.75
      vertex 30.3311 -4.95106 -5.09549
    endloop
  endfacet
  facet normal 1.77321e-016 -1 -2.71051e-020
    outer loop
      vertex 30.625 -4.95106 -5.30902
      vertex 30.8066 -4.95106 -4.75
      vertex 30.4434 -4.95106 -5.25
    endloop
  endfacet
  facet normal 1.77321e-016 -1 -2.71051e-020
    outer loop
      vertex 30.8066 -4.95106 -5.25
      vertex 30.8066 -4.95106 -4.75
      vertex 30.625 -4.95106 -5.30902
    endloop
  endfacet
  facet normal 1.77321e-016 -1 -2.71051e-020
    outer loop
      vertex 30.9189 -4.95106 -5.09549
      vertex 30.8066 -4.95106 -4.75
      vertex 30.8066 -4.95106 -5.25
    endloop
  endfacet
  facet normal 1.77321e-016 -1 -2.71051e-020
    outer loop
      vertex 30.9189 -4.95106 -4.90451
      vertex 30.8066 -4.95106 -4.75
      vertex 30.9189 -4.95106 -5.09549
    endloop
  endfacet
endsolid OpenSCAD_Model
