solid OpenSCAD_Model
  facet normal -2.22045e-016 -3.48654e-032 1
    outer loop
      vertex 6.25 -2 1.38778e-015
      vertex 3.14039e-016 -2 0
      vertex 6.28078e-016 -4 0
    endloop
  endfacet
  facet normal -2.22045e-016 -3.48654e-032 1
    outer loop
      vertex 6.25 -4 1.38778e-015
      vertex 6.25 -2 1.38778e-015
      vertex 6.28078e-016 -4 0
    endloop
  endfacet
  facet normal -1 -1.5702e-016 -1.97596e-016
    outer loop
      vertex 3.14039e-016 -2 0
      vertex 2.29e-015 -2 -10
      vertex 6.28078e-016 -4 0
    endloop
  endfacet
  facet normal -1 -1.5702e-016 -1.97596e-016
    outer loop
      vertex 6.28078e-016 -4 0
      vertex 2.29e-015 -2 -10
      vertex 2.60404e-015 -4 -10
    endloop
  endfacet
  facet normal -1.77321e-016 1 2.71051e-020
    outer loop
      vertex 3.14039e-016 -2 0
      vertex 6.25 -2 1.38778e-015
      vertex 2.29e-015 -2 -10
    endloop
  endfacet
  facet normal -1.77321e-016 1 2.71051e-020
    outer loop
      vertex 2.29e-015 -2 -10
      vertex 6.25 -2 1.38778e-015
      vertex 6.25 -2 -10
    endloop
  endfacet
  facet normal 1 1.5702e-016 1.97596e-016
    outer loop
      vertex 6.25 -2 -10
      vertex 6.25 -2 1.38778e-015
      vertex 6.25 -4 1.38778e-015
    endloop
  endfacet
  facet normal 1 1.5702e-016 1.97596e-016
    outer loop
      vertex 6.25 -4 -10
      vertex 6.25 -2 -10
      vertex 6.25 -4 1.38778e-015
    endloop
  endfacet
  facet normal 1.77321e-016 -1 -2.71051e-020
    outer loop
      vertex 0.923943 -4 -2.80902
      vertex 6.28078e-016 -4 0
      vertex 2.60404e-015 -4 -10
    endloop
  endfacet
  facet normal 1.77321e-016 -1 -2.71051e-020
    outer loop
      vertex 6.25 -4 -10
      vertex 6.25 -4 1.38778e-015
      vertex 2.60404e-015 -4 -10
    endloop
  endfacet
  facet normal 1.77321e-016 -1 -2.71051e-020
    outer loop
      vertex 6.25 -4 1.38778e-015
      vertex 6.28078e-016 -4 0
      vertex 1.28722 -4 -1.69098
    endloop
  endfacet
  facet normal 1.77321e-016 -1 -2.71051e-020
    outer loop
      vertex 1.28722 -4 -3.30902
      vertex 0.923943 -4 -2.80902
      vertex 2.60404e-015 -4 -10
    endloop
  endfacet
  facet normal 1.77321e-016 -1 -2.71051e-020
    outer loop
      vertex 6.25 -4 1.38778e-015
      vertex 1.28722 -4 -1.69098
      vertex 1.875 -4 -1.5
    endloop
  endfacet
  facet normal 1.77321e-016 -1 -2.71051e-020
    outer loop
      vertex 1.875 -4 -3.5
      vertex 1.28722 -4 -3.30902
      vertex 2.60404e-015 -4 -10
    endloop
  endfacet
  facet normal 1.77321e-016 -1 -2.71051e-020
    outer loop
      vertex 6.25 -4 1.38778e-015
      vertex 1.875 -4 -1.5
      vertex 2.46279 -4 -1.69098
    endloop
  endfacet
  facet normal 1.77321e-016 -1 -2.71051e-020
    outer loop
      vertex 6.25 -4 1.38778e-015
      vertex 2.46279 -4 -1.69098
      vertex 2.82606 -4 -2.19098
    endloop
  endfacet
  facet normal 1.77321e-016 -1 -2.71051e-020
    outer loop
      vertex 6.25 -4 1.38778e-015
      vertex 2.82606 -4 -2.80902
      vertex 2.60404e-015 -4 -10
    endloop
  endfacet
  facet normal 1.77321e-016 -1 -2.71051e-020
    outer loop
      vertex 6.25 -4 1.38778e-015
      vertex 2.82606 -4 -2.19098
      vertex 2.82606 -4 -2.80902
    endloop
  endfacet
  facet normal 1.77321e-016 -1 -2.71051e-020
    outer loop
      vertex 2.82606 -4 -2.80902
      vertex 2.46279 -4 -3.30902
      vertex 2.60404e-015 -4 -10
    endloop
  endfacet
  facet normal 1.77321e-016 -1 -2.71051e-020
    outer loop
      vertex 0.923943 -4 -2.19098
      vertex 6.28078e-016 -4 0
      vertex 0.923943 -4 -2.80902
    endloop
  endfacet
  facet normal 1.77321e-016 -1 -2.71051e-020
    outer loop
      vertex 1.28722 -4 -1.69098
      vertex 6.28078e-016 -4 0
      vertex 0.923943 -4 -2.19098
    endloop
  endfacet
  facet normal 1.77321e-016 -1 -2.71051e-020
    outer loop
      vertex 2.46279 -4 -3.30902
      vertex 1.875 -4 -3.5
      vertex 2.60404e-015 -4 -10
    endloop
  endfacet
  facet normal 2.22045e-016 3.48654e-032 -1
    outer loop
      vertex 2.29e-015 -2 -10
      vertex 6.25 -2 -10
      vertex 2.60404e-015 -4 -10
    endloop
  endfacet
  facet normal 2.22045e-016 3.48654e-032 -1
    outer loop
      vertex 2.60404e-015 -4 -10
      vertex 6.25 -2 -10
      vertex 6.25 -4 -10
    endloop
  endfacet
  facet normal -0.295242 -0.295242 0.908661
    outer loop
      vertex 1.875 -4.58778 -1.69098
      vertex 1.875 -4 -1.5
      vertex 1.28722 -4 -1.69098
    endloop
  endfacet
  facet normal -0.295243 -0.295243 0.90866
    outer loop
      vertex 1.875 -4.58778 -1.69098
      vertex 1.28722 -4 -1.69098
      vertex 1.39947 -4.58778 -1.84549
    endloop
  endfacet
  facet normal -0.772952 -0.295242 0.561584
    outer loop
      vertex 1.39947 -4.58778 -1.84549
      vertex 1.28722 -4 -1.69098
      vertex 0.923943 -4 -2.19098
    endloop
  endfacet
  facet normal -0.772952 -0.295242 0.561584
    outer loop
      vertex 1.10558 -4.58778 -2.25
      vertex 1.39947 -4.58778 -1.84549
      vertex 0.923943 -4 -2.19098
    endloop
  endfacet
  facet normal -0.955422 -0.295242 -1.88795e-016
    outer loop
      vertex 0.923943 -4 -2.19098
      vertex 0.923943 -4 -2.80902
      vertex 1.10558 -4.58778 -2.25
    endloop
  endfacet
  facet normal -0.955422 -0.295242 -1.88795e-016
    outer loop
      vertex 1.10558 -4.58778 -2.25
      vertex 0.923943 -4 -2.80902
      vertex 1.10558 -4.58778 -2.75
    endloop
  endfacet
  facet normal -0.772952 -0.295242 -0.561584
    outer loop
      vertex 1.28722 -4 -3.30902
      vertex 1.10558 -4.58778 -2.75
      vertex 0.923943 -4 -2.80902
    endloop
  endfacet
  facet normal -0.772952 -0.295242 -0.561584
    outer loop
      vertex 1.39947 -4.58778 -3.15451
      vertex 1.10558 -4.58778 -2.75
      vertex 1.28722 -4 -3.30902
    endloop
  endfacet
  facet normal -0.295242 -0.295243 -0.908661
    outer loop
      vertex 1.875 -4 -3.5
      vertex 1.39947 -4.58778 -3.15451
      vertex 1.28722 -4 -3.30902
    endloop
  endfacet
  facet normal -0.295243 -0.295242 -0.908661
    outer loop
      vertex 1.875 -4.58778 -3.30902
      vertex 1.39947 -4.58778 -3.15451
      vertex 1.875 -4 -3.5
    endloop
  endfacet
  facet normal 0.295242 -0.295242 -0.908661
    outer loop
      vertex 2.46279 -4 -3.30902
      vertex 1.875 -4.58778 -3.30902
      vertex 1.875 -4 -3.5
    endloop
  endfacet
  facet normal 0.772952 -0.295242 -0.561584
    outer loop
      vertex 2.46279 -4 -3.30902
      vertex 2.82606 -4 -2.80902
      vertex 2.35053 -4.58778 -3.15451
    endloop
  endfacet
  facet normal 0.295243 -0.295243 -0.90866
    outer loop
      vertex 2.46279 -4 -3.30902
      vertex 2.35053 -4.58778 -3.15451
      vertex 1.875 -4.58778 -3.30902
    endloop
  endfacet
  facet normal 0.955422 -0.295242 1.88779e-016
    outer loop
      vertex 2.82606 -4 -2.80902
      vertex 2.82606 -4 -2.19098
      vertex 2.64442 -4.58778 -2.25
    endloop
  endfacet
  facet normal 0.955422 -0.295242 1.88779e-016
    outer loop
      vertex 2.64442 -4.58778 -2.75
      vertex 2.82606 -4 -2.80902
      vertex 2.64442 -4.58778 -2.25
    endloop
  endfacet
  facet normal 0.772952 -0.295242 -0.561584
    outer loop
      vertex 2.82606 -4 -2.80902
      vertex 2.64442 -4.58778 -2.75
      vertex 2.35053 -4.58778 -3.15451
    endloop
  endfacet
  facet normal 0.772952 -0.295242 0.561584
    outer loop
      vertex 2.82606 -4 -2.19098
      vertex 2.46279 -4 -1.69098
      vertex 2.64442 -4.58778 -2.25
    endloop
  endfacet
  facet normal 0.295242 -0.295243 0.908661
    outer loop
      vertex 2.46279 -4 -1.69098
      vertex 1.875 -4 -1.5
      vertex 2.35053 -4.58778 -1.84549
    endloop
  endfacet
  facet normal 0.772952 -0.295242 0.561584
    outer loop
      vertex 2.64442 -4.58778 -2.25
      vertex 2.46279 -4 -1.69098
      vertex 2.35053 -4.58778 -1.84549
    endloop
  endfacet
  facet normal 0.295243 -0.295242 0.908661
    outer loop
      vertex 2.35053 -4.58778 -1.84549
      vertex 1.875 -4 -1.5
      vertex 1.875 -4.58778 -1.69098
    endloop
  endfacet
  facet normal 0.187593 -0.794654 0.577351
    outer loop
      vertex 2.35053 -4.58778 -1.84549
      vertex 1.875 -4.58778 -1.69098
      vertex 2.05664 -4.95106 -2.25
    endloop
  endfacet
  facet normal 0.187592 -0.794654 0.577351
    outer loop
      vertex 2.05664 -4.95106 -2.25
      vertex 1.875 -4.58778 -1.69098
      vertex 1.875 -4.95106 -2.19098
    endloop
  endfacet
  facet normal -0.187593 -0.794654 0.577351
    outer loop
      vertex 1.875 -4.95106 -2.19098
      vertex 1.875 -4.58778 -1.69098
      vertex 1.39947 -4.58778 -1.84549
    endloop
  endfacet
  facet normal -0.187593 -0.794653 0.577352
    outer loop
      vertex 1.875 -4.95106 -2.19098
      vertex 1.39947 -4.58778 -1.84549
      vertex 1.69336 -4.95106 -2.25
    endloop
  endfacet
  facet normal -0.491124 -0.794654 0.356823
    outer loop
      vertex 1.69336 -4.95106 -2.25
      vertex 1.39947 -4.58778 -1.84549
      vertex 1.10558 -4.58778 -2.25
    endloop
  endfacet
  facet normal -0.491124 -0.794653 0.356824
    outer loop
      vertex 1.69336 -4.95106 -2.25
      vertex 1.10558 -4.58778 -2.25
      vertex 1.58111 -4.95106 -2.40451
    endloop
  endfacet
  facet normal -0.607063 -0.794654 -1.19975e-016
    outer loop
      vertex 1.58111 -4.95106 -2.40451
      vertex 1.10558 -4.58778 -2.25
      vertex 1.10558 -4.58778 -2.75
    endloop
  endfacet
  facet normal -0.607063 -0.794654 -1.19975e-016
    outer loop
      vertex 1.58111 -4.95106 -2.59549
      vertex 1.58111 -4.95106 -2.40451
      vertex 1.10558 -4.58778 -2.75
    endloop
  endfacet
  facet normal -0.491124 -0.794653 -0.356823
    outer loop
      vertex 1.39947 -4.58778 -3.15451
      vertex 1.58111 -4.95106 -2.59549
      vertex 1.10558 -4.58778 -2.75
    endloop
  endfacet
  facet normal -0.491124 -0.794654 -0.356824
    outer loop
      vertex 1.69336 -4.95106 -2.75
      vertex 1.58111 -4.95106 -2.59549
      vertex 1.39947 -4.58778 -3.15451
    endloop
  endfacet
  facet normal -0.187593 -0.794654 -0.577351
    outer loop
      vertex 1.875 -4.58778 -3.30902
      vertex 1.69336 -4.95106 -2.75
      vertex 1.39947 -4.58778 -3.15451
    endloop
  endfacet
  facet normal -0.187592 -0.794654 -0.577351
    outer loop
      vertex 1.875 -4.95106 -2.80902
      vertex 1.69336 -4.95106 -2.75
      vertex 1.875 -4.58778 -3.30902
    endloop
  endfacet
  facet normal 0.187593 -0.794654 -0.577351
    outer loop
      vertex 2.35053 -4.58778 -3.15451
      vertex 1.875 -4.95106 -2.80902
      vertex 1.875 -4.58778 -3.30902
    endloop
  endfacet
  facet normal 0.187593 -0.794653 -0.577352
    outer loop
      vertex 2.35053 -4.58778 -3.15451
      vertex 2.05664 -4.95106 -2.75
      vertex 1.875 -4.95106 -2.80902
    endloop
  endfacet
  facet normal 0.491124 -0.794654 -0.356823
    outer loop
      vertex 2.64442 -4.58778 -2.75
      vertex 2.05664 -4.95106 -2.75
      vertex 2.35053 -4.58778 -3.15451
    endloop
  endfacet
  facet normal 0.491124 -0.794653 -0.356824
    outer loop
      vertex 2.64442 -4.58778 -2.75
      vertex 2.16889 -4.95106 -2.59549
      vertex 2.05664 -4.95106 -2.75
    endloop
  endfacet
  facet normal 0.607063 -0.794654 1.19932e-016
    outer loop
      vertex 2.64442 -4.58778 -2.75
      vertex 2.64442 -4.58778 -2.25
      vertex 2.16889 -4.95106 -2.40451
    endloop
  endfacet
  facet normal 0.607063 -0.794654 1.19932e-016
    outer loop
      vertex 2.16889 -4.95106 -2.59549
      vertex 2.64442 -4.58778 -2.75
      vertex 2.16889 -4.95106 -2.40451
    endloop
  endfacet
  facet normal 0.491124 -0.794653 0.356823
    outer loop
      vertex 2.64442 -4.58778 -2.25
      vertex 2.35053 -4.58778 -1.84549
      vertex 2.16889 -4.95106 -2.40451
    endloop
  endfacet
  facet normal 0.491124 -0.794654 0.356824
    outer loop
      vertex 2.16889 -4.95106 -2.40451
      vertex 2.35053 -4.58778 -1.84549
      vertex 2.05664 -4.95106 -2.25
    endloop
  endfacet
  facet normal 1.77321e-016 -1 -2.71051e-020
    outer loop
      vertex 2.05664 -4.95106 -2.25
      vertex 1.875 -4.95106 -2.19098
      vertex 1.69336 -4.95106 -2.25
    endloop
  endfacet
  facet normal 1.77321e-016 -1 -2.71051e-020
    outer loop
      vertex 1.58111 -4.95106 -2.59549
      vertex 2.05664 -4.95106 -2.25
      vertex 1.58111 -4.95106 -2.40451
    endloop
  endfacet
  facet normal 1.77321e-016 -1 -2.71051e-020
    outer loop
      vertex 1.58111 -4.95106 -2.40451
      vertex 2.05664 -4.95106 -2.25
      vertex 1.69336 -4.95106 -2.25
    endloop
  endfacet
  facet normal 1.77321e-016 -1 -2.71051e-020
    outer loop
      vertex 1.69336 -4.95106 -2.75
      vertex 2.05664 -4.95106 -2.25
      vertex 1.58111 -4.95106 -2.59549
    endloop
  endfacet
  facet normal 1.77321e-016 -1 -2.71051e-020
    outer loop
      vertex 1.875 -4.95106 -2.80902
      vertex 2.05664 -4.95106 -2.25
      vertex 1.69336 -4.95106 -2.75
    endloop
  endfacet
  facet normal 1.77321e-016 -1 -2.71051e-020
    outer loop
      vertex 2.05664 -4.95106 -2.75
      vertex 2.05664 -4.95106 -2.25
      vertex 1.875 -4.95106 -2.80902
    endloop
  endfacet
  facet normal 1.77321e-016 -1 -2.71051e-020
    outer loop
      vertex 2.16889 -4.95106 -2.59549
      vertex 2.05664 -4.95106 -2.25
      vertex 2.05664 -4.95106 -2.75
    endloop
  endfacet
  facet normal 1.77321e-016 -1 -2.71051e-020
    outer loop
      vertex 2.16889 -4.95106 -2.40451
      vertex 2.05664 -4.95106 -2.25
      vertex 2.16889 -4.95106 -2.59549
    endloop
  endfacet
  facet normal -2.22045e-016 -3.48654e-032 1
    outer loop
      vertex 25 -2 5.55112e-015
      vertex 18.75 -2 4.16334e-015
      vertex 18.75 -4 4.16334e-015
    endloop
  endfacet
  facet normal -2.22045e-016 -3.48654e-032 1
    outer loop
      vertex 25 -4 5.55112e-015
      vertex 25 -2 5.55112e-015
      vertex 18.75 -4 4.16334e-015
    endloop
  endfacet
  facet normal -1 -1.5702e-016 -1.97596e-016
    outer loop
      vertex 18.75 -2 4.16334e-015
      vertex 18.75 -2 -10
      vertex 18.75 -4 4.16334e-015
    endloop
  endfacet
  facet normal -1 -1.5702e-016 -1.97596e-016
    outer loop
      vertex 18.75 -4 4.16334e-015
      vertex 18.75 -2 -10
      vertex 18.75 -4 -10
    endloop
  endfacet
  facet normal -1.77321e-016 1 2.71051e-020
    outer loop
      vertex 18.75 -2 4.16334e-015
      vertex 25 -2 5.55112e-015
      vertex 18.75 -2 -10
    endloop
  endfacet
  facet normal -1.77321e-016 1 2.71051e-020
    outer loop
      vertex 18.75 -2 -10
      vertex 25 -2 5.55112e-015
      vertex 25 -2 -10
    endloop
  endfacet
  facet normal 1 1.5702e-016 1.97596e-016
    outer loop
      vertex 25 -2 -10
      vertex 25 -2 5.55112e-015
      vertex 25 -4 5.55112e-015
    endloop
  endfacet
  facet normal 1 1.5702e-016 1.97596e-016
    outer loop
      vertex 25 -4 -10
      vertex 25 -2 -10
      vertex 25 -4 5.55112e-015
    endloop
  endfacet
  facet normal 1.77321e-016 -1 -2.71051e-020
    outer loop
      vertex 19.6739 -4 -2.80902
      vertex 18.75 -4 4.16334e-015
      vertex 18.75 -4 -10
    endloop
  endfacet
  facet normal 1.77321e-016 -1 -2.71051e-020
    outer loop
      vertex 25 -4 -10
      vertex 25 -4 5.55112e-015
      vertex 18.75 -4 -10
    endloop
  endfacet
  facet normal 1.77321e-016 -1 -2.71051e-020
    outer loop
      vertex 25 -4 5.55112e-015
      vertex 18.75 -4 4.16334e-015
      vertex 20.0372 -4 -1.69098
    endloop
  endfacet
  facet normal 1.77321e-016 -1 -2.71051e-020
    outer loop
      vertex 20.0372 -4 -3.30902
      vertex 19.6739 -4 -2.80902
      vertex 19.6739 -4 -4.69098
    endloop
  endfacet
  facet normal 1.77321e-016 -1 -2.71051e-020
    outer loop
      vertex 25 -4 5.55112e-015
      vertex 20.0372 -4 -1.69098
      vertex 20.625 -4 -1.5
    endloop
  endfacet
  facet normal 1.77321e-016 -1 -2.71051e-020
    outer loop
      vertex 25 -4 5.55112e-015
      vertex 20.625 -4 -1.5
      vertex 21.2128 -4 -1.69098
    endloop
  endfacet
  facet normal 1.77321e-016 -1 -2.71051e-020
    outer loop
      vertex 25 -4 5.55112e-015
      vertex 21.2128 -4 -1.69098
      vertex 21.5761 -4 -2.19098
    endloop
  endfacet
  facet normal 1.77321e-016 -1 -2.71051e-020
    outer loop
      vertex 25 -4 5.55112e-015
      vertex 21.5761 -4 -2.19098
      vertex 21.5761 -4 -2.80902
    endloop
  endfacet
  facet normal 1.77321e-016 -1 -2.71051e-020
    outer loop
      vertex 21.2128 -4 -5.80902
      vertex 20.625 -4 -6
      vertex 18.75 -4 -10
    endloop
  endfacet
  facet normal 1.77321e-016 -1 -2.71051e-020
    outer loop
      vertex 19.6739 -4 -5.30902
      vertex 19.6739 -4 -4.69098
      vertex 18.75 -4 -10
    endloop
  endfacet
  facet normal 1.77321e-016 -1 -2.71051e-020
    outer loop
      vertex 19.6739 -4 -2.19098
      vertex 18.75 -4 4.16334e-015
      vertex 19.6739 -4 -2.80902
    endloop
  endfacet
  facet normal 1.77321e-016 -1 -2.71051e-020
    outer loop
      vertex 20.0372 -4 -1.69098
      vertex 18.75 -4 4.16334e-015
      vertex 19.6739 -4 -2.19098
    endloop
  endfacet
  facet normal 1.77321e-016 -1 -2.71051e-020
    outer loop
      vertex 20.625 -4 -4
      vertex 21.2128 -4 -4.19098
      vertex 21.2128 -4 -3.30902
    endloop
  endfacet
  facet normal 1.77321e-016 -1 -2.71051e-020
    outer loop
      vertex 20.625 -4 -3.5
      vertex 20.0372 -4 -3.30902
      vertex 20.0372 -4 -4.19098
    endloop
  endfacet
  facet normal 1.77321e-016 -1 -2.71051e-020
    outer loop
      vertex 25 -4 5.55112e-015
      vertex 21.5761 -4 -2.80902
      vertex 21.2128 -4 -4.19098
    endloop
  endfacet
  facet normal 1.77321e-016 -1 -2.71051e-020
    outer loop
      vertex 25 -4 5.55112e-015
      vertex 21.2128 -4 -4.19098
      vertex 21.5761 -4 -4.69098
    endloop
  endfacet
  facet normal 1.77321e-016 -1 -2.71051e-020
    outer loop
      vertex 25 -4 5.55112e-015
      vertex 21.5761 -4 -5.30902
      vertex 18.75 -4 -10
    endloop
  endfacet
  facet normal 1.77321e-016 -1 -2.71051e-020
    outer loop
      vertex 25 -4 5.55112e-015
      vertex 21.5761 -4 -4.69098
      vertex 21.5761 -4 -5.30902
    endloop
  endfacet
  facet normal 1.77321e-016 -1 -2.71051e-020
    outer loop
      vertex 21.5761 -4 -5.30902
      vertex 21.2128 -4 -5.80902
      vertex 18.75 -4 -10
    endloop
  endfacet
  facet normal 1.77321e-016 -1 -2.71051e-020
    outer loop
      vertex 19.6739 -4 -4.69098
      vertex 19.6739 -4 -2.80902
      vertex 18.75 -4 -10
    endloop
  endfacet
  facet normal 1.77321e-016 -1 -2.71051e-020
    outer loop
      vertex 20.0372 -4 -4.19098
      vertex 20.625 -4 -4
      vertex 20.625 -4 -3.5
    endloop
  endfacet
  facet normal 1.77321e-016 -1 -2.71051e-020
    outer loop
      vertex 19.6739 -4 -4.69098
      vertex 20.0372 -4 -4.19098
      vertex 20.0372 -4 -3.30902
    endloop
  endfacet
  facet normal 1.77321e-016 -1 -2.71051e-020
    outer loop
      vertex 20.625 -4 -6
      vertex 20.0372 -4 -5.80902
      vertex 18.75 -4 -10
    endloop
  endfacet
  facet normal 1.77321e-016 -1 -2.71051e-020
    outer loop
      vertex 21.2128 -4 -3.30902
      vertex 21.2128 -4 -4.19098
      vertex 21.5761 -4 -2.80902
    endloop
  endfacet
  facet normal 1.77321e-016 -1 -2.71051e-020
    outer loop
      vertex 20.0372 -4 -5.80902
      vertex 19.6739 -4 -5.30902
      vertex 18.75 -4 -10
    endloop
  endfacet
  facet normal 1.77321e-016 -1 -2.71051e-020
    outer loop
      vertex 21.2128 -4 -3.30902
      vertex 20.625 -4 -3.5
      vertex 20.625 -4 -4
    endloop
  endfacet
  facet normal 2.22045e-016 3.48654e-032 -1
    outer loop
      vertex 18.75 -2 -10
      vertex 25 -2 -10
      vertex 18.75 -4 -10
    endloop
  endfacet
  facet normal 2.22045e-016 3.48654e-032 -1
    outer loop
      vertex 18.75 -4 -10
      vertex 25 -2 -10
      vertex 25 -4 -10
    endloop
  endfacet
  facet normal -0.295242 -0.295242 0.908661
    outer loop
      vertex 20.625 -4.58778 -1.69098
      vertex 20.625 -4 -1.5
      vertex 20.0372 -4 -1.69098
    endloop
  endfacet
  facet normal -0.295243 -0.295243 0.90866
    outer loop
      vertex 20.625 -4.58778 -1.69098
      vertex 20.0372 -4 -1.69098
      vertex 20.1495 -4.58778 -1.84549
    endloop
  endfacet
  facet normal -0.772952 -0.295242 0.561584
    outer loop
      vertex 20.1495 -4.58778 -1.84549
      vertex 20.0372 -4 -1.69098
      vertex 19.6739 -4 -2.19098
    endloop
  endfacet
  facet normal -0.772952 -0.295242 0.561584
    outer loop
      vertex 19.8556 -4.58778 -2.25
      vertex 20.1495 -4.58778 -1.84549
      vertex 19.6739 -4 -2.19098
    endloop
  endfacet
  facet normal -0.955422 -0.295242 -1.88795e-016
    outer loop
      vertex 19.6739 -4 -2.19098
      vertex 19.6739 -4 -2.80902
      vertex 19.8556 -4.58778 -2.25
    endloop
  endfacet
  facet normal -0.955422 -0.295242 -1.88795e-016
    outer loop
      vertex 19.8556 -4.58778 -2.25
      vertex 19.6739 -4 -2.80902
      vertex 19.8556 -4.58778 -2.75
    endloop
  endfacet
  facet normal -0.772952 -0.295242 -0.561584
    outer loop
      vertex 20.0372 -4 -3.30902
      vertex 19.8556 -4.58778 -2.75
      vertex 19.6739 -4 -2.80902
    endloop
  endfacet
  facet normal -0.772952 -0.295242 -0.561584
    outer loop
      vertex 20.1495 -4.58778 -3.15451
      vertex 19.8556 -4.58778 -2.75
      vertex 20.0372 -4 -3.30902
    endloop
  endfacet
  facet normal -0.295242 -0.295243 -0.908661
    outer loop
      vertex 20.625 -4 -3.5
      vertex 20.1495 -4.58778 -3.15451
      vertex 20.0372 -4 -3.30902
    endloop
  endfacet
  facet normal -0.295243 -0.295242 -0.908661
    outer loop
      vertex 20.625 -4.58778 -3.30902
      vertex 20.1495 -4.58778 -3.15451
      vertex 20.625 -4 -3.5
    endloop
  endfacet
  facet normal 0.295242 -0.295242 -0.908661
    outer loop
      vertex 21.2128 -4 -3.30902
      vertex 20.625 -4.58778 -3.30902
      vertex 20.625 -4 -3.5
    endloop
  endfacet
  facet normal 0.772952 -0.295242 -0.561584
    outer loop
      vertex 21.2128 -4 -3.30902
      vertex 21.5761 -4 -2.80902
      vertex 21.1005 -4.58778 -3.15451
    endloop
  endfacet
  facet normal 0.295243 -0.295243 -0.90866
    outer loop
      vertex 21.2128 -4 -3.30902
      vertex 21.1005 -4.58778 -3.15451
      vertex 20.625 -4.58778 -3.30902
    endloop
  endfacet
  facet normal 0.955422 -0.295242 1.88779e-016
    outer loop
      vertex 21.5761 -4 -2.80902
      vertex 21.5761 -4 -2.19098
      vertex 21.3944 -4.58778 -2.25
    endloop
  endfacet
  facet normal 0.955422 -0.295242 1.88779e-016
    outer loop
      vertex 21.3944 -4.58778 -2.75
      vertex 21.5761 -4 -2.80902
      vertex 21.3944 -4.58778 -2.25
    endloop
  endfacet
  facet normal 0.772952 -0.295242 -0.561584
    outer loop
      vertex 21.5761 -4 -2.80902
      vertex 21.3944 -4.58778 -2.75
      vertex 21.1005 -4.58778 -3.15451
    endloop
  endfacet
  facet normal 0.772952 -0.295242 0.561584
    outer loop
      vertex 21.5761 -4 -2.19098
      vertex 21.2128 -4 -1.69098
      vertex 21.3944 -4.58778 -2.25
    endloop
  endfacet
  facet normal 0.295242 -0.295243 0.908661
    outer loop
      vertex 21.2128 -4 -1.69098
      vertex 20.625 -4 -1.5
      vertex 21.1005 -4.58778 -1.84549
    endloop
  endfacet
  facet normal 0.772952 -0.295242 0.561584
    outer loop
      vertex 21.3944 -4.58778 -2.25
      vertex 21.2128 -4 -1.69098
      vertex 21.1005 -4.58778 -1.84549
    endloop
  endfacet
  facet normal 0.295243 -0.295242 0.908661
    outer loop
      vertex 21.1005 -4.58778 -1.84549
      vertex 20.625 -4 -1.5
      vertex 20.625 -4.58778 -1.69098
    endloop
  endfacet
  facet normal -0.295242 -0.295242 0.908661
    outer loop
      vertex 20.625 -4.58778 -4.19098
      vertex 20.625 -4 -4
      vertex 20.0372 -4 -4.19098
    endloop
  endfacet
  facet normal -0.295243 -0.295243 0.90866
    outer loop
      vertex 20.625 -4.58778 -4.19098
      vertex 20.0372 -4 -4.19098
      vertex 20.1495 -4.58778 -4.34549
    endloop
  endfacet
  facet normal -0.772952 -0.295242 0.561584
    outer loop
      vertex 20.1495 -4.58778 -4.34549
      vertex 20.0372 -4 -4.19098
      vertex 19.6739 -4 -4.69098
    endloop
  endfacet
  facet normal -0.772952 -0.295242 0.561584
    outer loop
      vertex 19.8556 -4.58778 -4.75
      vertex 20.1495 -4.58778 -4.34549
      vertex 19.6739 -4 -4.69098
    endloop
  endfacet
  facet normal -0.955422 -0.295242 -1.88795e-016
    outer loop
      vertex 19.6739 -4 -4.69098
      vertex 19.6739 -4 -5.30902
      vertex 19.8556 -4.58778 -4.75
    endloop
  endfacet
  facet normal -0.955422 -0.295242 -1.88795e-016
    outer loop
      vertex 19.8556 -4.58778 -4.75
      vertex 19.6739 -4 -5.30902
      vertex 19.8556 -4.58778 -5.25
    endloop
  endfacet
  facet normal -0.772952 -0.295242 -0.561584
    outer loop
      vertex 20.0372 -4 -5.80902
      vertex 19.8556 -4.58778 -5.25
      vertex 19.6739 -4 -5.30902
    endloop
  endfacet
  facet normal -0.772952 -0.295242 -0.561584
    outer loop
      vertex 20.1495 -4.58778 -5.65451
      vertex 19.8556 -4.58778 -5.25
      vertex 20.0372 -4 -5.80902
    endloop
  endfacet
  facet normal -0.295242 -0.295243 -0.908661
    outer loop
      vertex 20.625 -4 -6
      vertex 20.1495 -4.58778 -5.65451
      vertex 20.0372 -4 -5.80902
    endloop
  endfacet
  facet normal -0.295243 -0.295242 -0.908661
    outer loop
      vertex 20.625 -4.58778 -5.80902
      vertex 20.1495 -4.58778 -5.65451
      vertex 20.625 -4 -6
    endloop
  endfacet
  facet normal 0.295242 -0.295242 -0.908661
    outer loop
      vertex 21.2128 -4 -5.80902
      vertex 20.625 -4.58778 -5.80902
      vertex 20.625 -4 -6
    endloop
  endfacet
  facet normal 0.772952 -0.295242 -0.561584
    outer loop
      vertex 21.2128 -4 -5.80902
      vertex 21.5761 -4 -5.30902
      vertex 21.1005 -4.58778 -5.65451
    endloop
  endfacet
  facet normal 0.295243 -0.295243 -0.90866
    outer loop
      vertex 21.2128 -4 -5.80902
      vertex 21.1005 -4.58778 -5.65451
      vertex 20.625 -4.58778 -5.80902
    endloop
  endfacet
  facet normal 0.955422 -0.295242 1.88779e-016
    outer loop
      vertex 21.5761 -4 -5.30902
      vertex 21.5761 -4 -4.69098
      vertex 21.3944 -4.58778 -4.75
    endloop
  endfacet
  facet normal 0.955422 -0.295242 1.88779e-016
    outer loop
      vertex 21.3944 -4.58778 -5.25
      vertex 21.5761 -4 -5.30902
      vertex 21.3944 -4.58778 -4.75
    endloop
  endfacet
  facet normal 0.772952 -0.295242 -0.561584
    outer loop
      vertex 21.5761 -4 -5.30902
      vertex 21.3944 -4.58778 -5.25
      vertex 21.1005 -4.58778 -5.65451
    endloop
  endfacet
  facet normal 0.772952 -0.295242 0.561584
    outer loop
      vertex 21.5761 -4 -4.69098
      vertex 21.2128 -4 -4.19098
      vertex 21.3944 -4.58778 -4.75
    endloop
  endfacet
  facet normal 0.295242 -0.295243 0.908661
    outer loop
      vertex 21.2128 -4 -4.19098
      vertex 20.625 -4 -4
      vertex 21.1005 -4.58778 -4.34549
    endloop
  endfacet
  facet normal 0.772952 -0.295242 0.561584
    outer loop
      vertex 21.3944 -4.58778 -4.75
      vertex 21.2128 -4 -4.19098
      vertex 21.1005 -4.58778 -4.34549
    endloop
  endfacet
  facet normal 0.295243 -0.295242 0.908661
    outer loop
      vertex 21.1005 -4.58778 -4.34549
      vertex 20.625 -4 -4
      vertex 20.625 -4.58778 -4.19098
    endloop
  endfacet
  facet normal 0.187593 -0.794654 0.577351
    outer loop
      vertex 21.1005 -4.58778 -1.84549
      vertex 20.625 -4.58778 -1.69098
      vertex 20.8066 -4.95106 -2.25
    endloop
  endfacet
  facet normal 0.187592 -0.794654 0.577351
    outer loop
      vertex 20.8066 -4.95106 -2.25
      vertex 20.625 -4.58778 -1.69098
      vertex 20.625 -4.95106 -2.19098
    endloop
  endfacet
  facet normal -0.187593 -0.794654 0.577351
    outer loop
      vertex 20.625 -4.95106 -2.19098
      vertex 20.625 -4.58778 -1.69098
      vertex 20.1495 -4.58778 -1.84549
    endloop
  endfacet
  facet normal -0.187593 -0.794653 0.577352
    outer loop
      vertex 20.625 -4.95106 -2.19098
      vertex 20.1495 -4.58778 -1.84549
      vertex 20.4434 -4.95106 -2.25
    endloop
  endfacet
  facet normal -0.491124 -0.794654 0.356823
    outer loop
      vertex 20.4434 -4.95106 -2.25
      vertex 20.1495 -4.58778 -1.84549
      vertex 19.8556 -4.58778 -2.25
    endloop
  endfacet
  facet normal -0.491124 -0.794653 0.356824
    outer loop
      vertex 20.4434 -4.95106 -2.25
      vertex 19.8556 -4.58778 -2.25
      vertex 20.3311 -4.95106 -2.40451
    endloop
  endfacet
  facet normal -0.607063 -0.794654 -1.19975e-016
    outer loop
      vertex 20.3311 -4.95106 -2.40451
      vertex 19.8556 -4.58778 -2.25
      vertex 19.8556 -4.58778 -2.75
    endloop
  endfacet
  facet normal -0.607063 -0.794654 -1.19975e-016
    outer loop
      vertex 20.3311 -4.95106 -2.59549
      vertex 20.3311 -4.95106 -2.40451
      vertex 19.8556 -4.58778 -2.75
    endloop
  endfacet
  facet normal -0.491124 -0.794653 -0.356823
    outer loop
      vertex 20.1495 -4.58778 -3.15451
      vertex 20.3311 -4.95106 -2.59549
      vertex 19.8556 -4.58778 -2.75
    endloop
  endfacet
  facet normal -0.491124 -0.794654 -0.356824
    outer loop
      vertex 20.4434 -4.95106 -2.75
      vertex 20.3311 -4.95106 -2.59549
      vertex 20.1495 -4.58778 -3.15451
    endloop
  endfacet
  facet normal -0.187593 -0.794654 -0.577351
    outer loop
      vertex 20.625 -4.58778 -3.30902
      vertex 20.4434 -4.95106 -2.75
      vertex 20.1495 -4.58778 -3.15451
    endloop
  endfacet
  facet normal -0.187592 -0.794654 -0.577351
    outer loop
      vertex 20.625 -4.95106 -2.80902
      vertex 20.4434 -4.95106 -2.75
      vertex 20.625 -4.58778 -3.30902
    endloop
  endfacet
  facet normal 0.187593 -0.794654 -0.577351
    outer loop
      vertex 21.1005 -4.58778 -3.15451
      vertex 20.625 -4.95106 -2.80902
      vertex 20.625 -4.58778 -3.30902
    endloop
  endfacet
  facet normal 0.187593 -0.794653 -0.577352
    outer loop
      vertex 21.1005 -4.58778 -3.15451
      vertex 20.8066 -4.95106 -2.75
      vertex 20.625 -4.95106 -2.80902
    endloop
  endfacet
  facet normal 0.491124 -0.794654 -0.356823
    outer loop
      vertex 21.3944 -4.58778 -2.75
      vertex 20.8066 -4.95106 -2.75
      vertex 21.1005 -4.58778 -3.15451
    endloop
  endfacet
  facet normal 0.491124 -0.794653 -0.356824
    outer loop
      vertex 21.3944 -4.58778 -2.75
      vertex 20.9189 -4.95106 -2.59549
      vertex 20.8066 -4.95106 -2.75
    endloop
  endfacet
  facet normal 0.607063 -0.794654 1.19932e-016
    outer loop
      vertex 21.3944 -4.58778 -2.75
      vertex 21.3944 -4.58778 -2.25
      vertex 20.9189 -4.95106 -2.40451
    endloop
  endfacet
  facet normal 0.607063 -0.794654 1.19932e-016
    outer loop
      vertex 20.9189 -4.95106 -2.59549
      vertex 21.3944 -4.58778 -2.75
      vertex 20.9189 -4.95106 -2.40451
    endloop
  endfacet
  facet normal 0.491124 -0.794653 0.356823
    outer loop
      vertex 21.3944 -4.58778 -2.25
      vertex 21.1005 -4.58778 -1.84549
      vertex 20.9189 -4.95106 -2.40451
    endloop
  endfacet
  facet normal 0.491124 -0.794654 0.356824
    outer loop
      vertex 20.9189 -4.95106 -2.40451
      vertex 21.1005 -4.58778 -1.84549
      vertex 20.8066 -4.95106 -2.25
    endloop
  endfacet
  facet normal 0.187593 -0.794654 0.577351
    outer loop
      vertex 21.1005 -4.58778 -4.34549
      vertex 20.625 -4.58778 -4.19098
      vertex 20.8066 -4.95106 -4.75
    endloop
  endfacet
  facet normal 0.187592 -0.794654 0.577351
    outer loop
      vertex 20.8066 -4.95106 -4.75
      vertex 20.625 -4.58778 -4.19098
      vertex 20.625 -4.95106 -4.69098
    endloop
  endfacet
  facet normal -0.187593 -0.794654 0.577351
    outer loop
      vertex 20.625 -4.95106 -4.69098
      vertex 20.625 -4.58778 -4.19098
      vertex 20.1495 -4.58778 -4.34549
    endloop
  endfacet
  facet normal -0.187593 -0.794653 0.577352
    outer loop
      vertex 20.625 -4.95106 -4.69098
      vertex 20.1495 -4.58778 -4.34549
      vertex 20.4434 -4.95106 -4.75
    endloop
  endfacet
  facet normal -0.491124 -0.794654 0.356823
    outer loop
      vertex 20.4434 -4.95106 -4.75
      vertex 20.1495 -4.58778 -4.34549
      vertex 19.8556 -4.58778 -4.75
    endloop
  endfacet
  facet normal -0.491124 -0.794653 0.356824
    outer loop
      vertex 20.4434 -4.95106 -4.75
      vertex 19.8556 -4.58778 -4.75
      vertex 20.3311 -4.95106 -4.90451
    endloop
  endfacet
  facet normal -0.607063 -0.794654 -1.19975e-016
    outer loop
      vertex 20.3311 -4.95106 -4.90451
      vertex 19.8556 -4.58778 -4.75
      vertex 19.8556 -4.58778 -5.25
    endloop
  endfacet
  facet normal -0.607063 -0.794654 -1.19975e-016
    outer loop
      vertex 20.3311 -4.95106 -5.09549
      vertex 20.3311 -4.95106 -4.90451
      vertex 19.8556 -4.58778 -5.25
    endloop
  endfacet
  facet normal -0.491124 -0.794653 -0.356823
    outer loop
      vertex 20.1495 -4.58778 -5.65451
      vertex 20.3311 -4.95106 -5.09549
      vertex 19.8556 -4.58778 -5.25
    endloop
  endfacet
  facet normal -0.491124 -0.794654 -0.356824
    outer loop
      vertex 20.4434 -4.95106 -5.25
      vertex 20.3311 -4.95106 -5.09549
      vertex 20.1495 -4.58778 -5.65451
    endloop
  endfacet
  facet normal -0.187593 -0.794654 -0.577351
    outer loop
      vertex 20.625 -4.58778 -5.80902
      vertex 20.4434 -4.95106 -5.25
      vertex 20.1495 -4.58778 -5.65451
    endloop
  endfacet
  facet normal -0.187592 -0.794654 -0.577351
    outer loop
      vertex 20.625 -4.95106 -5.30902
      vertex 20.4434 -4.95106 -5.25
      vertex 20.625 -4.58778 -5.80902
    endloop
  endfacet
  facet normal 0.187593 -0.794654 -0.577351
    outer loop
      vertex 21.1005 -4.58778 -5.65451
      vertex 20.625 -4.95106 -5.30902
      vertex 20.625 -4.58778 -5.80902
    endloop
  endfacet
  facet normal 0.187593 -0.794653 -0.577352
    outer loop
      vertex 21.1005 -4.58778 -5.65451
      vertex 20.8066 -4.95106 -5.25
      vertex 20.625 -4.95106 -5.30902
    endloop
  endfacet
  facet normal 0.491124 -0.794654 -0.356823
    outer loop
      vertex 21.3944 -4.58778 -5.25
      vertex 20.8066 -4.95106 -5.25
      vertex 21.1005 -4.58778 -5.65451
    endloop
  endfacet
  facet normal 0.491124 -0.794653 -0.356824
    outer loop
      vertex 21.3944 -4.58778 -5.25
      vertex 20.9189 -4.95106 -5.09549
      vertex 20.8066 -4.95106 -5.25
    endloop
  endfacet
  facet normal 0.607063 -0.794654 1.19932e-016
    outer loop
      vertex 21.3944 -4.58778 -5.25
      vertex 21.3944 -4.58778 -4.75
      vertex 20.9189 -4.95106 -4.90451
    endloop
  endfacet
  facet normal 0.607063 -0.794654 1.19932e-016
    outer loop
      vertex 20.9189 -4.95106 -5.09549
      vertex 21.3944 -4.58778 -5.25
      vertex 20.9189 -4.95106 -4.90451
    endloop
  endfacet
  facet normal 0.491124 -0.794653 0.356823
    outer loop
      vertex 21.3944 -4.58778 -4.75
      vertex 21.1005 -4.58778 -4.34549
      vertex 20.9189 -4.95106 -4.90451
    endloop
  endfacet
  facet normal 0.491124 -0.794654 0.356824
    outer loop
      vertex 20.9189 -4.95106 -4.90451
      vertex 21.1005 -4.58778 -4.34549
      vertex 20.8066 -4.95106 -4.75
    endloop
  endfacet
  facet normal 1.77321e-016 -1 -2.71051e-020
    outer loop
      vertex 20.8066 -4.95106 -2.25
      vertex 20.625 -4.95106 -2.19098
      vertex 20.4434 -4.95106 -2.25
    endloop
  endfacet
  facet normal 1.77321e-016 -1 -2.71051e-020
    outer loop
      vertex 20.3311 -4.95106 -2.59549
      vertex 20.8066 -4.95106 -2.25
      vertex 20.3311 -4.95106 -2.40451
    endloop
  endfacet
  facet normal 1.77321e-016 -1 -2.71051e-020
    outer loop
      vertex 20.3311 -4.95106 -2.40451
      vertex 20.8066 -4.95106 -2.25
      vertex 20.4434 -4.95106 -2.25
    endloop
  endfacet
  facet normal 1.77321e-016 -1 -2.71051e-020
    outer loop
      vertex 20.4434 -4.95106 -2.75
      vertex 20.8066 -4.95106 -2.25
      vertex 20.3311 -4.95106 -2.59549
    endloop
  endfacet
  facet normal 1.77321e-016 -1 -2.71051e-020
    outer loop
      vertex 20.625 -4.95106 -2.80902
      vertex 20.8066 -4.95106 -2.25
      vertex 20.4434 -4.95106 -2.75
    endloop
  endfacet
  facet normal 1.77321e-016 -1 -2.71051e-020
    outer loop
      vertex 20.8066 -4.95106 -2.75
      vertex 20.8066 -4.95106 -2.25
      vertex 20.625 -4.95106 -2.80902
    endloop
  endfacet
  facet normal 1.77321e-016 -1 -2.71051e-020
    outer loop
      vertex 20.9189 -4.95106 -2.59549
      vertex 20.8066 -4.95106 -2.25
      vertex 20.8066 -4.95106 -2.75
    endloop
  endfacet
  facet normal 1.77321e-016 -1 -2.71051e-020
    outer loop
      vertex 20.9189 -4.95106 -2.40451
      vertex 20.8066 -4.95106 -2.25
      vertex 20.9189 -4.95106 -2.59549
    endloop
  endfacet
  facet normal 1.77321e-016 -1 -2.71051e-020
    outer loop
      vertex 20.8066 -4.95106 -4.75
      vertex 20.625 -4.95106 -4.69098
      vertex 20.4434 -4.95106 -4.75
    endloop
  endfacet
  facet normal 1.77321e-016 -1 -2.71051e-020
    outer loop
      vertex 20.3311 -4.95106 -5.09549
      vertex 20.8066 -4.95106 -4.75
      vertex 20.3311 -4.95106 -4.90451
    endloop
  endfacet
  facet normal 1.77321e-016 -1 -2.71051e-020
    outer loop
      vertex 20.3311 -4.95106 -4.90451
      vertex 20.8066 -4.95106 -4.75
      vertex 20.4434 -4.95106 -4.75
    endloop
  endfacet
  facet normal 1.77321e-016 -1 -2.71051e-020
    outer loop
      vertex 20.4434 -4.95106 -5.25
      vertex 20.8066 -4.95106 -4.75
      vertex 20.3311 -4.95106 -5.09549
    endloop
  endfacet
  facet normal 1.77321e-016 -1 -2.71051e-020
    outer loop
      vertex 20.625 -4.95106 -5.30902
      vertex 20.8066 -4.95106 -4.75
      vertex 20.4434 -4.95106 -5.25
    endloop
  endfacet
  facet normal 1.77321e-016 -1 -2.71051e-020
    outer loop
      vertex 20.8066 -4.95106 -5.25
      vertex 20.8066 -4.95106 -4.75
      vertex 20.625 -4.95106 -5.30902
    endloop
  endfacet
  facet normal 1.77321e-016 -1 -2.71051e-020
    outer loop
      vertex 20.9189 -4.95106 -5.09549
      vertex 20.8066 -4.95106 -4.75
      vertex 20.8066 -4.95106 -5.25
    endloop
  endfacet
  facet normal 1.77321e-016 -1 -2.71051e-020
    outer loop
      vertex 20.9189 -4.95106 -4.90451
      vertex 20.8066 -4.95106 -4.75
      vertex 20.9189 -4.95106 -5.09549
    endloop
  endfacet
  facet normal -2.22045e-016 -3.48654e-032 1
    outer loop
      vertex 43.75 -2 9.71445e-015
      vertex 37.5 -2 8.32667e-015
      vertex 37.5 -4 8.32667e-015
    endloop
  endfacet
  facet normal -2.22045e-016 -3.48654e-032 1
    outer loop
      vertex 43.75 -4 9.71445e-015
      vertex 43.75 -2 9.71445e-015
      vertex 37.5 -4 8.32667e-015
    endloop
  endfacet
  facet normal -1 -1.5702e-016 -1.97596e-016
    outer loop
      vertex 37.5 -2 8.32667e-015
      vertex 37.5 -2 -10
      vertex 37.5 -4 8.32667e-015
    endloop
  endfacet
  facet normal -1 -1.5702e-016 -1.97596e-016
    outer loop
      vertex 37.5 -4 8.32667e-015
      vertex 37.5 -2 -10
      vertex 37.5 -4 -10
    endloop
  endfacet
  facet normal -1.77321e-016 1 2.71051e-020
    outer loop
      vertex 37.5 -2 8.32667e-015
      vertex 43.75 -2 9.71445e-015
      vertex 37.5 -2 -10
    endloop
  endfacet
  facet normal -1.77321e-016 1 2.71051e-020
    outer loop
      vertex 37.5 -2 -10
      vertex 43.75 -2 9.71445e-015
      vertex 43.75 -2 -10
    endloop
  endfacet
  facet normal 1 1.5702e-016 1.97596e-016
    outer loop
      vertex 43.75 -2 -10
      vertex 43.75 -2 9.71445e-015
      vertex 43.75 -4 9.71445e-015
    endloop
  endfacet
  facet normal 1 1.5702e-016 1.97596e-016
    outer loop
      vertex 43.75 -4 -10
      vertex 43.75 -2 -10
      vertex 43.75 -4 9.71445e-015
    endloop
  endfacet
  facet normal 1.77321e-016 -1 -2.71051e-020
    outer loop
      vertex 38.4239 -4 -2.80902
      vertex 37.5 -4 8.32667e-015
      vertex 37.5 -4 -10
    endloop
  endfacet
  facet normal 1.77321e-016 -1 -2.71051e-020
    outer loop
      vertex 41.875 -4 -1.5
      vertex 42.4628 -4 -1.69098
      vertex 43.75 -4 9.71445e-015
    endloop
  endfacet
  facet normal 1.77321e-016 -1 -2.71051e-020
    outer loop
      vertex 43.75 -4 9.71445e-015
      vertex 37.5 -4 8.32667e-015
      vertex 38.7872 -4 -1.69098
    endloop
  endfacet
  facet normal 1.77321e-016 -1 -2.71051e-020
    outer loop
      vertex 38.7872 -4 -3.30902
      vertex 38.4239 -4 -2.80902
      vertex 37.5 -4 -10
    endloop
  endfacet
  facet normal 1.77321e-016 -1 -2.71051e-020
    outer loop
      vertex 43.75 -4 9.71445e-015
      vertex 38.7872 -4 -1.69098
      vertex 39.375 -4 -1.5
    endloop
  endfacet
  facet normal 1.77321e-016 -1 -2.71051e-020
    outer loop
      vertex 39.375 -4 -3.5
      vertex 38.7872 -4 -3.30902
      vertex 37.5 -4 -10
    endloop
  endfacet
  facet normal 1.77321e-016 -1 -2.71051e-020
    outer loop
      vertex 43.75 -4 9.71445e-015
      vertex 39.375 -4 -1.5
      vertex 39.9628 -4 -1.69098
    endloop
  endfacet
  facet normal 1.77321e-016 -1 -2.71051e-020
    outer loop
      vertex 42.4628 -4 -1.69098
      vertex 42.8261 -4 -2.19098
      vertex 43.75 -4 9.71445e-015
    endloop
  endfacet
  facet normal 1.77321e-016 -1 -2.71051e-020
    outer loop
      vertex 43.75 -4 9.71445e-015
      vertex 39.9628 -4 -1.69098
      vertex 40.3261 -4 -2.19098
    endloop
  endfacet
  facet normal 1.77321e-016 -1 -2.71051e-020
    outer loop
      vertex 41.2872 -4 -3.30902
      vertex 40.3261 -4 -2.80902
      vertex 37.5 -4 -10
    endloop
  endfacet
  facet normal 1.77321e-016 -1 -2.71051e-020
    outer loop
      vertex 41.2872 -4 -1.69098
      vertex 40.3261 -4 -2.19098
      vertex 40.3261 -4 -2.80902
    endloop
  endfacet
  facet normal 1.77321e-016 -1 -2.71051e-020
    outer loop
      vertex 40.3261 -4 -2.80902
      vertex 39.9628 -4 -3.30902
      vertex 37.5 -4 -10
    endloop
  endfacet
  facet normal 1.77321e-016 -1 -2.71051e-020
    outer loop
      vertex 38.4239 -4 -2.19098
      vertex 37.5 -4 8.32667e-015
      vertex 38.4239 -4 -2.80902
    endloop
  endfacet
  facet normal 1.77321e-016 -1 -2.71051e-020
    outer loop
      vertex 38.7872 -4 -1.69098
      vertex 37.5 -4 8.32667e-015
      vertex 38.4239 -4 -2.19098
    endloop
  endfacet
  facet normal 1.77321e-016 -1 -2.71051e-020
    outer loop
      vertex 40.9239 -4 -2.19098
      vertex 41.2872 -4 -1.69098
      vertex 40.3261 -4 -2.80902
    endloop
  endfacet
  facet normal 1.77321e-016 -1 -2.71051e-020
    outer loop
      vertex 43.75 -4 9.71445e-015
      vertex 40.3261 -4 -2.19098
      vertex 41.2872 -4 -1.69098
    endloop
  endfacet
  facet normal 1.77321e-016 -1 -2.71051e-020
    outer loop
      vertex 43.75 -4 9.71445e-015
      vertex 41.2872 -4 -1.69098
      vertex 41.875 -4 -1.5
    endloop
  endfacet
  facet normal 1.77321e-016 -1 -2.71051e-020
    outer loop
      vertex 42.4628 -4 -3.30902
      vertex 41.875 -4 -3.5
      vertex 37.5 -4 -10
    endloop
  endfacet
  facet normal 1.77321e-016 -1 -2.71051e-020
    outer loop
      vertex 41.875 -4 -3.5
      vertex 41.2872 -4 -3.30902
      vertex 37.5 -4 -10
    endloop
  endfacet
  facet normal 1.77321e-016 -1 -2.71051e-020
    outer loop
      vertex 43.75 -4 -10
      vertex 43.75 -4 9.71445e-015
      vertex 42.8261 -4 -2.19098
    endloop
  endfacet
  facet normal 1.77321e-016 -1 -2.71051e-020
    outer loop
      vertex 40.9239 -4 -2.80902
      vertex 40.9239 -4 -2.19098
      vertex 40.3261 -4 -2.80902
    endloop
  endfacet
  facet normal 1.77321e-016 -1 -2.71051e-020
    outer loop
      vertex 43.75 -4 -10
      vertex 42.8261 -4 -2.19098
      vertex 42.8261 -4 -2.80902
    endloop
  endfacet
  facet normal 1.77321e-016 -1 -2.71051e-020
    outer loop
      vertex 43.75 -4 -10
      vertex 42.4628 -4 -3.30902
      vertex 37.5 -4 -10
    endloop
  endfacet
  facet normal 1.77321e-016 -1 -2.71051e-020
    outer loop
      vertex 43.75 -4 -10
      vertex 42.8261 -4 -2.80902
      vertex 42.4628 -4 -3.30902
    endloop
  endfacet
  facet normal 1.77321e-016 -1 -2.71051e-020
    outer loop
      vertex 40.9239 -4 -2.80902
      vertex 40.3261 -4 -2.80902
      vertex 41.2872 -4 -3.30902
    endloop
  endfacet
  facet normal 1.77321e-016 -1 -2.71051e-020
    outer loop
      vertex 39.9628 -4 -3.30902
      vertex 39.375 -4 -3.5
      vertex 37.5 -4 -10
    endloop
  endfacet
  facet normal 2.22045e-016 3.48654e-032 -1
    outer loop
      vertex 37.5 -2 -10
      vertex 43.75 -2 -10
      vertex 37.5 -4 -10
    endloop
  endfacet
  facet normal 2.22045e-016 3.48654e-032 -1
    outer loop
      vertex 37.5 -4 -10
      vertex 43.75 -2 -10
      vertex 43.75 -4 -10
    endloop
  endfacet
  facet normal -0.295242 -0.295242 0.908661
    outer loop
      vertex 39.375 -4.58778 -1.69098
      vertex 39.375 -4 -1.5
      vertex 38.7872 -4 -1.69098
    endloop
  endfacet
  facet normal -0.295243 -0.295243 0.90866
    outer loop
      vertex 39.375 -4.58778 -1.69098
      vertex 38.7872 -4 -1.69098
      vertex 38.8995 -4.58778 -1.84549
    endloop
  endfacet
  facet normal -0.772952 -0.295242 0.561584
    outer loop
      vertex 38.8995 -4.58778 -1.84549
      vertex 38.7872 -4 -1.69098
      vertex 38.4239 -4 -2.19098
    endloop
  endfacet
  facet normal -0.772952 -0.295242 0.561584
    outer loop
      vertex 38.6056 -4.58778 -2.25
      vertex 38.8995 -4.58778 -1.84549
      vertex 38.4239 -4 -2.19098
    endloop
  endfacet
  facet normal -0.955422 -0.295242 -1.88795e-016
    outer loop
      vertex 38.4239 -4 -2.19098
      vertex 38.4239 -4 -2.80902
      vertex 38.6056 -4.58778 -2.25
    endloop
  endfacet
  facet normal -0.955422 -0.295242 -1.88795e-016
    outer loop
      vertex 38.6056 -4.58778 -2.25
      vertex 38.4239 -4 -2.80902
      vertex 38.6056 -4.58778 -2.75
    endloop
  endfacet
  facet normal -0.772952 -0.295242 -0.561584
    outer loop
      vertex 38.7872 -4 -3.30902
      vertex 38.6056 -4.58778 -2.75
      vertex 38.4239 -4 -2.80902
    endloop
  endfacet
  facet normal -0.772952 -0.295242 -0.561584
    outer loop
      vertex 38.8995 -4.58778 -3.15451
      vertex 38.6056 -4.58778 -2.75
      vertex 38.7872 -4 -3.30902
    endloop
  endfacet
  facet normal -0.295242 -0.295243 -0.908661
    outer loop
      vertex 39.375 -4 -3.5
      vertex 38.8995 -4.58778 -3.15451
      vertex 38.7872 -4 -3.30902
    endloop
  endfacet
  facet normal -0.295243 -0.295242 -0.908661
    outer loop
      vertex 39.375 -4.58778 -3.30902
      vertex 38.8995 -4.58778 -3.15451
      vertex 39.375 -4 -3.5
    endloop
  endfacet
  facet normal 0.295242 -0.295242 -0.908661
    outer loop
      vertex 39.9628 -4 -3.30902
      vertex 39.375 -4.58778 -3.30902
      vertex 39.375 -4 -3.5
    endloop
  endfacet
  facet normal 0.772952 -0.295242 -0.561584
    outer loop
      vertex 39.9628 -4 -3.30902
      vertex 40.3261 -4 -2.80902
      vertex 39.8505 -4.58778 -3.15451
    endloop
  endfacet
  facet normal 0.295243 -0.295243 -0.90866
    outer loop
      vertex 39.9628 -4 -3.30902
      vertex 39.8505 -4.58778 -3.15451
      vertex 39.375 -4.58778 -3.30902
    endloop
  endfacet
  facet normal 0.955422 -0.295242 1.88779e-016
    outer loop
      vertex 40.3261 -4 -2.80902
      vertex 40.3261 -4 -2.19098
      vertex 40.1444 -4.58778 -2.25
    endloop
  endfacet
  facet normal 0.955422 -0.295242 1.88779e-016
    outer loop
      vertex 40.1444 -4.58778 -2.75
      vertex 40.3261 -4 -2.80902
      vertex 40.1444 -4.58778 -2.25
    endloop
  endfacet
  facet normal 0.772952 -0.295242 -0.561584
    outer loop
      vertex 40.3261 -4 -2.80902
      vertex 40.1444 -4.58778 -2.75
      vertex 39.8505 -4.58778 -3.15451
    endloop
  endfacet
  facet normal 0.772952 -0.295242 0.561584
    outer loop
      vertex 40.3261 -4 -2.19098
      vertex 39.9628 -4 -1.69098
      vertex 40.1444 -4.58778 -2.25
    endloop
  endfacet
  facet normal 0.295242 -0.295243 0.908661
    outer loop
      vertex 39.9628 -4 -1.69098
      vertex 39.375 -4 -1.5
      vertex 39.8505 -4.58778 -1.84549
    endloop
  endfacet
  facet normal 0.772952 -0.295242 0.561584
    outer loop
      vertex 40.1444 -4.58778 -2.25
      vertex 39.9628 -4 -1.69098
      vertex 39.8505 -4.58778 -1.84549
    endloop
  endfacet
  facet normal 0.295243 -0.295242 0.908661
    outer loop
      vertex 39.8505 -4.58778 -1.84549
      vertex 39.375 -4 -1.5
      vertex 39.375 -4.58778 -1.69098
    endloop
  endfacet
  facet normal -0.295242 -0.295242 0.908661
    outer loop
      vertex 41.875 -4.58778 -1.69098
      vertex 41.875 -4 -1.5
      vertex 41.2872 -4 -1.69098
    endloop
  endfacet
  facet normal -0.295243 -0.295243 0.90866
    outer loop
      vertex 41.875 -4.58778 -1.69098
      vertex 41.2872 -4 -1.69098
      vertex 41.3995 -4.58778 -1.84549
    endloop
  endfacet
  facet normal -0.772952 -0.295242 0.561584
    outer loop
      vertex 41.3995 -4.58778 -1.84549
      vertex 41.2872 -4 -1.69098
      vertex 40.9239 -4 -2.19098
    endloop
  endfacet
  facet normal -0.772952 -0.295242 0.561584
    outer loop
      vertex 41.1056 -4.58778 -2.25
      vertex 41.3995 -4.58778 -1.84549
      vertex 40.9239 -4 -2.19098
    endloop
  endfacet
  facet normal -0.955422 -0.295242 -1.88795e-016
    outer loop
      vertex 40.9239 -4 -2.19098
      vertex 40.9239 -4 -2.80902
      vertex 41.1056 -4.58778 -2.25
    endloop
  endfacet
  facet normal -0.955422 -0.295242 -1.88795e-016
    outer loop
      vertex 41.1056 -4.58778 -2.25
      vertex 40.9239 -4 -2.80902
      vertex 41.1056 -4.58778 -2.75
    endloop
  endfacet
  facet normal -0.772952 -0.295242 -0.561584
    outer loop
      vertex 41.2872 -4 -3.30902
      vertex 41.1056 -4.58778 -2.75
      vertex 40.9239 -4 -2.80902
    endloop
  endfacet
  facet normal -0.772952 -0.295242 -0.561584
    outer loop
      vertex 41.3995 -4.58778 -3.15451
      vertex 41.1056 -4.58778 -2.75
      vertex 41.2872 -4 -3.30902
    endloop
  endfacet
  facet normal -0.295242 -0.295243 -0.908661
    outer loop
      vertex 41.875 -4 -3.5
      vertex 41.3995 -4.58778 -3.15451
      vertex 41.2872 -4 -3.30902
    endloop
  endfacet
  facet normal -0.295243 -0.295242 -0.908661
    outer loop
      vertex 41.875 -4.58778 -3.30902
      vertex 41.3995 -4.58778 -3.15451
      vertex 41.875 -4 -3.5
    endloop
  endfacet
  facet normal 0.295242 -0.295242 -0.908661
    outer loop
      vertex 42.4628 -4 -3.30902
      vertex 41.875 -4.58778 -3.30902
      vertex 41.875 -4 -3.5
    endloop
  endfacet
  facet normal 0.772952 -0.295242 -0.561584
    outer loop
      vertex 42.4628 -4 -3.30902
      vertex 42.8261 -4 -2.80902
      vertex 42.3505 -4.58778 -3.15451
    endloop
  endfacet
  facet normal 0.295243 -0.295243 -0.90866
    outer loop
      vertex 42.4628 -4 -3.30902
      vertex 42.3505 -4.58778 -3.15451
      vertex 41.875 -4.58778 -3.30902
    endloop
  endfacet
  facet normal 0.955422 -0.295242 1.88779e-016
    outer loop
      vertex 42.8261 -4 -2.80902
      vertex 42.8261 -4 -2.19098
      vertex 42.6444 -4.58778 -2.25
    endloop
  endfacet
  facet normal 0.955422 -0.295242 1.88779e-016
    outer loop
      vertex 42.6444 -4.58778 -2.75
      vertex 42.8261 -4 -2.80902
      vertex 42.6444 -4.58778 -2.25
    endloop
  endfacet
  facet normal 0.772952 -0.295242 -0.561584
    outer loop
      vertex 42.8261 -4 -2.80902
      vertex 42.6444 -4.58778 -2.75
      vertex 42.3505 -4.58778 -3.15451
    endloop
  endfacet
  facet normal 0.772952 -0.295242 0.561584
    outer loop
      vertex 42.8261 -4 -2.19098
      vertex 42.4628 -4 -1.69098
      vertex 42.6444 -4.58778 -2.25
    endloop
  endfacet
  facet normal 0.295242 -0.295243 0.908661
    outer loop
      vertex 42.4628 -4 -1.69098
      vertex 41.875 -4 -1.5
      vertex 42.3505 -4.58778 -1.84549
    endloop
  endfacet
  facet normal 0.772952 -0.295242 0.561584
    outer loop
      vertex 42.6444 -4.58778 -2.25
      vertex 42.4628 -4 -1.69098
      vertex 42.3505 -4.58778 -1.84549
    endloop
  endfacet
  facet normal 0.295243 -0.295242 0.908661
    outer loop
      vertex 42.3505 -4.58778 -1.84549
      vertex 41.875 -4 -1.5
      vertex 41.875 -4.58778 -1.69098
    endloop
  endfacet
  facet normal 0.187593 -0.794654 0.577351
    outer loop
      vertex 39.8505 -4.58778 -1.84549
      vertex 39.375 -4.58778 -1.69098
      vertex 39.5566 -4.95106 -2.25
    endloop
  endfacet
  facet normal 0.187592 -0.794654 0.577351
    outer loop
      vertex 39.5566 -4.95106 -2.25
      vertex 39.375 -4.58778 -1.69098
      vertex 39.375 -4.95106 -2.19098
    endloop
  endfacet
  facet normal -0.187593 -0.794654 0.577351
    outer loop
      vertex 39.375 -4.95106 -2.19098
      vertex 39.375 -4.58778 -1.69098
      vertex 38.8995 -4.58778 -1.84549
    endloop
  endfacet
  facet normal -0.187593 -0.794653 0.577352
    outer loop
      vertex 39.375 -4.95106 -2.19098
      vertex 38.8995 -4.58778 -1.84549
      vertex 39.1934 -4.95106 -2.25
    endloop
  endfacet
  facet normal -0.491124 -0.794654 0.356823
    outer loop
      vertex 39.1934 -4.95106 -2.25
      vertex 38.8995 -4.58778 -1.84549
      vertex 38.6056 -4.58778 -2.25
    endloop
  endfacet
  facet normal -0.491124 -0.794653 0.356824
    outer loop
      vertex 39.1934 -4.95106 -2.25
      vertex 38.6056 -4.58778 -2.25
      vertex 39.0811 -4.95106 -2.40451
    endloop
  endfacet
  facet normal -0.607063 -0.794654 -1.19975e-016
    outer loop
      vertex 39.0811 -4.95106 -2.40451
      vertex 38.6056 -4.58778 -2.25
      vertex 38.6056 -4.58778 -2.75
    endloop
  endfacet
  facet normal -0.607063 -0.794654 -1.19975e-016
    outer loop
      vertex 39.0811 -4.95106 -2.59549
      vertex 39.0811 -4.95106 -2.40451
      vertex 38.6056 -4.58778 -2.75
    endloop
  endfacet
  facet normal -0.491124 -0.794653 -0.356823
    outer loop
      vertex 38.8995 -4.58778 -3.15451
      vertex 39.0811 -4.95106 -2.59549
      vertex 38.6056 -4.58778 -2.75
    endloop
  endfacet
  facet normal -0.491124 -0.794654 -0.356824
    outer loop
      vertex 39.1934 -4.95106 -2.75
      vertex 39.0811 -4.95106 -2.59549
      vertex 38.8995 -4.58778 -3.15451
    endloop
  endfacet
  facet normal -0.187593 -0.794654 -0.577351
    outer loop
      vertex 39.375 -4.58778 -3.30902
      vertex 39.1934 -4.95106 -2.75
      vertex 38.8995 -4.58778 -3.15451
    endloop
  endfacet
  facet normal -0.187592 -0.794654 -0.577351
    outer loop
      vertex 39.375 -4.95106 -2.80902
      vertex 39.1934 -4.95106 -2.75
      vertex 39.375 -4.58778 -3.30902
    endloop
  endfacet
  facet normal 0.187593 -0.794654 -0.577351
    outer loop
      vertex 39.8505 -4.58778 -3.15451
      vertex 39.375 -4.95106 -2.80902
      vertex 39.375 -4.58778 -3.30902
    endloop
  endfacet
  facet normal 0.187593 -0.794653 -0.577352
    outer loop
      vertex 39.8505 -4.58778 -3.15451
      vertex 39.5566 -4.95106 -2.75
      vertex 39.375 -4.95106 -2.80902
    endloop
  endfacet
  facet normal 0.491124 -0.794654 -0.356823
    outer loop
      vertex 40.1444 -4.58778 -2.75
      vertex 39.5566 -4.95106 -2.75
      vertex 39.8505 -4.58778 -3.15451
    endloop
  endfacet
  facet normal 0.491124 -0.794653 -0.356824
    outer loop
      vertex 40.1444 -4.58778 -2.75
      vertex 39.6689 -4.95106 -2.59549
      vertex 39.5566 -4.95106 -2.75
    endloop
  endfacet
  facet normal 0.607063 -0.794654 1.19932e-016
    outer loop
      vertex 40.1444 -4.58778 -2.75
      vertex 40.1444 -4.58778 -2.25
      vertex 39.6689 -4.95106 -2.40451
    endloop
  endfacet
  facet normal 0.607063 -0.794654 1.19932e-016
    outer loop
      vertex 39.6689 -4.95106 -2.59549
      vertex 40.1444 -4.58778 -2.75
      vertex 39.6689 -4.95106 -2.40451
    endloop
  endfacet
  facet normal 0.491124 -0.794653 0.356823
    outer loop
      vertex 40.1444 -4.58778 -2.25
      vertex 39.8505 -4.58778 -1.84549
      vertex 39.6689 -4.95106 -2.40451
    endloop
  endfacet
  facet normal 0.491124 -0.794654 0.356824
    outer loop
      vertex 39.6689 -4.95106 -2.40451
      vertex 39.8505 -4.58778 -1.84549
      vertex 39.5566 -4.95106 -2.25
    endloop
  endfacet
  facet normal 0.187593 -0.794654 0.577351
    outer loop
      vertex 42.3505 -4.58778 -1.84549
      vertex 41.875 -4.58778 -1.69098
      vertex 42.0566 -4.95106 -2.25
    endloop
  endfacet
  facet normal 0.187592 -0.794654 0.577351
    outer loop
      vertex 42.0566 -4.95106 -2.25
      vertex 41.875 -4.58778 -1.69098
      vertex 41.875 -4.95106 -2.19098
    endloop
  endfacet
  facet normal -0.187593 -0.794654 0.577351
    outer loop
      vertex 41.875 -4.95106 -2.19098
      vertex 41.875 -4.58778 -1.69098
      vertex 41.3995 -4.58778 -1.84549
    endloop
  endfacet
  facet normal -0.187593 -0.794653 0.577352
    outer loop
      vertex 41.875 -4.95106 -2.19098
      vertex 41.3995 -4.58778 -1.84549
      vertex 41.6934 -4.95106 -2.25
    endloop
  endfacet
  facet normal -0.491124 -0.794654 0.356823
    outer loop
      vertex 41.6934 -4.95106 -2.25
      vertex 41.3995 -4.58778 -1.84549
      vertex 41.1056 -4.58778 -2.25
    endloop
  endfacet
  facet normal -0.491124 -0.794653 0.356824
    outer loop
      vertex 41.6934 -4.95106 -2.25
      vertex 41.1056 -4.58778 -2.25
      vertex 41.5811 -4.95106 -2.40451
    endloop
  endfacet
  facet normal -0.607063 -0.794654 -1.19975e-016
    outer loop
      vertex 41.5811 -4.95106 -2.40451
      vertex 41.1056 -4.58778 -2.25
      vertex 41.1056 -4.58778 -2.75
    endloop
  endfacet
  facet normal -0.607063 -0.794654 -1.19975e-016
    outer loop
      vertex 41.5811 -4.95106 -2.59549
      vertex 41.5811 -4.95106 -2.40451
      vertex 41.1056 -4.58778 -2.75
    endloop
  endfacet
  facet normal -0.491124 -0.794653 -0.356823
    outer loop
      vertex 41.3995 -4.58778 -3.15451
      vertex 41.5811 -4.95106 -2.59549
      vertex 41.1056 -4.58778 -2.75
    endloop
  endfacet
  facet normal -0.491124 -0.794654 -0.356824
    outer loop
      vertex 41.6934 -4.95106 -2.75
      vertex 41.5811 -4.95106 -2.59549
      vertex 41.3995 -4.58778 -3.15451
    endloop
  endfacet
  facet normal -0.187593 -0.794654 -0.577351
    outer loop
      vertex 41.875 -4.58778 -3.30902
      vertex 41.6934 -4.95106 -2.75
      vertex 41.3995 -4.58778 -3.15451
    endloop
  endfacet
  facet normal -0.187592 -0.794654 -0.577351
    outer loop
      vertex 41.875 -4.95106 -2.80902
      vertex 41.6934 -4.95106 -2.75
      vertex 41.875 -4.58778 -3.30902
    endloop
  endfacet
  facet normal 0.187593 -0.794654 -0.577351
    outer loop
      vertex 42.3505 -4.58778 -3.15451
      vertex 41.875 -4.95106 -2.80902
      vertex 41.875 -4.58778 -3.30902
    endloop
  endfacet
  facet normal 0.187593 -0.794653 -0.577352
    outer loop
      vertex 42.3505 -4.58778 -3.15451
      vertex 42.0566 -4.95106 -2.75
      vertex 41.875 -4.95106 -2.80902
    endloop
  endfacet
  facet normal 0.491124 -0.794654 -0.356823
    outer loop
      vertex 42.6444 -4.58778 -2.75
      vertex 42.0566 -4.95106 -2.75
      vertex 42.3505 -4.58778 -3.15451
    endloop
  endfacet
  facet normal 0.491124 -0.794653 -0.356824
    outer loop
      vertex 42.6444 -4.58778 -2.75
      vertex 42.1689 -4.95106 -2.59549
      vertex 42.0566 -4.95106 -2.75
    endloop
  endfacet
  facet normal 0.607063 -0.794654 1.19932e-016
    outer loop
      vertex 42.6444 -4.58778 -2.75
      vertex 42.6444 -4.58778 -2.25
      vertex 42.1689 -4.95106 -2.40451
    endloop
  endfacet
  facet normal 0.607063 -0.794654 1.19932e-016
    outer loop
      vertex 42.1689 -4.95106 -2.59549
      vertex 42.6444 -4.58778 -2.75
      vertex 42.1689 -4.95106 -2.40451
    endloop
  endfacet
  facet normal 0.491124 -0.794653 0.356823
    outer loop
      vertex 42.6444 -4.58778 -2.25
      vertex 42.3505 -4.58778 -1.84549
      vertex 42.1689 -4.95106 -2.40451
    endloop
  endfacet
  facet normal 0.491124 -0.794654 0.356824
    outer loop
      vertex 42.1689 -4.95106 -2.40451
      vertex 42.3505 -4.58778 -1.84549
      vertex 42.0566 -4.95106 -2.25
    endloop
  endfacet
  facet normal 1.77321e-016 -1 -2.71051e-020
    outer loop
      vertex 39.5566 -4.95106 -2.25
      vertex 39.375 -4.95106 -2.19098
      vertex 39.1934 -4.95106 -2.25
    endloop
  endfacet
  facet normal 1.77321e-016 -1 -2.71051e-020
    outer loop
      vertex 39.0811 -4.95106 -2.59549
      vertex 39.5566 -4.95106 -2.25
      vertex 39.0811 -4.95106 -2.40451
    endloop
  endfacet
  facet normal 1.77321e-016 -1 -2.71051e-020
    outer loop
      vertex 39.0811 -4.95106 -2.40451
      vertex 39.5566 -4.95106 -2.25
      vertex 39.1934 -4.95106 -2.25
    endloop
  endfacet
  facet normal 1.77321e-016 -1 -2.71051e-020
    outer loop
      vertex 39.1934 -4.95106 -2.75
      vertex 39.5566 -4.95106 -2.25
      vertex 39.0811 -4.95106 -2.59549
    endloop
  endfacet
  facet normal 1.77321e-016 -1 -2.71051e-020
    outer loop
      vertex 39.375 -4.95106 -2.80902
      vertex 39.5566 -4.95106 -2.25
      vertex 39.1934 -4.95106 -2.75
    endloop
  endfacet
  facet normal 1.77321e-016 -1 -2.71051e-020
    outer loop
      vertex 39.5566 -4.95106 -2.75
      vertex 39.5566 -4.95106 -2.25
      vertex 39.375 -4.95106 -2.80902
    endloop
  endfacet
  facet normal 1.77321e-016 -1 -2.71051e-020
    outer loop
      vertex 39.6689 -4.95106 -2.59549
      vertex 39.5566 -4.95106 -2.25
      vertex 39.5566 -4.95106 -2.75
    endloop
  endfacet
  facet normal 1.77321e-016 -1 -2.71051e-020
    outer loop
      vertex 39.6689 -4.95106 -2.40451
      vertex 39.5566 -4.95106 -2.25
      vertex 39.6689 -4.95106 -2.59549
    endloop
  endfacet
  facet normal 1.77321e-016 -1 -2.71051e-020
    outer loop
      vertex 42.0566 -4.95106 -2.25
      vertex 41.875 -4.95106 -2.19098
      vertex 41.6934 -4.95106 -2.25
    endloop
  endfacet
  facet normal 1.77321e-016 -1 -2.71051e-020
    outer loop
      vertex 41.5811 -4.95106 -2.59549
      vertex 42.0566 -4.95106 -2.25
      vertex 41.5811 -4.95106 -2.40451
    endloop
  endfacet
  facet normal 1.77321e-016 -1 -2.71051e-020
    outer loop
      vertex 41.5811 -4.95106 -2.40451
      vertex 42.0566 -4.95106 -2.25
      vertex 41.6934 -4.95106 -2.25
    endloop
  endfacet
  facet normal 1.77321e-016 -1 -2.71051e-020
    outer loop
      vertex 41.6934 -4.95106 -2.75
      vertex 42.0566 -4.95106 -2.25
      vertex 41.5811 -4.95106 -2.59549
    endloop
  endfacet
  facet normal 1.77321e-016 -1 -2.71051e-020
    outer loop
      vertex 41.875 -4.95106 -2.80902
      vertex 42.0566 -4.95106 -2.25
      vertex 41.6934 -4.95106 -2.75
    endloop
  endfacet
  facet normal 1.77321e-016 -1 -2.71051e-020
    outer loop
      vertex 42.0566 -4.95106 -2.75
      vertex 42.0566 -4.95106 -2.25
      vertex 41.875 -4.95106 -2.80902
    endloop
  endfacet
  facet normal 1.77321e-016 -1 -2.71051e-020
    outer loop
      vertex 42.1689 -4.95106 -2.59549
      vertex 42.0566 -4.95106 -2.25
      vertex 42.0566 -4.95106 -2.75
    endloop
  endfacet
  facet normal 1.77321e-016 -1 -2.71051e-020
    outer loop
      vertex 42.1689 -4.95106 -2.40451
      vertex 42.0566 -4.95106 -2.25
      vertex 42.1689 -4.95106 -2.59549
    endloop
  endfacet
  facet normal -2.22045e-016 -3.48654e-032 1
    outer loop
      vertex 62.5 -2 1.38778e-014
      vertex 56.25 -2 1.249e-014
      vertex 56.25 -4 1.249e-014
    endloop
  endfacet
  facet normal -2.22045e-016 -3.48654e-032 1
    outer loop
      vertex 62.5 -4 1.38778e-014
      vertex 62.5 -2 1.38778e-014
      vertex 56.25 -4 1.249e-014
    endloop
  endfacet
  facet normal -1 -1.5702e-016 -1.97596e-016
    outer loop
      vertex 56.25 -2 1.249e-014
      vertex 56.25 -2 -10
      vertex 56.25 -4 1.249e-014
    endloop
  endfacet
  facet normal -1 -1.5702e-016 -1.97596e-016
    outer loop
      vertex 56.25 -4 1.249e-014
      vertex 56.25 -2 -10
      vertex 56.25 -4 -10
    endloop
  endfacet
  facet normal -1.77321e-016 1 2.71051e-020
    outer loop
      vertex 56.25 -2 1.249e-014
      vertex 62.5 -2 1.38778e-014
      vertex 56.25 -2 -10
    endloop
  endfacet
  facet normal -1.77321e-016 1 2.71051e-020
    outer loop
      vertex 56.25 -2 -10
      vertex 62.5 -2 1.38778e-014
      vertex 62.5 -2 -10
    endloop
  endfacet
  facet normal 1 1.5702e-016 1.97596e-016
    outer loop
      vertex 62.5 -2 -10
      vertex 62.5 -2 1.38778e-014
      vertex 62.5 -4 1.38778e-014
    endloop
  endfacet
  facet normal 1 1.5702e-016 1.97596e-016
    outer loop
      vertex 62.5 -4 -10
      vertex 62.5 -2 -10
      vertex 62.5 -4 1.38778e-014
    endloop
  endfacet
  facet normal 1.77321e-016 -1 -2.71051e-020
    outer loop
      vertex 57.1739 -4 -2.80902
      vertex 56.25 -4 1.249e-014
      vertex 56.25 -4 -10
    endloop
  endfacet
  facet normal 1.77321e-016 -1 -2.71051e-020
    outer loop
      vertex 61.2128 -4 -4.19098
      vertex 61.5761 -4 -4.69098
      vertex 61.2128 -4 -3.30902
    endloop
  endfacet
  facet normal 1.77321e-016 -1 -2.71051e-020
    outer loop
      vertex 60.625 -4 -1.5
      vertex 61.2128 -4 -1.69098
      vertex 62.5 -4 1.38778e-014
    endloop
  endfacet
  facet normal 1.77321e-016 -1 -2.71051e-020
    outer loop
      vertex 62.5 -4 1.38778e-014
      vertex 56.25 -4 1.249e-014
      vertex 57.5372 -4 -1.69098
    endloop
  endfacet
  facet normal 1.77321e-016 -1 -2.71051e-020
    outer loop
      vertex 57.5372 -4 -3.30902
      vertex 57.1739 -4 -2.80902
      vertex 56.25 -4 -10
    endloop
  endfacet
  facet normal 1.77321e-016 -1 -2.71051e-020
    outer loop
      vertex 62.5 -4 1.38778e-014
      vertex 57.5372 -4 -1.69098
      vertex 58.125 -4 -1.5
    endloop
  endfacet
  facet normal 1.77321e-016 -1 -2.71051e-020
    outer loop
      vertex 58.125 -4 -3.5
      vertex 57.5372 -4 -3.30902
      vertex 56.25 -4 -10
    endloop
  endfacet
  facet normal 1.77321e-016 -1 -2.71051e-020
    outer loop
      vertex 62.5 -4 1.38778e-014
      vertex 58.125 -4 -1.5
      vertex 58.7128 -4 -1.69098
    endloop
  endfacet
  facet normal 1.77321e-016 -1 -2.71051e-020
    outer loop
      vertex 59.6739 -4 -2.80902
      vertex 59.6739 -4 -2.19098
      vertex 59.0761 -4 -2.80902
    endloop
  endfacet
  facet normal 1.77321e-016 -1 -2.71051e-020
    outer loop
      vertex 62.5 -4 1.38778e-014
      vertex 58.7128 -4 -1.69098
      vertex 59.0761 -4 -2.19098
    endloop
  endfacet
  facet normal 1.77321e-016 -1 -2.71051e-020
    outer loop
      vertex 60.0372 -4 -3.30902
      vertex 59.0761 -4 -2.80902
      vertex 56.25 -4 -10
    endloop
  endfacet
  facet normal 1.77321e-016 -1 -2.71051e-020
    outer loop
      vertex 60.0372 -4 -1.69098
      vertex 59.0761 -4 -2.19098
      vertex 59.0761 -4 -2.80902
    endloop
  endfacet
  facet normal 1.77321e-016 -1 -2.71051e-020
    outer loop
      vertex 59.0761 -4 -2.80902
      vertex 58.7128 -4 -3.30902
      vertex 56.25 -4 -10
    endloop
  endfacet
  facet normal 1.77321e-016 -1 -2.71051e-020
    outer loop
      vertex 60.0372 -4 -4.19098
      vertex 60.625 -4 -4
      vertex 60.625 -4 -3.5
    endloop
  endfacet
  facet normal 1.77321e-016 -1 -2.71051e-020
    outer loop
      vertex 57.1739 -4 -2.19098
      vertex 56.25 -4 1.249e-014
      vertex 57.1739 -4 -2.80902
    endloop
  endfacet
  facet normal 1.77321e-016 -1 -2.71051e-020
    outer loop
      vertex 57.5372 -4 -1.69098
      vertex 56.25 -4 1.249e-014
      vertex 57.1739 -4 -2.19098
    endloop
  endfacet
  facet normal 1.77321e-016 -1 -2.71051e-020
    outer loop
      vertex 59.6739 -4 -2.19098
      vertex 60.0372 -4 -1.69098
      vertex 59.0761 -4 -2.80902
    endloop
  endfacet
  facet normal 1.77321e-016 -1 -2.71051e-020
    outer loop
      vertex 62.5 -4 1.38778e-014
      vertex 59.0761 -4 -2.19098
      vertex 60.0372 -4 -1.69098
    endloop
  endfacet
  facet normal 1.77321e-016 -1 -2.71051e-020
    outer loop
      vertex 62.5 -4 1.38778e-014
      vertex 60.0372 -4 -1.69098
      vertex 60.625 -4 -1.5
    endloop
  endfacet
  facet normal 1.77321e-016 -1 -2.71051e-020
    outer loop
      vertex 62.5 -4 -10
      vertex 62.5 -4 1.38778e-014
      vertex 61.5761 -4 -2.19098
    endloop
  endfacet
  facet normal 1.77321e-016 -1 -2.71051e-020
    outer loop
      vertex 62.5 -4 -10
      vertex 61.5761 -4 -2.19098
      vertex 61.5761 -4 -2.80902
    endloop
  endfacet
  facet normal 1.77321e-016 -1 -2.71051e-020
    outer loop
      vertex 61.5761 -4 -4.69098
      vertex 61.5761 -4 -5.30902
      vertex 62.5 -4 -10
    endloop
  endfacet
  facet normal 1.77321e-016 -1 -2.71051e-020
    outer loop
      vertex 61.5761 -4 -4.69098
      vertex 61.5761 -4 -2.80902
      vertex 61.2128 -4 -3.30902
    endloop
  endfacet
  facet normal 1.77321e-016 -1 -2.71051e-020
    outer loop
      vertex 59.6739 -4 -2.80902
      vertex 59.0761 -4 -2.80902
      vertex 60.0372 -4 -3.30902
    endloop
  endfacet
  facet normal 1.77321e-016 -1 -2.71051e-020
    outer loop
      vertex 60.625 -4 -4
      vertex 61.2128 -4 -4.19098
      vertex 61.2128 -4 -3.30902
    endloop
  endfacet
  facet normal 1.77321e-016 -1 -2.71051e-020
    outer loop
      vertex 59.6739 -4 -4.69098
      vertex 60.0372 -4 -3.30902
      vertex 56.25 -4 -10
    endloop
  endfacet
  facet normal 1.77321e-016 -1 -2.71051e-020
    outer loop
      vertex 59.6739 -4 -5.30902
      vertex 59.6739 -4 -4.69098
      vertex 56.25 -4 -10
    endloop
  endfacet
  facet normal 1.77321e-016 -1 -2.71051e-020
    outer loop
      vertex 62.5 -4 -10
      vertex 61.5761 -4 -2.80902
      vertex 61.5761 -4 -4.69098
    endloop
  endfacet
  facet normal 1.77321e-016 -1 -2.71051e-020
    outer loop
      vertex 60.0372 -4 -5.80902
      vertex 59.6739 -4 -5.30902
      vertex 56.25 -4 -10
    endloop
  endfacet
  facet normal 1.77321e-016 -1 -2.71051e-020
    outer loop
      vertex 61.5761 -4 -5.30902
      vertex 61.2128 -4 -5.80902
      vertex 62.5 -4 -10
    endloop
  endfacet
  facet normal 1.77321e-016 -1 -2.71051e-020
    outer loop
      vertex 62.5 -4 -10
      vertex 61.2128 -4 -5.80902
      vertex 56.25 -4 -10
    endloop
  endfacet
  facet normal 1.77321e-016 -1 -2.71051e-020
    outer loop
      vertex 61.2128 -4 -5.80902
      vertex 60.625 -4 -6
      vertex 56.25 -4 -10
    endloop
  endfacet
  facet normal 1.77321e-016 -1 -2.71051e-020
    outer loop
      vertex 60.625 -4 -6
      vertex 60.0372 -4 -5.80902
      vertex 56.25 -4 -10
    endloop
  endfacet
  facet normal 1.77321e-016 -1 -2.71051e-020
    outer loop
      vertex 60.625 -4 -3.5
      vertex 60.0372 -4 -3.30902
      vertex 60.0372 -4 -4.19098
    endloop
  endfacet
  facet normal 1.77321e-016 -1 -2.71051e-020
    outer loop
      vertex 60.0372 -4 -4.19098
      vertex 60.0372 -4 -3.30902
      vertex 59.6739 -4 -4.69098
    endloop
  endfacet
  facet normal 1.77321e-016 -1 -2.71051e-020
    outer loop
      vertex 58.7128 -4 -3.30902
      vertex 58.125 -4 -3.5
      vertex 56.25 -4 -10
    endloop
  endfacet
  facet normal 1.77321e-016 -1 -2.71051e-020
    outer loop
      vertex 61.2128 -4 -1.69098
      vertex 61.5761 -4 -2.19098
      vertex 62.5 -4 1.38778e-014
    endloop
  endfacet
  facet normal 1.77321e-016 -1 -2.71051e-020
    outer loop
      vertex 61.2128 -4 -3.30902
      vertex 60.625 -4 -3.5
      vertex 60.625 -4 -4
    endloop
  endfacet
  facet normal 2.22045e-016 3.48654e-032 -1
    outer loop
      vertex 56.25 -2 -10
      vertex 62.5 -2 -10
      vertex 56.25 -4 -10
    endloop
  endfacet
  facet normal 2.22045e-016 3.48654e-032 -1
    outer loop
      vertex 56.25 -4 -10
      vertex 62.5 -2 -10
      vertex 62.5 -4 -10
    endloop
  endfacet
  facet normal -0.295242 -0.295242 0.908661
    outer loop
      vertex 58.125 -4.58778 -1.69098
      vertex 58.125 -4 -1.5
      vertex 57.5372 -4 -1.69098
    endloop
  endfacet
  facet normal -0.295243 -0.295243 0.90866
    outer loop
      vertex 58.125 -4.58778 -1.69098
      vertex 57.5372 -4 -1.69098
      vertex 57.6495 -4.58778 -1.84549
    endloop
  endfacet
  facet normal -0.772952 -0.295242 0.561584
    outer loop
      vertex 57.6495 -4.58778 -1.84549
      vertex 57.5372 -4 -1.69098
      vertex 57.1739 -4 -2.19098
    endloop
  endfacet
  facet normal -0.772952 -0.295242 0.561584
    outer loop
      vertex 57.3556 -4.58778 -2.25
      vertex 57.6495 -4.58778 -1.84549
      vertex 57.1739 -4 -2.19098
    endloop
  endfacet
  facet normal -0.955422 -0.295242 -1.88795e-016
    outer loop
      vertex 57.1739 -4 -2.19098
      vertex 57.1739 -4 -2.80902
      vertex 57.3556 -4.58778 -2.25
    endloop
  endfacet
  facet normal -0.955422 -0.295242 -1.88795e-016
    outer loop
      vertex 57.3556 -4.58778 -2.25
      vertex 57.1739 -4 -2.80902
      vertex 57.3556 -4.58778 -2.75
    endloop
  endfacet
  facet normal -0.772952 -0.295242 -0.561584
    outer loop
      vertex 57.5372 -4 -3.30902
      vertex 57.3556 -4.58778 -2.75
      vertex 57.1739 -4 -2.80902
    endloop
  endfacet
  facet normal -0.772952 -0.295242 -0.561584
    outer loop
      vertex 57.6495 -4.58778 -3.15451
      vertex 57.3556 -4.58778 -2.75
      vertex 57.5372 -4 -3.30902
    endloop
  endfacet
  facet normal -0.295242 -0.295243 -0.908661
    outer loop
      vertex 58.125 -4 -3.5
      vertex 57.6495 -4.58778 -3.15451
      vertex 57.5372 -4 -3.30902
    endloop
  endfacet
  facet normal -0.295243 -0.295242 -0.908661
    outer loop
      vertex 58.125 -4.58778 -3.30902
      vertex 57.6495 -4.58778 -3.15451
      vertex 58.125 -4 -3.5
    endloop
  endfacet
  facet normal 0.295242 -0.295242 -0.908661
    outer loop
      vertex 58.7128 -4 -3.30902
      vertex 58.125 -4.58778 -3.30902
      vertex 58.125 -4 -3.5
    endloop
  endfacet
  facet normal 0.772952 -0.295242 -0.561584
    outer loop
      vertex 58.7128 -4 -3.30902
      vertex 59.0761 -4 -2.80902
      vertex 58.6005 -4.58778 -3.15451
    endloop
  endfacet
  facet normal 0.295243 -0.295243 -0.90866
    outer loop
      vertex 58.7128 -4 -3.30902
      vertex 58.6005 -4.58778 -3.15451
      vertex 58.125 -4.58778 -3.30902
    endloop
  endfacet
  facet normal 0.955422 -0.295242 1.88779e-016
    outer loop
      vertex 59.0761 -4 -2.80902
      vertex 59.0761 -4 -2.19098
      vertex 58.8944 -4.58778 -2.25
    endloop
  endfacet
  facet normal 0.955422 -0.295242 1.88779e-016
    outer loop
      vertex 58.8944 -4.58778 -2.75
      vertex 59.0761 -4 -2.80902
      vertex 58.8944 -4.58778 -2.25
    endloop
  endfacet
  facet normal 0.772952 -0.295242 -0.561584
    outer loop
      vertex 59.0761 -4 -2.80902
      vertex 58.8944 -4.58778 -2.75
      vertex 58.6005 -4.58778 -3.15451
    endloop
  endfacet
  facet normal 0.772952 -0.295242 0.561584
    outer loop
      vertex 59.0761 -4 -2.19098
      vertex 58.7128 -4 -1.69098
      vertex 58.8944 -4.58778 -2.25
    endloop
  endfacet
  facet normal 0.295242 -0.295243 0.908661
    outer loop
      vertex 58.7128 -4 -1.69098
      vertex 58.125 -4 -1.5
      vertex 58.6005 -4.58778 -1.84549
    endloop
  endfacet
  facet normal 0.772952 -0.295242 0.561584
    outer loop
      vertex 58.8944 -4.58778 -2.25
      vertex 58.7128 -4 -1.69098
      vertex 58.6005 -4.58778 -1.84549
    endloop
  endfacet
  facet normal 0.295243 -0.295242 0.908661
    outer loop
      vertex 58.6005 -4.58778 -1.84549
      vertex 58.125 -4 -1.5
      vertex 58.125 -4.58778 -1.69098
    endloop
  endfacet
  facet normal -0.295242 -0.295242 0.908661
    outer loop
      vertex 60.625 -4.58778 -1.69098
      vertex 60.625 -4 -1.5
      vertex 60.0372 -4 -1.69098
    endloop
  endfacet
  facet normal -0.295243 -0.295243 0.90866
    outer loop
      vertex 60.625 -4.58778 -1.69098
      vertex 60.0372 -4 -1.69098
      vertex 60.1495 -4.58778 -1.84549
    endloop
  endfacet
  facet normal -0.772952 -0.295242 0.561584
    outer loop
      vertex 60.1495 -4.58778 -1.84549
      vertex 60.0372 -4 -1.69098
      vertex 59.6739 -4 -2.19098
    endloop
  endfacet
  facet normal -0.772952 -0.295242 0.561584
    outer loop
      vertex 59.8556 -4.58778 -2.25
      vertex 60.1495 -4.58778 -1.84549
      vertex 59.6739 -4 -2.19098
    endloop
  endfacet
  facet normal -0.955422 -0.295242 -1.88795e-016
    outer loop
      vertex 59.6739 -4 -2.19098
      vertex 59.6739 -4 -2.80902
      vertex 59.8556 -4.58778 -2.25
    endloop
  endfacet
  facet normal -0.955422 -0.295242 -1.88795e-016
    outer loop
      vertex 59.8556 -4.58778 -2.25
      vertex 59.6739 -4 -2.80902
      vertex 59.8556 -4.58778 -2.75
    endloop
  endfacet
  facet normal -0.772952 -0.295242 -0.561584
    outer loop
      vertex 60.0372 -4 -3.30902
      vertex 59.8556 -4.58778 -2.75
      vertex 59.6739 -4 -2.80902
    endloop
  endfacet
  facet normal -0.772952 -0.295242 -0.561584
    outer loop
      vertex 60.1495 -4.58778 -3.15451
      vertex 59.8556 -4.58778 -2.75
      vertex 60.0372 -4 -3.30902
    endloop
  endfacet
  facet normal -0.295242 -0.295243 -0.908661
    outer loop
      vertex 60.625 -4 -3.5
      vertex 60.1495 -4.58778 -3.15451
      vertex 60.0372 -4 -3.30902
    endloop
  endfacet
  facet normal -0.295243 -0.295242 -0.908661
    outer loop
      vertex 60.625 -4.58778 -3.30902
      vertex 60.1495 -4.58778 -3.15451
      vertex 60.625 -4 -3.5
    endloop
  endfacet
  facet normal 0.295242 -0.295242 -0.908661
    outer loop
      vertex 61.2128 -4 -3.30902
      vertex 60.625 -4.58778 -3.30902
      vertex 60.625 -4 -3.5
    endloop
  endfacet
  facet normal 0.772952 -0.295242 -0.561584
    outer loop
      vertex 61.2128 -4 -3.30902
      vertex 61.5761 -4 -2.80902
      vertex 61.1005 -4.58778 -3.15451
    endloop
  endfacet
  facet normal 0.295243 -0.295243 -0.90866
    outer loop
      vertex 61.2128 -4 -3.30902
      vertex 61.1005 -4.58778 -3.15451
      vertex 60.625 -4.58778 -3.30902
    endloop
  endfacet
  facet normal 0.955422 -0.295242 1.88779e-016
    outer loop
      vertex 61.5761 -4 -2.80902
      vertex 61.5761 -4 -2.19098
      vertex 61.3944 -4.58778 -2.25
    endloop
  endfacet
  facet normal 0.955422 -0.295242 1.88779e-016
    outer loop
      vertex 61.3944 -4.58778 -2.75
      vertex 61.5761 -4 -2.80902
      vertex 61.3944 -4.58778 -2.25
    endloop
  endfacet
  facet normal 0.772952 -0.295242 -0.561584
    outer loop
      vertex 61.5761 -4 -2.80902
      vertex 61.3944 -4.58778 -2.75
      vertex 61.1005 -4.58778 -3.15451
    endloop
  endfacet
  facet normal 0.772952 -0.295242 0.561584
    outer loop
      vertex 61.5761 -4 -2.19098
      vertex 61.2128 -4 -1.69098
      vertex 61.3944 -4.58778 -2.25
    endloop
  endfacet
  facet normal 0.295242 -0.295243 0.908661
    outer loop
      vertex 61.2128 -4 -1.69098
      vertex 60.625 -4 -1.5
      vertex 61.1005 -4.58778 -1.84549
    endloop
  endfacet
  facet normal 0.772952 -0.295242 0.561584
    outer loop
      vertex 61.3944 -4.58778 -2.25
      vertex 61.2128 -4 -1.69098
      vertex 61.1005 -4.58778 -1.84549
    endloop
  endfacet
  facet normal 0.295243 -0.295242 0.908661
    outer loop
      vertex 61.1005 -4.58778 -1.84549
      vertex 60.625 -4 -1.5
      vertex 60.625 -4.58778 -1.69098
    endloop
  endfacet
  facet normal -0.295242 -0.295242 0.908661
    outer loop
      vertex 60.625 -4.58778 -4.19098
      vertex 60.625 -4 -4
      vertex 60.0372 -4 -4.19098
    endloop
  endfacet
  facet normal -0.295243 -0.295243 0.90866
    outer loop
      vertex 60.625 -4.58778 -4.19098
      vertex 60.0372 -4 -4.19098
      vertex 60.1495 -4.58778 -4.34549
    endloop
  endfacet
  facet normal -0.772952 -0.295242 0.561584
    outer loop
      vertex 60.1495 -4.58778 -4.34549
      vertex 60.0372 -4 -4.19098
      vertex 59.6739 -4 -4.69098
    endloop
  endfacet
  facet normal -0.772952 -0.295242 0.561584
    outer loop
      vertex 59.8556 -4.58778 -4.75
      vertex 60.1495 -4.58778 -4.34549
      vertex 59.6739 -4 -4.69098
    endloop
  endfacet
  facet normal -0.955422 -0.295242 -1.88795e-016
    outer loop
      vertex 59.6739 -4 -4.69098
      vertex 59.6739 -4 -5.30902
      vertex 59.8556 -4.58778 -4.75
    endloop
  endfacet
  facet normal -0.955422 -0.295242 -1.88795e-016
    outer loop
      vertex 59.8556 -4.58778 -4.75
      vertex 59.6739 -4 -5.30902
      vertex 59.8556 -4.58778 -5.25
    endloop
  endfacet
  facet normal -0.772952 -0.295242 -0.561584
    outer loop
      vertex 60.0372 -4 -5.80902
      vertex 59.8556 -4.58778 -5.25
      vertex 59.6739 -4 -5.30902
    endloop
  endfacet
  facet normal -0.772952 -0.295242 -0.561584
    outer loop
      vertex 60.1495 -4.58778 -5.65451
      vertex 59.8556 -4.58778 -5.25
      vertex 60.0372 -4 -5.80902
    endloop
  endfacet
  facet normal -0.295242 -0.295243 -0.908661
    outer loop
      vertex 60.625 -4 -6
      vertex 60.1495 -4.58778 -5.65451
      vertex 60.0372 -4 -5.80902
    endloop
  endfacet
  facet normal -0.295243 -0.295242 -0.908661
    outer loop
      vertex 60.625 -4.58778 -5.80902
      vertex 60.1495 -4.58778 -5.65451
      vertex 60.625 -4 -6
    endloop
  endfacet
  facet normal 0.295242 -0.295242 -0.908661
    outer loop
      vertex 61.2128 -4 -5.80902
      vertex 60.625 -4.58778 -5.80902
      vertex 60.625 -4 -6
    endloop
  endfacet
  facet normal 0.772952 -0.295242 -0.561584
    outer loop
      vertex 61.2128 -4 -5.80902
      vertex 61.5761 -4 -5.30902
      vertex 61.1005 -4.58778 -5.65451
    endloop
  endfacet
  facet normal 0.295243 -0.295243 -0.90866
    outer loop
      vertex 61.2128 -4 -5.80902
      vertex 61.1005 -4.58778 -5.65451
      vertex 60.625 -4.58778 -5.80902
    endloop
  endfacet
  facet normal 0.955422 -0.295242 1.88779e-016
    outer loop
      vertex 61.5761 -4 -5.30902
      vertex 61.5761 -4 -4.69098
      vertex 61.3944 -4.58778 -4.75
    endloop
  endfacet
  facet normal 0.955422 -0.295242 1.88779e-016
    outer loop
      vertex 61.3944 -4.58778 -5.25
      vertex 61.5761 -4 -5.30902
      vertex 61.3944 -4.58778 -4.75
    endloop
  endfacet
  facet normal 0.772952 -0.295242 -0.561584
    outer loop
      vertex 61.5761 -4 -5.30902
      vertex 61.3944 -4.58778 -5.25
      vertex 61.1005 -4.58778 -5.65451
    endloop
  endfacet
  facet normal 0.772952 -0.295242 0.561584
    outer loop
      vertex 61.5761 -4 -4.69098
      vertex 61.2128 -4 -4.19098
      vertex 61.3944 -4.58778 -4.75
    endloop
  endfacet
  facet normal 0.295242 -0.295243 0.908661
    outer loop
      vertex 61.2128 -4 -4.19098
      vertex 60.625 -4 -4
      vertex 61.1005 -4.58778 -4.34549
    endloop
  endfacet
  facet normal 0.772952 -0.295242 0.561584
    outer loop
      vertex 61.3944 -4.58778 -4.75
      vertex 61.2128 -4 -4.19098
      vertex 61.1005 -4.58778 -4.34549
    endloop
  endfacet
  facet normal 0.295243 -0.295242 0.908661
    outer loop
      vertex 61.1005 -4.58778 -4.34549
      vertex 60.625 -4 -4
      vertex 60.625 -4.58778 -4.19098
    endloop
  endfacet
  facet normal 0.187593 -0.794654 0.577351
    outer loop
      vertex 58.6005 -4.58778 -1.84549
      vertex 58.125 -4.58778 -1.69098
      vertex 58.3066 -4.95106 -2.25
    endloop
  endfacet
  facet normal 0.187592 -0.794654 0.577351
    outer loop
      vertex 58.3066 -4.95106 -2.25
      vertex 58.125 -4.58778 -1.69098
      vertex 58.125 -4.95106 -2.19098
    endloop
  endfacet
  facet normal -0.187593 -0.794654 0.577351
    outer loop
      vertex 58.125 -4.95106 -2.19098
      vertex 58.125 -4.58778 -1.69098
      vertex 57.6495 -4.58778 -1.84549
    endloop
  endfacet
  facet normal -0.187593 -0.794653 0.577352
    outer loop
      vertex 58.125 -4.95106 -2.19098
      vertex 57.6495 -4.58778 -1.84549
      vertex 57.9434 -4.95106 -2.25
    endloop
  endfacet
  facet normal -0.491124 -0.794654 0.356823
    outer loop
      vertex 57.9434 -4.95106 -2.25
      vertex 57.6495 -4.58778 -1.84549
      vertex 57.3556 -4.58778 -2.25
    endloop
  endfacet
  facet normal -0.491124 -0.794653 0.356824
    outer loop
      vertex 57.9434 -4.95106 -2.25
      vertex 57.3556 -4.58778 -2.25
      vertex 57.8311 -4.95106 -2.40451
    endloop
  endfacet
  facet normal -0.607063 -0.794654 -1.19975e-016
    outer loop
      vertex 57.8311 -4.95106 -2.40451
      vertex 57.3556 -4.58778 -2.25
      vertex 57.3556 -4.58778 -2.75
    endloop
  endfacet
  facet normal -0.607063 -0.794654 -1.19975e-016
    outer loop
      vertex 57.8311 -4.95106 -2.59549
      vertex 57.8311 -4.95106 -2.40451
      vertex 57.3556 -4.58778 -2.75
    endloop
  endfacet
  facet normal -0.491124 -0.794653 -0.356823
    outer loop
      vertex 57.6495 -4.58778 -3.15451
      vertex 57.8311 -4.95106 -2.59549
      vertex 57.3556 -4.58778 -2.75
    endloop
  endfacet
  facet normal -0.491124 -0.794654 -0.356824
    outer loop
      vertex 57.9434 -4.95106 -2.75
      vertex 57.8311 -4.95106 -2.59549
      vertex 57.6495 -4.58778 -3.15451
    endloop
  endfacet
  facet normal -0.187593 -0.794654 -0.577351
    outer loop
      vertex 58.125 -4.58778 -3.30902
      vertex 57.9434 -4.95106 -2.75
      vertex 57.6495 -4.58778 -3.15451
    endloop
  endfacet
  facet normal -0.187592 -0.794654 -0.577351
    outer loop
      vertex 58.125 -4.95106 -2.80902
      vertex 57.9434 -4.95106 -2.75
      vertex 58.125 -4.58778 -3.30902
    endloop
  endfacet
  facet normal 0.187593 -0.794654 -0.577351
    outer loop
      vertex 58.6005 -4.58778 -3.15451
      vertex 58.125 -4.95106 -2.80902
      vertex 58.125 -4.58778 -3.30902
    endloop
  endfacet
  facet normal 0.187593 -0.794653 -0.577352
    outer loop
      vertex 58.6005 -4.58778 -3.15451
      vertex 58.3066 -4.95106 -2.75
      vertex 58.125 -4.95106 -2.80902
    endloop
  endfacet
  facet normal 0.491124 -0.794654 -0.356823
    outer loop
      vertex 58.8944 -4.58778 -2.75
      vertex 58.3066 -4.95106 -2.75
      vertex 58.6005 -4.58778 -3.15451
    endloop
  endfacet
  facet normal 0.491124 -0.794653 -0.356824
    outer loop
      vertex 58.8944 -4.58778 -2.75
      vertex 58.4189 -4.95106 -2.59549
      vertex 58.3066 -4.95106 -2.75
    endloop
  endfacet
  facet normal 0.607063 -0.794654 1.19932e-016
    outer loop
      vertex 58.8944 -4.58778 -2.75
      vertex 58.8944 -4.58778 -2.25
      vertex 58.4189 -4.95106 -2.40451
    endloop
  endfacet
  facet normal 0.607063 -0.794654 1.19932e-016
    outer loop
      vertex 58.4189 -4.95106 -2.59549
      vertex 58.8944 -4.58778 -2.75
      vertex 58.4189 -4.95106 -2.40451
    endloop
  endfacet
  facet normal 0.491124 -0.794653 0.356823
    outer loop
      vertex 58.8944 -4.58778 -2.25
      vertex 58.6005 -4.58778 -1.84549
      vertex 58.4189 -4.95106 -2.40451
    endloop
  endfacet
  facet normal 0.491124 -0.794654 0.356824
    outer loop
      vertex 58.4189 -4.95106 -2.40451
      vertex 58.6005 -4.58778 -1.84549
      vertex 58.3066 -4.95106 -2.25
    endloop
  endfacet
  facet normal 0.187593 -0.794654 0.577351
    outer loop
      vertex 61.1005 -4.58778 -1.84549
      vertex 60.625 -4.58778 -1.69098
      vertex 60.8066 -4.95106 -2.25
    endloop
  endfacet
  facet normal 0.187592 -0.794654 0.577351
    outer loop
      vertex 60.8066 -4.95106 -2.25
      vertex 60.625 -4.58778 -1.69098
      vertex 60.625 -4.95106 -2.19098
    endloop
  endfacet
  facet normal -0.187593 -0.794654 0.577351
    outer loop
      vertex 60.625 -4.95106 -2.19098
      vertex 60.625 -4.58778 -1.69098
      vertex 60.1495 -4.58778 -1.84549
    endloop
  endfacet
  facet normal -0.187593 -0.794653 0.577352
    outer loop
      vertex 60.625 -4.95106 -2.19098
      vertex 60.1495 -4.58778 -1.84549
      vertex 60.4434 -4.95106 -2.25
    endloop
  endfacet
  facet normal -0.491124 -0.794654 0.356823
    outer loop
      vertex 60.4434 -4.95106 -2.25
      vertex 60.1495 -4.58778 -1.84549
      vertex 59.8556 -4.58778 -2.25
    endloop
  endfacet
  facet normal -0.491124 -0.794653 0.356824
    outer loop
      vertex 60.4434 -4.95106 -2.25
      vertex 59.8556 -4.58778 -2.25
      vertex 60.3311 -4.95106 -2.40451
    endloop
  endfacet
  facet normal -0.607063 -0.794654 -1.19975e-016
    outer loop
      vertex 60.3311 -4.95106 -2.40451
      vertex 59.8556 -4.58778 -2.25
      vertex 59.8556 -4.58778 -2.75
    endloop
  endfacet
  facet normal -0.607063 -0.794654 -1.19975e-016
    outer loop
      vertex 60.3311 -4.95106 -2.59549
      vertex 60.3311 -4.95106 -2.40451
      vertex 59.8556 -4.58778 -2.75
    endloop
  endfacet
  facet normal -0.491124 -0.794653 -0.356823
    outer loop
      vertex 60.1495 -4.58778 -3.15451
      vertex 60.3311 -4.95106 -2.59549
      vertex 59.8556 -4.58778 -2.75
    endloop
  endfacet
  facet normal -0.491124 -0.794654 -0.356824
    outer loop
      vertex 60.4434 -4.95106 -2.75
      vertex 60.3311 -4.95106 -2.59549
      vertex 60.1495 -4.58778 -3.15451
    endloop
  endfacet
  facet normal -0.187593 -0.794654 -0.577351
    outer loop
      vertex 60.625 -4.58778 -3.30902
      vertex 60.4434 -4.95106 -2.75
      vertex 60.1495 -4.58778 -3.15451
    endloop
  endfacet
  facet normal -0.187592 -0.794654 -0.577351
    outer loop
      vertex 60.625 -4.95106 -2.80902
      vertex 60.4434 -4.95106 -2.75
      vertex 60.625 -4.58778 -3.30902
    endloop
  endfacet
  facet normal 0.187593 -0.794654 -0.577351
    outer loop
      vertex 61.1005 -4.58778 -3.15451
      vertex 60.625 -4.95106 -2.80902
      vertex 60.625 -4.58778 -3.30902
    endloop
  endfacet
  facet normal 0.187593 -0.794653 -0.577352
    outer loop
      vertex 61.1005 -4.58778 -3.15451
      vertex 60.8066 -4.95106 -2.75
      vertex 60.625 -4.95106 -2.80902
    endloop
  endfacet
  facet normal 0.491124 -0.794654 -0.356823
    outer loop
      vertex 61.3944 -4.58778 -2.75
      vertex 60.8066 -4.95106 -2.75
      vertex 61.1005 -4.58778 -3.15451
    endloop
  endfacet
  facet normal 0.491124 -0.794653 -0.356824
    outer loop
      vertex 61.3944 -4.58778 -2.75
      vertex 60.9189 -4.95106 -2.59549
      vertex 60.8066 -4.95106 -2.75
    endloop
  endfacet
  facet normal 0.607063 -0.794654 1.19932e-016
    outer loop
      vertex 61.3944 -4.58778 -2.75
      vertex 61.3944 -4.58778 -2.25
      vertex 60.9189 -4.95106 -2.40451
    endloop
  endfacet
  facet normal 0.607063 -0.794654 1.19932e-016
    outer loop
      vertex 60.9189 -4.95106 -2.59549
      vertex 61.3944 -4.58778 -2.75
      vertex 60.9189 -4.95106 -2.40451
    endloop
  endfacet
  facet normal 0.491124 -0.794653 0.356823
    outer loop
      vertex 61.3944 -4.58778 -2.25
      vertex 61.1005 -4.58778 -1.84549
      vertex 60.9189 -4.95106 -2.40451
    endloop
  endfacet
  facet normal 0.491124 -0.794654 0.356824
    outer loop
      vertex 60.9189 -4.95106 -2.40451
      vertex 61.1005 -4.58778 -1.84549
      vertex 60.8066 -4.95106 -2.25
    endloop
  endfacet
  facet normal 0.187593 -0.794654 0.577351
    outer loop
      vertex 61.1005 -4.58778 -4.34549
      vertex 60.625 -4.58778 -4.19098
      vertex 60.8066 -4.95106 -4.75
    endloop
  endfacet
  facet normal 0.187592 -0.794654 0.577351
    outer loop
      vertex 60.8066 -4.95106 -4.75
      vertex 60.625 -4.58778 -4.19098
      vertex 60.625 -4.95106 -4.69098
    endloop
  endfacet
  facet normal -0.187593 -0.794654 0.577351
    outer loop
      vertex 60.625 -4.95106 -4.69098
      vertex 60.625 -4.58778 -4.19098
      vertex 60.1495 -4.58778 -4.34549
    endloop
  endfacet
  facet normal -0.187593 -0.794653 0.577352
    outer loop
      vertex 60.625 -4.95106 -4.69098
      vertex 60.1495 -4.58778 -4.34549
      vertex 60.4434 -4.95106 -4.75
    endloop
  endfacet
  facet normal -0.491124 -0.794654 0.356823
    outer loop
      vertex 60.4434 -4.95106 -4.75
      vertex 60.1495 -4.58778 -4.34549
      vertex 59.8556 -4.58778 -4.75
    endloop
  endfacet
  facet normal -0.491124 -0.794653 0.356824
    outer loop
      vertex 60.4434 -4.95106 -4.75
      vertex 59.8556 -4.58778 -4.75
      vertex 60.3311 -4.95106 -4.90451
    endloop
  endfacet
  facet normal -0.607063 -0.794654 -1.19975e-016
    outer loop
      vertex 60.3311 -4.95106 -4.90451
      vertex 59.8556 -4.58778 -4.75
      vertex 59.8556 -4.58778 -5.25
    endloop
  endfacet
  facet normal -0.607063 -0.794654 -1.19975e-016
    outer loop
      vertex 60.3311 -4.95106 -5.09549
      vertex 60.3311 -4.95106 -4.90451
      vertex 59.8556 -4.58778 -5.25
    endloop
  endfacet
  facet normal -0.491124 -0.794653 -0.356823
    outer loop
      vertex 60.1495 -4.58778 -5.65451
      vertex 60.3311 -4.95106 -5.09549
      vertex 59.8556 -4.58778 -5.25
    endloop
  endfacet
  facet normal -0.491124 -0.794654 -0.356824
    outer loop
      vertex 60.4434 -4.95106 -5.25
      vertex 60.3311 -4.95106 -5.09549
      vertex 60.1495 -4.58778 -5.65451
    endloop
  endfacet
  facet normal -0.187593 -0.794654 -0.577351
    outer loop
      vertex 60.625 -4.58778 -5.80902
      vertex 60.4434 -4.95106 -5.25
      vertex 60.1495 -4.58778 -5.65451
    endloop
  endfacet
  facet normal -0.187592 -0.794654 -0.577351
    outer loop
      vertex 60.625 -4.95106 -5.30902
      vertex 60.4434 -4.95106 -5.25
      vertex 60.625 -4.58778 -5.80902
    endloop
  endfacet
  facet normal 0.187593 -0.794654 -0.577351
    outer loop
      vertex 61.1005 -4.58778 -5.65451
      vertex 60.625 -4.95106 -5.30902
      vertex 60.625 -4.58778 -5.80902
    endloop
  endfacet
  facet normal 0.187593 -0.794653 -0.577352
    outer loop
      vertex 61.1005 -4.58778 -5.65451
      vertex 60.8066 -4.95106 -5.25
      vertex 60.625 -4.95106 -5.30902
    endloop
  endfacet
  facet normal 0.491124 -0.794654 -0.356823
    outer loop
      vertex 61.3944 -4.58778 -5.25
      vertex 60.8066 -4.95106 -5.25
      vertex 61.1005 -4.58778 -5.65451
    endloop
  endfacet
  facet normal 0.491124 -0.794653 -0.356824
    outer loop
      vertex 61.3944 -4.58778 -5.25
      vertex 60.9189 -4.95106 -5.09549
      vertex 60.8066 -4.95106 -5.25
    endloop
  endfacet
  facet normal 0.607063 -0.794654 1.19932e-016
    outer loop
      vertex 61.3944 -4.58778 -5.25
      vertex 61.3944 -4.58778 -4.75
      vertex 60.9189 -4.95106 -4.90451
    endloop
  endfacet
  facet normal 0.607063 -0.794654 1.19932e-016
    outer loop
      vertex 60.9189 -4.95106 -5.09549
      vertex 61.3944 -4.58778 -5.25
      vertex 60.9189 -4.95106 -4.90451
    endloop
  endfacet
  facet normal 0.491124 -0.794653 0.356823
    outer loop
      vertex 61.3944 -4.58778 -4.75
      vertex 61.1005 -4.58778 -4.34549
      vertex 60.9189 -4.95106 -4.90451
    endloop
  endfacet
  facet normal 0.491124 -0.794654 0.356824
    outer loop
      vertex 60.9189 -4.95106 -4.90451
      vertex 61.1005 -4.58778 -4.34549
      vertex 60.8066 -4.95106 -4.75
    endloop
  endfacet
  facet normal 1.77321e-016 -1 -2.71051e-020
    outer loop
      vertex 58.3066 -4.95106 -2.25
      vertex 58.125 -4.95106 -2.19098
      vertex 57.9434 -4.95106 -2.25
    endloop
  endfacet
  facet normal 1.77321e-016 -1 -2.71051e-020
    outer loop
      vertex 57.8311 -4.95106 -2.59549
      vertex 58.3066 -4.95106 -2.25
      vertex 57.8311 -4.95106 -2.40451
    endloop
  endfacet
  facet normal 1.77321e-016 -1 -2.71051e-020
    outer loop
      vertex 57.8311 -4.95106 -2.40451
      vertex 58.3066 -4.95106 -2.25
      vertex 57.9434 -4.95106 -2.25
    endloop
  endfacet
  facet normal 1.77321e-016 -1 -2.71051e-020
    outer loop
      vertex 57.9434 -4.95106 -2.75
      vertex 58.3066 -4.95106 -2.25
      vertex 57.8311 -4.95106 -2.59549
    endloop
  endfacet
  facet normal 1.77321e-016 -1 -2.71051e-020
    outer loop
      vertex 58.125 -4.95106 -2.80902
      vertex 58.3066 -4.95106 -2.25
      vertex 57.9434 -4.95106 -2.75
    endloop
  endfacet
  facet normal 1.77321e-016 -1 -2.71051e-020
    outer loop
      vertex 58.3066 -4.95106 -2.75
      vertex 58.3066 -4.95106 -2.25
      vertex 58.125 -4.95106 -2.80902
    endloop
  endfacet
  facet normal 1.77321e-016 -1 -2.71051e-020
    outer loop
      vertex 58.4189 -4.95106 -2.59549
      vertex 58.3066 -4.95106 -2.25
      vertex 58.3066 -4.95106 -2.75
    endloop
  endfacet
  facet normal 1.77321e-016 -1 -2.71051e-020
    outer loop
      vertex 58.4189 -4.95106 -2.40451
      vertex 58.3066 -4.95106 -2.25
      vertex 58.4189 -4.95106 -2.59549
    endloop
  endfacet
  facet normal 1.77321e-016 -1 -2.71051e-020
    outer loop
      vertex 60.8066 -4.95106 -2.25
      vertex 60.625 -4.95106 -2.19098
      vertex 60.4434 -4.95106 -2.25
    endloop
  endfacet
  facet normal 1.77321e-016 -1 -2.71051e-020
    outer loop
      vertex 60.3311 -4.95106 -2.59549
      vertex 60.8066 -4.95106 -2.25
      vertex 60.3311 -4.95106 -2.40451
    endloop
  endfacet
  facet normal 1.77321e-016 -1 -2.71051e-020
    outer loop
      vertex 60.3311 -4.95106 -2.40451
      vertex 60.8066 -4.95106 -2.25
      vertex 60.4434 -4.95106 -2.25
    endloop
  endfacet
  facet normal 1.77321e-016 -1 -2.71051e-020
    outer loop
      vertex 60.4434 -4.95106 -2.75
      vertex 60.8066 -4.95106 -2.25
      vertex 60.3311 -4.95106 -2.59549
    endloop
  endfacet
  facet normal 1.77321e-016 -1 -2.71051e-020
    outer loop
      vertex 60.625 -4.95106 -2.80902
      vertex 60.8066 -4.95106 -2.25
      vertex 60.4434 -4.95106 -2.75
    endloop
  endfacet
  facet normal 1.77321e-016 -1 -2.71051e-020
    outer loop
      vertex 60.8066 -4.95106 -2.75
      vertex 60.8066 -4.95106 -2.25
      vertex 60.625 -4.95106 -2.80902
    endloop
  endfacet
  facet normal 1.77321e-016 -1 -2.71051e-020
    outer loop
      vertex 60.9189 -4.95106 -2.59549
      vertex 60.8066 -4.95106 -2.25
      vertex 60.8066 -4.95106 -2.75
    endloop
  endfacet
  facet normal 1.77321e-016 -1 -2.71051e-020
    outer loop
      vertex 60.9189 -4.95106 -2.40451
      vertex 60.8066 -4.95106 -2.25
      vertex 60.9189 -4.95106 -2.59549
    endloop
  endfacet
  facet normal 1.77321e-016 -1 -2.71051e-020
    outer loop
      vertex 60.8066 -4.95106 -4.75
      vertex 60.625 -4.95106 -4.69098
      vertex 60.4434 -4.95106 -4.75
    endloop
  endfacet
  facet normal 1.77321e-016 -1 -2.71051e-020
    outer loop
      vertex 60.3311 -4.95106 -5.09549
      vertex 60.8066 -4.95106 -4.75
      vertex 60.3311 -4.95106 -4.90451
    endloop
  endfacet
  facet normal 1.77321e-016 -1 -2.71051e-020
    outer loop
      vertex 60.3311 -4.95106 -4.90451
      vertex 60.8066 -4.95106 -4.75
      vertex 60.4434 -4.95106 -4.75
    endloop
  endfacet
  facet normal 1.77321e-016 -1 -2.71051e-020
    outer loop
      vertex 60.4434 -4.95106 -5.25
      vertex 60.8066 -4.95106 -4.75
      vertex 60.3311 -4.95106 -5.09549
    endloop
  endfacet
  facet normal 1.77321e-016 -1 -2.71051e-020
    outer loop
      vertex 60.625 -4.95106 -5.30902
      vertex 60.8066 -4.95106 -4.75
      vertex 60.4434 -4.95106 -5.25
    endloop
  endfacet
  facet normal 1.77321e-016 -1 -2.71051e-020
    outer loop
      vertex 60.8066 -4.95106 -5.25
      vertex 60.8066 -4.95106 -4.75
      vertex 60.625 -4.95106 -5.30902
    endloop
  endfacet
  facet normal 1.77321e-016 -1 -2.71051e-020
    outer loop
      vertex 60.9189 -4.95106 -5.09549
      vertex 60.8066 -4.95106 -4.75
      vertex 60.8066 -4.95106 -5.25
    endloop
  endfacet
  facet normal 1.77321e-016 -1 -2.71051e-020
    outer loop
      vertex 60.9189 -4.95106 -4.90451
      vertex 60.8066 -4.95106 -4.75
      vertex 60.9189 -4.95106 -5.09549
    endloop
  endfacet
endsolid OpenSCAD_Model
